<svg xmlns="http://www.w3.org/2000/svg" width="155" height="45.84" viewBox="0 0 155 45.84">
  <defs>
    <style>
      .cls-1 {
        fill-rule: evenodd;
      }
    </style>
  </defs>
  <path id="btn_App_store.svg" data-name="btn_App store.svg" class="cls-1" d="M701.563,2340.98a2.538,2.538,0,0,0-1.644.6,2.786,2.786,0,0,0-.962,1.58,3.221,3.221,0,0,0-.114.74v1.83a2.952,2.952,0,0,0,.735,2.03,2.455,2.455,0,0,0,1.918.83,2.508,2.508,0,0,0,2.152-1.07,4.654,4.654,0,0,0,.772-2.8,4.518,4.518,0,0,0-.727-2.65A2.494,2.494,0,0,0,701.563,2340.98Zm-12.672,0a2.536,2.536,0,0,0-1.643.6,2.787,2.787,0,0,0-.963,1.58,3.166,3.166,0,0,0-.114.74v1.83a2.944,2.944,0,0,0,.737,2.03,2.453,2.453,0,0,0,1.915.83,2.509,2.509,0,0,0,2.153-1.07,4.654,4.654,0,0,0,.772-2.8,4.518,4.518,0,0,0-.726-2.65A2.5,2.5,0,0,0,688.891,2340.98Zm17.163-16.07a1.211,1.211,0,0,0-1.1.65,2.765,2.765,0,0,0,0,2.59,1.211,1.211,0,0,0,1.092.64,1.2,1.2,0,0,0,1.078-.66,2.392,2.392,0,0,0,.334-1.29,2.443,2.443,0,0,0-.322-1.28A1.193,1.193,0,0,0,706.054,2324.91Zm-25.66,0a1.213,1.213,0,0,0-1.1.65,2.765,2.765,0,0,0,0,2.59,1.231,1.231,0,0,0,2.171-.02,2.4,2.4,0,0,0,.335-1.29,2.434,2.434,0,0,0-.323-1.28A1.194,1.194,0,0,0,680.394,2324.91Zm39.255,0.35a1.211,1.211,0,0,0-.8-0.29,1.249,1.249,0,0,0-1.059.53,2.293,2.293,0,0,0-.385,1.37,2.135,2.135,0,0,0,.369,1.3,1.226,1.226,0,0,0,1.052.53,1.148,1.148,0,0,0,.951-0.44,1.464,1.464,0,0,0,.345-0.99v-0.9a1.771,1.771,0,0,0-.033-0.38A1.389,1.389,0,0,0,719.649,2325.26Zm-44.585,11.78h-0.046q-0.225.975-.726,2.88l-1.268,3.98h4.1l-1.292-3.98Q675.63,2339.305,675.064,2337.04Zm82.718-11.68a1.038,1.038,0,0,0-.957-0.5,1.136,1.136,0,0,0-.958.49,1.811,1.811,0,0,0-.357.93h2.5A1.6,1.6,0,0,0,757.782,2325.36Zm-28.788,3.43a1.2,1.2,0,0,0,1.08-.66,2.678,2.678,0,0,0,.011-2.57,1.193,1.193,0,0,0-1.08-.65,1.214,1.214,0,0,0-1.1.65,2.757,2.757,0,0,0,0,2.59A1.209,1.209,0,0,0,728.994,2328.79Zm-54.7-.9a3.053,3.053,0,0,0,.753-2.23,2.445,2.445,0,0,0-2.729-2.72,5.311,5.311,0,0,0-.969.08v5.61a7.211,7.211,0,0,0,.813.03A2.857,2.857,0,0,0,674.3,2327.89Zm38.547,0.65a1.032,1.032,0,0,0,.436-0.85v-0.83c-1.327-.02-1.991.34-1.991,1.09a0.806,0.806,0,0,0,.231.63,0.846,0.846,0,0,0,.588.21A1.2,1.2,0,0,0,712.842,2328.54Zm23.113,12.28a2.454,2.454,0,0,0-2.245,1.32,5.055,5.055,0,0,0-.657,2.66,4.97,4.97,0,0,0,.657,2.61,2.48,2.48,0,0,0,2.223,1.31,2.455,2.455,0,0,0,2.2-1.34,5.476,5.476,0,0,0,.021-5.24A2.417,2.417,0,0,0,735.955,2340.82Zm19.538-.11a2.317,2.317,0,0,0-1.949,1,3.616,3.616,0,0,0-.724,1.9h5.1a3.319,3.319,0,0,0-.475-1.88A2.14,2.14,0,0,0,755.493,2340.71Zm13.992-26.56H625.43a5.43,5.43,0,0,0-5.43,5.42v35a5.439,5.439,0,0,0,5.43,5.43H769.485a5.513,5.513,0,0,0,5.515-5.43v-35A5.5,5.5,0,0,0,769.485,2314.15Zm-14.465,10.74a2.29,2.29,0,0,1,1.892-.86,2,2,0,0,1,1.769.86,2.891,2.891,0,0,1,.482,1.7,3.011,3.011,0,0,1-.044.55H755.51a1.568,1.568,0,0,0,.523,1.22,1.806,1.806,0,0,0,1.181.38,4,4,0,0,0,1.459-.26l0.189,0.84a4.588,4.588,0,0,1-1.817.33,2.638,2.638,0,0,1-1.976-.74,2.705,2.705,0,0,1-.717-1.98A3.091,3.091,0,0,1,755.02,2324.89Zm-20.582-.75,0.056,0.85h0.034a1.744,1.744,0,0,1,.623-0.65,1.974,1.974,0,0,1,1.092-.31,1.714,1.714,0,0,1,1.258.49,2.374,2.374,0,0,1,.624,1.79v3.24h-1.2v-3.1c0-.95-0.363-1.43-1.092-1.43a1.067,1.067,0,0,0-.868.4,1.374,1.374,0,0,0-.334.92v3.21h-1.205v-3.86c0-.48-0.013-0.99-0.042-1.55h1.056Zm-7.355.7a2.779,2.779,0,0,1,3.882-.02,2.883,2.883,0,0,1,.69,1.98,2.985,2.985,0,0,1-.713,2.05,2.539,2.539,0,0,1-1.983.82,2.416,2.416,0,0,1-1.9-.79,2.862,2.862,0,0,1-.706-1.99A2.9,2.9,0,0,1,727.083,2324.84Zm-26.666-3.17h1.2v7.88h-1.2v-7.88Zm-14.959,2.48,0.612,2.56q0.222,0.915.367,1.74h0.022c0.09-.45.238-1.03,0.447-1.72l0.768-2.58h0.981l0.736,2.52c0.178,0.62.322,1.21,0.434,1.78h0.033a16.63,16.63,0,0,1,.367-1.78l0.657-2.52h1.181l-1.693,5.4h-1.1l-0.7-2.35a17.694,17.694,0,0,1-.435-1.74h-0.022a12.72,12.72,0,0,1-.435,1.74l-0.745,2.35h-1.115l-1.592-5.4h1.236Zm-15.312-2a13.431,13.431,0,0,1,2.073-.15,4.481,4.481,0,0,1,2.974.85,3.469,3.469,0,0,1,1.124,2.77,3.764,3.764,0,0,1-1.215,3.05,4.834,4.834,0,0,1-3.195.95,14.759,14.759,0,0,1-1.761-.09v-7.38Zm-22.044,1.36a6.639,6.639,0,0,1,4.315-2.23,6.512,6.512,0,0,1-1.5,4.68,5.5,5.5,0,0,1-4.353,2.06A6.215,6.215,0,0,1,648.1,2323.51Zm8.373,23.38c-1.2,1.79-2.464,3.55-4.466,3.58-1.945.05-2.6-1.14-4.83-1.14-2.252,0-2.949,1.11-4.814,1.19-1.907.07-3.364-1.92-4.611-3.7-2.493-3.63-4.433-10.24-1.832-14.74a7.164,7.164,0,0,1,6.017-3.66c1.909-.04,3.681,1.28,4.854,1.28,1.151,0,3.341-1.58,5.6-1.34a6.8,6.8,0,0,1,5.368,2.89,6.658,6.658,0,0,0-3.17,5.58,6.433,6.433,0,0,0,3.927,5.91A14.747,14.747,0,0,1,656.475,2346.89Zm22.51,3.37-1.428-4.48h-4.965l-1.36,4.48h-2.539l4.919-15.25h3.038l4.942,15.25h-2.607Zm3.346-21.41a2.543,2.543,0,0,1-1.983.82,2.411,2.411,0,0,1-1.9-.79,2.862,2.862,0,0,1-.706-1.99,2.9,2.9,0,0,1,.729-2.05,2.78,2.78,0,0,1,3.882-.02,2.883,2.883,0,0,1,.69,1.98A2.985,2.985,0,0,1,682.331,2328.85Zm10.391,20.21a4.432,4.432,0,0,1-3.377,1.45,3.38,3.38,0,0,1-3.129-1.56H686.17v5.79h-2.448v-11.86c0-1.17-.031-2.38-0.091-3.62h2.153l0.137,1.75h0.046a4.366,4.366,0,0,1,6.97-.44,6.073,6.073,0,0,1,1.3,4.06A6.223,6.223,0,0,1,692.722,2349.06Zm2.416-23.64a1.384,1.384,0,0,0-.334.92v3.21h-1.2v-3.86c0-.48-0.015-0.99-0.044-1.55h1.058l0.056,0.85H694.7a1.723,1.723,0,0,1,.624-0.65,1.97,1.97,0,0,1,1.09-.31,1.716,1.716,0,0,1,1.26.49,2.378,2.378,0,0,1,.623,1.79v3.24h-1.2v-3.1c0-.95-0.363-1.43-1.091-1.43A1.07,1.07,0,0,0,695.138,2325.42Zm10.255,23.64a4.427,4.427,0,0,1-3.376,1.45,3.377,3.377,0,0,1-3.128-1.56h-0.046v5.79H696.4v-11.86c0-1.17-.031-2.38-0.09-3.62h2.152l0.137,1.75h0.046a4.065,4.065,0,0,1,3.718-1.97,4.108,4.108,0,0,1,3.254,1.53,6.093,6.093,0,0,1,1.3,4.06A6.219,6.219,0,0,1,705.393,2349.06Zm2.6-20.21a2.545,2.545,0,0,1-1.983.82,2.407,2.407,0,0,1-1.9-.79,2.862,2.862,0,0,1-.706-1.99,2.9,2.9,0,0,1,.729-2.05,2.78,2.78,0,0,1,3.882-.02,2.883,2.883,0,0,1,.69,1.98A2.985,2.985,0,0,1,707.991,2328.85Zm2.093-.77a1.676,1.676,0,0,1,.83-1.51,4.282,4.282,0,0,1,2.334-.51v-0.1a0.971,0.971,0,0,0-1.124-1.07,2.487,2.487,0,0,0-1.411.4l-0.245-.79a3.481,3.481,0,0,1,1.857-.46,1.925,1.925,0,0,1,2.124,2.23v1.99a8.419,8.419,0,0,0,.078,1.29h-1.08l-0.09-.62h-0.033a1.867,1.867,0,0,1-1.581.74,1.618,1.618,0,0,1-1.236-.49A1.519,1.519,0,0,1,710.084,2328.08Zm9.641,21.07a6.028,6.028,0,0,1-4.162,1.34,7.326,7.326,0,0,1-3.96-.95l0.567-2.04a6.7,6.7,0,0,0,3.538.97,3.318,3.318,0,0,0,2.155-.62,2.026,2.026,0,0,0,.77-1.67,2.127,2.127,0,0,0-.635-1.56,5.893,5.893,0,0,0-2.108-1.18q-4.012-1.485-4.012-4.37a3.855,3.855,0,0,1,1.407-3.08,5.507,5.507,0,0,1,3.74-1.21,7.457,7.457,0,0,1,3.468.73l-0.612,1.99a6,6,0,0,0-2.925-.7,2.973,2.973,0,0,0-2.016.63,1.82,1.82,0,0,0-.612,1.38,1.862,1.862,0,0,0,.7,1.5,8.161,8.161,0,0,0,2.223,1.18,7.426,7.426,0,0,1,2.9,1.85,3.874,3.874,0,0,1,.928,2.64A4.055,4.055,0,0,1,719.725,2349.15Zm0.571-19.6-0.056-.87h-0.033a1.8,1.8,0,0,1-1.738.99,2.014,2.014,0,0,1-1.626-.77,2.962,2.962,0,0,1-.646-1.98,3.137,3.137,0,0,1,.7-2.13,2.177,2.177,0,0,1,1.671-.76,1.625,1.625,0,0,1,1.524.74h0.023v-3.1h1.205v6.42c0,0.53.014,1.01,0.042,1.46H720.3Zm8.879,11.55h-2.7v5.34c0,1.35.475,2.03,1.428,2.03a4.175,4.175,0,0,0,1.087-.11l0.068,1.86a5.552,5.552,0,0,1-1.9.27,2.937,2.937,0,0,1-2.268-.89,4.314,4.314,0,0,1-.816-2.96v-5.55h-1.608v-1.83h1.608v-2.01l2.4-.73v2.74h2.7v1.84Zm10.723,7.74a5.209,5.209,0,0,1-4.037,1.67A4.936,4.936,0,0,1,732,2348.9a5.837,5.837,0,0,1-1.44-4.05,5.951,5.951,0,0,1,1.485-4.18,5.132,5.132,0,0,1,4-1.63,5.008,5.008,0,0,1,3.9,1.61,5.752,5.752,0,0,1,1.408,4.02A6.055,6.055,0,0,1,739.9,2348.84Zm3.028-24.69h0.792v-0.99l1.179-.36v1.34h1.325v0.91H744.9v2.62c0,0.67.235,1,.7,1a2.006,2.006,0,0,0,.536-0.06l0.031,0.92a2.7,2.7,0,0,1-.934.13,1.436,1.436,0,0,1-1.113-.43,2.135,2.135,0,0,1-.4-1.46v-2.72h-0.792v-0.9Zm6.379,17.26a4.71,4.71,0,0,0-.771-0.07,2.317,2.317,0,0,0-2,.98,3.651,3.651,0,0,0-.613,2.17v5.77H743.48l0.023-7.53c0-1.27-.031-2.43-0.092-3.47h2.132l0.09,2.11H745.7a3.742,3.742,0,0,1,1.224-1.74,2.922,2.922,0,0,1,1.77-.59,3.8,3.8,0,0,1,.611.04v2.33Zm-0.154-15.54a1.435,1.435,0,0,0-.057.43v3.25h-1.2v-7.88h1.2v3.25h0.023a1.827,1.827,0,0,1,1.626-.89,1.706,1.706,0,0,1,1.238.49,2.486,2.486,0,0,1,.612,1.82v3.21h-1.2v-3.07c0-.97-0.363-1.46-1.089-1.46A1.145,1.145,0,0,0,749.151,2325.87Zm11.013,19.48H752.82a3.179,3.179,0,0,0,1.066,2.49,3.652,3.652,0,0,0,2.4.77,8.078,8.078,0,0,0,2.972-.52l0.383,1.7a9.263,9.263,0,0,1-3.693.68,5.37,5.37,0,0,1-4.026-1.51,5.552,5.552,0,0,1-1.461-4.04,6.286,6.286,0,0,1,1.361-4.14,4.681,4.681,0,0,1,3.852-1.76,4.1,4.1,0,0,1,3.607,1.76,5.935,5.935,0,0,1,.971,3.46A5.787,5.787,0,0,1,760.164,2345.35Z" transform="translate(-620 -2314.16)"/>
</svg>
