<svg width="167" height="58" viewBox="0 0 167 58" fill="none" xmlns="http://www.w3.org/2000/svg">
<rect x="0.939941" width="165.804" height="57.1739" rx="8.57609" fill="white"/>
<path d="M94.8647 40.3648V38.0536H96.015V40.3648H94.8647ZM106.631 32.4083C106.596 31.9142 106.455 31.4554 106.242 31.0673C106.029 30.6792 105.747 30.3618 105.393 30.0971C105.029 29.8235 104.614 29.6255 104.172 29.515C103.693 29.3864 103.199 29.3212 102.703 29.3209C102.042 29.3172 101.389 29.4619 100.792 29.7443C100.243 30.0125 99.7685 30.4126 99.4121 30.9086C99.0403 31.3847 98.7574 31.9489 98.5628 32.567C98.3682 33.1851 98.28 33.8193 98.28 34.4901C98.28 35.2663 98.3682 35.9718 98.5455 36.6246C98.722 37.2781 99.0055 37.8596 99.3767 38.3364C99.747 38.8102 100.218 39.1959 100.757 39.4653C101.323 39.73 101.978 39.8714 102.703 39.8714C103.251 39.8714 103.747 39.7827 104.19 39.6066C104.65 39.4299 105.056 39.1832 105.41 38.8658C105.764 38.5484 106.065 38.1776 106.277 37.7362C106.489 37.2948 106.649 36.8013 106.737 36.2892H107.587C107.508 36.9295 107.317 37.5509 107.02 38.1243C106.75 38.6416 106.384 39.1028 105.941 39.4833C105.516 39.8556 105.023 40.1431 104.49 40.3301C103.941 40.5235 103.358 40.6122 102.738 40.6122C101.783 40.6122 100.986 40.4355 100.314 40.1188C99.6422 39.7654 99.0938 39.3419 98.6692 38.7598C98.2445 38.195 97.9262 37.5422 97.7136 36.8013C97.5146 36.0469 97.4134 35.2702 97.4126 34.4901C97.4126 33.6966 97.519 32.9198 97.7671 32.1963C97.9964 31.4908 98.3328 30.8559 98.7929 30.3265C99.253 29.797 99.784 29.3556 100.456 29.0562C101.111 28.7381 101.872 28.5794 102.738 28.5794C103.358 28.5794 103.96 28.6681 104.491 28.8088C105.039 28.9675 105.534 29.1969 105.942 29.515C106.37 29.8304 106.725 30.2332 106.985 30.6966C107.25 31.1733 107.41 31.7375 107.48 32.4083H106.649H106.631ZM108.843 34.6135C108.843 33.7846 108.95 33.0078 109.197 32.3023C109.427 31.5968 109.763 30.944 110.223 30.3792C110.673 29.8218 111.241 29.3702 111.886 29.0562C112.541 28.7381 113.302 28.5794 114.168 28.5794C115.018 28.5794 115.779 28.7381 116.451 29.0562C117.1 29.3642 117.669 29.8169 118.115 30.3792C118.574 30.944 118.893 31.5614 119.14 32.3023C119.371 33.0431 119.495 33.7846 119.495 34.6135C119.495 35.443 119.388 36.2192 119.14 36.9427C118.928 37.6446 118.58 38.298 118.115 38.8658C117.663 39.4126 117.094 39.8524 116.451 40.1534C115.797 40.4708 115.036 40.6296 114.168 40.6296C113.319 40.6296 112.559 40.4708 111.886 40.1534C111.247 39.8464 110.68 39.4075 110.223 38.8658C109.781 38.3364 109.427 37.6835 109.197 36.9427C108.95 36.2192 108.843 35.425 108.843 34.6135ZM109.675 34.6135C109.675 35.3016 109.763 35.9538 109.957 36.6073C110.143 37.2099 110.43 37.7765 110.807 38.283C111.176 38.7675 111.647 39.1652 112.187 39.4479C112.753 39.73 113.373 39.8714 114.098 39.8714C114.759 39.8771 115.413 39.7323 116.009 39.4479C116.555 39.1739 117.028 38.7747 117.389 38.283C117.765 37.7765 118.053 37.2099 118.238 36.6073C118.432 35.9898 118.521 35.319 118.521 34.6135C118.521 33.908 118.415 33.2732 118.238 32.6197C118.044 32.0022 117.76 31.4381 117.389 30.944C117.018 30.4498 116.54 30.0618 116.009 29.779C115.442 29.497 114.823 29.3556 114.098 29.3556C113.437 29.3498 112.783 29.4946 112.187 29.779C111.641 30.053 111.168 30.4523 110.807 30.944C110.43 31.4504 110.143 32.0171 109.957 32.6197C109.781 33.2732 109.675 33.9253 109.675 34.6135ZM121.246 28.8621H122.096V31.2087H122.131C122.216 30.8378 122.379 30.489 122.609 30.1851C122.821 29.8677 123.103 29.585 123.44 29.3383C123.77 29.0983 124.134 28.908 124.519 28.7735C124.926 28.6464 125.349 28.5812 125.776 28.5801C126.342 28.5801 126.82 28.6501 127.209 28.7915C127.616 28.9502 127.97 29.1089 128.253 29.3556C128.536 29.6023 128.766 29.8497 128.925 30.1324C129.102 30.4145 129.208 30.7146 129.279 31.0146H129.315C129.668 30.2205 130.11 29.603 130.694 29.1969C131.279 28.7915 132.039 28.5794 132.977 28.5794C133.49 28.5794 134.003 28.6681 134.428 28.8088C134.852 28.9675 135.26 29.1969 135.578 29.515C135.896 29.833 136.144 30.2551 136.339 30.7319C136.516 31.226 136.604 31.8082 136.604 32.479V40.3121H135.736V32.4256C135.736 31.6848 135.63 31.138 135.382 30.6966C135.17 30.2911 134.887 29.9564 134.586 29.7443C134.285 29.5323 133.984 29.3909 133.649 29.3383C133.348 29.3029 133.1 29.2502 132.941 29.2502C132.428 29.2502 131.915 29.3383 131.49 29.515C131.056 29.6982 130.665 29.9683 130.34 30.3085C130.021 30.6792 129.774 31.102 129.579 31.6495C129.402 32.1963 129.314 32.7964 129.314 33.4665V40.3121H128.465V32.4256C128.465 31.7201 128.358 31.138 128.146 30.7146C127.934 30.2911 127.668 29.9737 127.385 29.7617C127.102 29.5503 126.801 29.4083 126.483 29.3556C126.239 29.2975 125.99 29.2679 125.74 29.2676C125.332 29.2676 124.908 29.3556 124.483 29.497C124.059 29.6737 123.652 29.903 123.298 30.2558C122.944 30.6085 122.643 31.032 122.431 31.5788C122.219 32.1256 122.077 32.743 122.077 33.4846V40.3128H121.228V28.8261H121.246L121.246 28.8621Z" fill="#2E3133"/>
<path d="M66.4135 17.006C65.1749 17.6589 64.7329 18.7351 64.7329 21.7165C64.7329 21.7165 65.3522 21.1163 66.2723 20.7816C66.9444 20.5522 67.5108 20.1814 67.8466 19.9347C68.8905 19.1759 69.0322 18.205 69.0322 16.5646C69.0322 16.5646 67.3336 16.5113 66.4135 17.006Z" fill="#FFCB29"/>
<path d="M59.1598 17.7115C58.1687 18.5937 57.8678 19.9874 57.8678 19.9874L54.5415 32.7257L51.799 22.2813C51.5335 21.1877 51.038 19.794 50.277 18.8758C49.322 17.7115 47.3579 17.6408 47.1453 17.6408C46.9326 17.6408 44.9518 17.7115 43.9781 18.8938C43.2171 19.8287 42.7223 21.205 42.4568 22.2986L39.7143 32.743L36.4228 19.9874C36.4228 19.9874 36.1399 18.5757 35.1321 17.7115C33.5038 16.2825 31.0796 16.5826 31.0796 16.5826L37.3965 40.4702C37.3965 40.4702 39.4842 40.6289 40.5281 40.0821C41.8904 39.3939 42.5624 38.8471 43.3943 35.583C44.1373 32.6897 46.2077 24.1857 46.4023 23.5682C46.4906 23.2682 46.6143 22.5453 47.1453 22.5453C47.6936 22.5453 47.8006 23.2508 47.8882 23.5682C48.0828 24.1684 50.1352 32.6904 50.8962 35.583C51.7281 38.8298 52.3828 39.3586 53.7631 40.0821C54.8063 40.6289 56.8948 40.4702 56.8948 40.4702L63.211 16.5999C63.211 16.5999 60.7875 16.2999 59.1598 17.7115ZM69.0323 20.4815C69.0323 20.4815 68.6431 21.0817 67.741 21.6104C67.1572 21.9285 66.6081 22.1572 66.0069 22.44C65.0159 22.9161 64.733 23.4629 64.733 24.2744V40.4715C64.733 40.4715 66.3426 40.6649 67.3691 40.1534C68.7133 39.4653 69.0142 38.8131 69.0323 35.8311V20.4815ZM84.8151 28.5794L92.8306 16.6526C92.8306 16.6526 89.4508 16.0705 87.7702 17.6062C86.6909 18.5757 85.4872 20.3228 85.4872 20.3228L82.5501 24.5925C82.3909 24.8038 82.2318 25.0512 81.9308 25.0512C81.6299 25.0512 81.436 24.8219 81.3116 24.5925L78.3391 20.3401C78.3391 20.3401 77.1541 18.5931 76.0567 17.6235C74.3935 16.0885 70.9964 16.67 70.9964 16.67L79.0292 28.5621L70.9964 40.4355C70.9964 40.4355 74.5353 40.8943 76.1985 39.3592C77.2778 38.389 78.3217 36.7833 78.3217 36.7833L81.2588 32.5316C81.4179 32.3196 81.5771 32.0729 81.878 32.0729C82.1789 32.0729 82.3729 32.3023 82.4973 32.5316L85.4343 36.7833C85.4343 36.7833 86.5311 38.3537 87.593 39.3592C89.2562 40.8943 92.7423 40.4355 92.7423 40.4355L84.8151 28.5794Z" fill="#2E3133"/>
</svg>
