<svg width="187" height="58" viewBox="0 0 187 58" fill="none" xmlns="http://www.w3.org/2000/svg">
<rect width="186.505" height="57.1739" rx="8.57609" fill="white"/>
<path d="M92.2544 35.7553L92.2619 35.7433L92.2544 35.7553Z" fill="#262A2D"/>
<path d="M88.8706 27.0455C88.853 26.8741 88.8351 26.703 88.8169 26.5322C88.8095 26.4702 88.8021 26.4081 88.7942 26.347L88.7553 26.1617C88.7502 26.1154 88.7451 26.069 88.7395 26.0227C88.7122 25.899 88.6844 25.7754 88.6571 25.6522L88.6182 25.4539C88.6034 25.4118 88.589 25.3692 88.5746 25.327C88.5681 25.2964 88.5621 25.2659 88.5556 25.2344C88.5248 25.1417 88.4939 25.0491 88.463 24.9564C88.3166 24.6137 88.2013 24.2533 88.0164 23.9323C87.7385 23.4473 87.4086 22.9897 87.1015 22.52C87.0723 22.4839 87.0436 22.4478 87.0144 22.4121L86.7856 22.1805L86.5975 21.9952L86.4493 21.859L86.3233 21.7567L86.1611 21.6325L85.8142 21.3778L85.7053 21.3046L85.5825 21.2365L85.4681 21.1684L85.2583 21.0549L85.0466 20.941L84.9808 20.9137L84.6259 20.7589L84.562 20.7251L84.5101 20.6978L83.7768 20.4977L83.6378 20.4551L83.5484 20.443L83.4095 20.4032L83.2733 20.3819L83.0579 20.3421L82.8971 20.3268L82.6192 20.2907L81.2758 20.2749L80.9052 20.3166C80.5457 20.3675 80.183 20.4027 79.8277 20.475C79.5748 20.5323 79.327 20.6098 79.0865 20.7066C78.7414 20.8377 78.4027 20.9845 78.0618 21.1272L77.5258 21.4301L77.3567 21.5362L77.246 21.6084L77.0839 21.7247L76.9704 21.8039L76.4562 22.2208L76.3668 22.3111L76.1296 22.5427C76.086 22.589 76.042 22.6354 75.998 22.6854L75.9054 22.7803L74.9247 24.1662C74.8696 24.2672 74.8144 24.3686 74.7589 24.4696C74.7501 24.4919 74.7408 24.5136 74.732 24.5359C74.6393 24.7489 74.5459 24.9623 74.4517 25.176C74.4082 25.3023 74.3648 25.4287 74.3216 25.5554C74.2691 25.7203 74.217 25.8851 74.1654 26.05L74.1376 26.2038C74.1224 26.2501 74.1075 26.2965 74.0913 26.3428L74.0788 26.4354C74.0607 26.5081 74.0431 26.5809 74.0255 26.6536C74.0167 26.7059 74.0079 26.7583 73.9996 26.8106C73.9908 26.8495 73.9825 26.888 73.9741 26.9269L73.9533 27.133C73.8032 27.2025 73.8606 27.3076 73.9069 27.4109C73.9028 27.4878 73.8981 27.5642 73.894 27.6425C73.8792 27.8116 73.8639 27.9811 73.8477 28.152V28.9946C73.8616 29.1641 73.8759 29.3332 73.8903 29.5041C73.8944 29.5657 73.8981 29.6269 73.9023 29.6894L73.9486 29.9673C73.9971 30.5656 74.1434 31.152 74.3818 31.7029L74.505 32.0031L74.5675 32.1656L74.7751 32.6057C74.8515 32.7604 74.9103 32.9276 75.0067 33.0689C75.5163 33.8054 76.043 34.5266 76.7763 35.0639L76.9338 35.1917L77.0088 35.2478L77.1733 35.3737C77.6874 35.7624 78.2553 36.0745 78.859 36.3001L78.985 36.34L79.0471 36.358L79.3213 36.4641L79.414 36.4896L79.5321 36.5308L79.6016 36.5447L79.7406 36.591L79.8332 36.6068L79.9699 36.6503L80.0625 36.6721L80.1909 36.705L80.3882 36.7314L80.5735 36.7777L80.7097 36.7902L80.9413 36.8365L81.0803 36.8532L81.3457 36.8889H83.189L83.4025 36.8592L83.6832 36.8319L83.7759 36.8148L84.0029 36.7758L84.2345 36.7267L84.3596 36.7156H84.4476C84.5917 36.6693 84.7371 36.6262 84.8807 36.5767C85.2763 36.4377 85.671 36.2987 86.0662 36.1598L86.4571 35.9842L86.5716 35.9259L86.8759 35.7642L87.5448 35.3686L87.7102 35.2533L87.7959 35.1949L87.9868 35.0597L88.2939 34.8179L88.4496 34.6887L88.7395 34.4108C88.8544 34.2862 88.8466 34.2472 88.6807 34.1305C88.6237 34.0244 88.5719 33.9151 88.5084 33.8128C88.2874 33.4566 88.0553 33.1073 87.8399 32.7474C87.5476 32.2597 87.266 31.7654 86.9811 31.2735C86.9134 31.1568 86.8421 31.1508 86.7457 31.2457C86.65 31.3462 86.5486 31.441 86.4419 31.5297C85.8355 32.0137 85.161 32.3843 84.4499 32.6918C84.3267 32.7451 84.1859 32.759 84.0534 32.791L83.9649 32.8044L83.8871 32.8507L83.718 32.9026L83.6253 32.9151L83.3937 32.966L82.2847 33.0244L81.7751 32.9702L81.6853 32.9591L81.5463 32.9202L81.456 32.9077L81.2243 32.8201L81.1034 32.8016L81.0358 32.7826L80.7315 32.6631L80.5735 32.5922L80.3613 32.4774L79.9236 32.1832L79.8142 32.1013L79.552 31.8604L79.4649 31.7677L79.4029 31.6964L79.2305 31.4917L79.1726 31.4162L79.0934 31.3046L79.0045 31.1688C78.708 30.6996 78.4949 30.1994 78.4296 29.644H88.4871C88.5566 29.644 88.6316 29.6588 88.6932 29.6366C88.7354 29.6213 88.7585 29.5537 88.7905 29.5092L88.8155 29.1813L88.8674 28.5791L88.8757 28.3475C88.8757 27.9915 88.8757 27.6353 88.8757 27.2789L88.8706 27.0455ZM79.7285 24.5317C80.6976 23.8369 81.7668 23.596 82.8888 24.0912C83.8051 24.496 84.2146 25.3015 84.3675 26.2821H78.5714C78.7863 25.5679 79.1342 24.9574 79.7285 24.5317Z" fill="#262A2D"/>
<path d="M140.1 20.6607C140.036 20.6283 139.972 20.5681 139.908 20.5681C139.173 20.5616 138.437 20.5616 137.702 20.5681C137.637 20.5681 137.572 20.6144 137.506 20.6366L137.275 20.6454L137.043 20.6918L136.281 20.9414L136.075 21.0702L136.001 21.1262L135.797 21.2976C135.46 21.6219 135.321 22.0638 135.12 22.4686C135.101 22.5461 135.082 22.6233 135.062 22.7002L135.044 22.8266L134.891 23.2264L134.863 23.3366L134.699 23.7743L134.678 23.8466L134.332 24.8008C134.321 24.8374 134.31 24.874 134.299 24.9106L134.089 25.4317L133.583 26.9032L133.543 27.0251C133.534 27.0617 133.524 27.0982 133.516 27.1348C133.464 27.2692 133.412 27.4035 133.361 27.5378L133.32 27.6017L133.301 27.655C133.203 27.9329 133.106 28.2091 133.008 28.4837L132.975 28.5763C132.975 28.6055 132.971 28.6347 132.969 28.6634C132.913 28.8122 132.858 28.9609 132.803 29.1095C132.793 29.1456 132.784 29.1817 132.774 29.2178L132.62 29.6208L132.58 29.6847C132.574 29.7037 132.568 29.7227 132.562 29.7417C132.467 30.0307 132.373 30.3199 132.279 30.6093L132.239 30.7149C132.239 30.7413 132.239 30.7677 132.236 30.7936L132.158 31.1855C132.184 31.0549 132.21 30.9243 132.236 30.7936L132.126 30.984L132.016 30.884L132.093 31.1901L132.016 30.884L132.001 30.7946L131.92 30.6065L131.562 29.5259L131.395 29.0835C131.391 29.0599 131.386 29.0372 131.381 29.0122L131.217 28.5726L130.959 27.8176C130.92 27.7148 130.881 27.6115 130.842 27.5086C130.836 27.4864 130.831 27.4623 130.826 27.4415L130.66 26.9982C130.654 26.9736 130.649 26.9519 130.643 26.925L130.453 26.3919C130.438 26.3544 130.423 26.3168 130.409 26.2798C130.37 26.1788 130.332 26.0781 130.295 25.9778C130.284 25.9412 130.274 25.9046 130.265 25.8685L130.039 25.2334L129.92 24.9133L129.874 24.7744C129.868 24.7508 129.863 24.7281 129.857 24.7035L129.69 24.2649L129.663 24.1583C129.638 24.0402 129.629 23.9161 129.585 23.8049C129.506 23.5993 129.407 23.4015 129.315 23.2L129.299 23.1328L129.133 22.69C129.037 22.4477 128.964 22.193 128.84 21.966C128.694 21.6974 128.539 21.4185 128.325 21.2059C128.032 20.9127 127.642 20.7631 127.227 20.6964L126.949 20.6445L126.722 20.6348L123.981 20.6464C123.976 20.7228 123.966 20.7997 123.966 20.878C123.966 21.9588 123.966 23.0396 123.966 24.1204V24.5196H124.718L124.99 24.6428C125.036 24.7099 125.077 24.7806 125.113 24.8541C125.43 25.6758 125.744 26.4984 126.056 27.322C126.282 27.92 126.501 28.5212 126.722 29.121L126.894 29.5032L126.913 29.5754L127.084 30.0118C127.091 30.034 127.097 30.0581 127.104 30.0775C127.117 30.1178 127.129 30.1581 127.141 30.198C127.327 30.6913 127.519 31.1832 127.703 31.6774C128.134 32.8323 128.563 33.9878 128.991 35.144C129.049 35.2709 129.106 35.398 129.163 35.5252C129.169 35.5497 129.175 35.5743 129.181 35.5989L129.352 36.0338L129.424 36.2394L129.533 36.4988C129.542 36.5078 129.548 36.5199 129.548 36.5327C129.628 36.5651 129.708 36.6253 129.789 36.6253C131.248 36.6313 132.707 36.6299 134.165 36.6299C134.548 36.6299 134.571 36.6086 134.632 36.2089C134.882 35.5326 135.132 34.8565 135.382 34.1805L135.504 33.8776C135.527 33.809 135.551 33.7386 135.574 33.6719L135.67 33.4403L135.79 33.1078C135.948 32.665 136.104 32.2212 136.267 31.7802C136.388 31.4518 136.517 31.1267 136.643 30.8001C136.712 30.6377 136.781 30.4753 136.85 30.3128L136.869 30.2429L137.216 29.3355L137.251 29.2688L137.271 29.2095L137.654 28.1576C137.711 28.0121 137.768 27.8665 137.825 27.7208L138.035 27.1404L138.195 26.7471C138.201 26.7235 138.207 26.7008 138.212 26.6763L138.382 26.2418L138.402 26.1672L138.611 25.6345L138.642 25.5206L138.749 25.2654C138.756 25.2418 138.763 25.2191 138.769 25.1945L138.932 24.7985L139.15 24.571L139.367 24.5182H140.1V20.6607Z" fill="#262A2D"/>
<path d="M125.423 32.7423C125.383 32.7136 125.344 32.6599 125.304 32.6594C124.881 32.6534 124.457 32.6538 124.033 32.6594C123.983 32.6672 123.935 32.6829 123.889 32.7057C123.628 32.6946 123.587 32.5205 123.587 32.3074C123.587 29.1576 123.588 26.0064 123.591 22.8535C123.573 22.69 123.555 22.526 123.536 22.3625C123.536 22.3329 123.531 22.3032 123.529 22.2741C123.575 22.1045 123.553 21.9563 123.39 21.8544C123.288 21.3982 122.788 20.8696 122.271 20.7812L122.109 20.714L121.946 20.6909L121.714 20.6469L121.44 20.6357L118.114 20.6469L121.44 20.6357C121.381 20.6126 121.322 20.57 121.263 20.5695C120.144 20.5653 119.025 20.5695 117.906 20.5635C117.729 20.5635 117.674 20.6344 117.681 20.7997C117.69 21.054 117.681 21.3092 117.681 21.5635C117.681 22.482 117.681 23.4001 117.685 24.3186C117.685 24.3816 117.742 24.4446 117.771 24.5076L118.927 24.5178L119.158 24.6401C119.171 24.6929 119.184 24.7457 119.196 24.7985C119.185 25.3427 119.173 25.887 119.166 26.4313C119.171 26.5284 119.182 26.6251 119.2 26.7208V33.023C119.197 33.5563 119.195 34.0891 119.194 34.6215C119.194 34.6317 119.215 34.6419 119.226 34.6521L119.251 34.8749C119.263 34.9235 119.274 34.9717 119.286 35.0203C119.415 35.7615 119.833 36.2464 120.558 36.4623L120.9 36.5248L121.246 36.5507C121.318 36.5762 121.391 36.623 121.463 36.6235C122.716 36.6281 123.968 36.6281 125.22 36.6235C125.304 36.6235 125.449 36.6823 125.431 36.4961C125.428 35.2461 125.426 33.9948 125.423 32.7423Z" fill="#262A2D"/>
<path d="M57.0426 34.6048C57.0426 34.0339 57.0426 33.4626 57.0426 32.891C57.0426 32.7696 57.0454 32.6492 56.8735 32.6506L55.3012 32.6668C55.2623 32.6335 55.223 32.6006 55.1836 32.5677L55.1447 32.4181C55.14 32.3254 55.1312 32.2328 55.1312 32.1402C55.1257 28.9271 55.1204 25.7138 55.1155 22.5001C55.1007 22.4223 55.0858 22.3449 55.0692 22.2685L55.0594 22.1791L55.0131 22.0401C55.0048 22.0012 54.9969 21.9623 54.989 21.9239C54.9575 21.758 54.9635 21.5746 54.7755 21.4857C54.6671 21.3606 54.559 21.2354 54.4512 21.11L54.2362 20.9512L54.0806 20.8733L53.823 20.7617L53.5233 20.6932L53.2917 20.6468L53.0628 20.6348L51.8172 20.6403L53.0628 20.6348C52.9966 20.6112 52.9308 20.5676 52.8641 20.5676C51.6161 20.5633 50.3682 20.5633 49.1202 20.5676C49.0572 20.5676 48.9946 20.6181 48.9316 20.6454L48.9279 20.6492C48.9006 20.7112 48.8492 20.7733 48.8492 20.8344C48.8445 21.9946 48.8445 23.1549 48.8492 24.3154C48.8492 24.3765 48.902 24.4376 48.9298 24.5006L50.4585 24.5159L50.629 24.5701L50.7082 24.6628C50.7016 24.6933 50.6972 24.7242 50.6952 24.7554C50.6952 27.936 50.6966 31.1151 50.6994 34.2926C50.6994 34.364 50.7332 34.4353 50.7513 34.5066C50.7471 35.364 51.1784 36.2098 52.0919 36.4715L52.4347 36.5271L52.6853 36.5479C52.7552 36.5767 52.8243 36.6299 52.8947 36.6299C54.1918 36.635 55.4889 36.6299 56.7832 36.6383C56.9935 36.6383 57.0458 36.56 57.0426 36.365C57.0366 35.779 57.0426 35.1912 57.0426 34.6048Z" fill="#262A2D"/>
<path d="M106.659 34.3269C106.659 33.8415 106.659 33.3542 106.659 32.8701C106.659 32.7497 106.64 32.6524 106.488 32.6538C105.981 32.6594 105.473 32.6645 104.964 32.6691L104.889 32.6149L104.826 32.5061C104.82 32.406 104.809 32.306 104.809 32.2064C104.809 28.2847 104.809 24.3629 104.809 20.4412C104.809 19.2449 104.811 18.0486 104.813 16.8523L104.767 16.4354C104.764 16.4058 104.762 16.3757 104.759 16.3456L104.535 15.648L104.509 15.5841L104.435 15.4655C104.433 15.4656 104.43 15.4651 104.427 15.4639C104.425 15.4628 104.423 15.4611 104.421 15.459C104.42 15.4569 104.418 15.4544 104.418 15.4517C104.417 15.4491 104.417 15.4463 104.418 15.4437L104.202 15.1871L104.156 15.1408L104.05 15.0556L103.971 14.9981L103.76 14.8777L103.045 14.6693L102.767 14.6313H98.5512V18.4717C98.6077 18.505 98.6633 18.5643 98.7212 18.5666C98.9598 18.5773 99.1997 18.5759 99.4388 18.5694C99.6509 18.5638 99.8631 18.5448 100.075 18.5319L100.261 18.5708C100.303 18.6634 100.345 18.7561 100.387 18.8487C100.387 19.7278 100.387 20.6068 100.387 21.4857L100.246 21.494L100.122 21.3926L100.011 21.3101L99.9354 21.2555L99.7357 21.1235C99.7328 21.1251 99.7295 21.1259 99.7262 21.126C99.7229 21.1261 99.7196 21.1254 99.7166 21.1239C99.7136 21.1225 99.711 21.1203 99.709 21.1177C99.707 21.115 99.7057 21.1119 99.7051 21.1086L99.5662 21.0239C99.4698 20.9655 99.3809 20.8849 99.2762 20.8525C98.7735 20.6973 98.2668 20.5556 97.7614 20.4092L97.546 20.3481L97.2509 20.3221C97.1434 20.1693 97.0104 20.2341 96.8803 20.2758H95.8148L95.4442 20.3194L94.6104 20.4199L94.3959 20.4745L94.1749 20.5778L93.8678 20.6881L93.7928 20.7075L93.405 20.8761L93.2438 20.9437C93.174 20.9817 93.1039 21.0195 93.0335 21.0572L91.7948 21.9072L91.6947 21.9966C91.5298 22.0429 91.402 22.1318 91.3663 22.3143L91.2736 22.4111L91.187 22.5094L91.0541 22.6645C91.0546 22.6675 91.0545 22.6706 91.0537 22.6735C91.0529 22.6765 91.0515 22.6792 91.0496 22.6815C91.0476 22.6839 91.0452 22.6858 91.0425 22.6871C91.0397 22.6884 91.0367 22.689 91.0337 22.6891L90.9545 22.7919C90.8572 22.9123 90.7596 23.0326 90.6617 23.1527L90.576 23.281L90.481 23.4316L90.3916 23.5617L90.242 23.8457C90.1737 23.9772 90.1055 24.1088 90.0372 24.2403L90.0136 24.3098L89.7926 24.7299L89.3354 26.2585L89.2965 26.4623L89.2854 26.5832C89.2673 26.6758 89.2497 26.7684 89.2317 26.8611C89.228 26.9074 89.2238 26.9509 89.2201 26.9959C89.2057 27.0742 89.1918 27.1524 89.1775 27.2307C89.1733 27.2909 89.1687 27.3512 89.1645 27.4114C89.1487 27.5758 89.133 27.7398 89.1182 27.9042C89.1182 28.3825 89.1182 28.8612 89.1182 29.3401C89.1339 29.5046 89.1492 29.6685 89.1645 29.833C89.1687 29.8793 89.1724 29.9233 89.1765 29.9687C89.1923 30.0771 89.2076 30.1855 89.2229 30.2929L89.2312 30.3823C89.2497 30.4901 89.2684 30.5982 89.2872 30.7066L89.2914 30.8349L89.3303 30.984C89.4066 31.3092 89.4838 31.6343 89.562 31.9595L89.6412 32.1415C89.6447 32.141 89.6483 32.1413 89.6518 32.1424C89.6552 32.1435 89.6583 32.1454 89.6608 32.1479C89.6634 32.1504 89.6653 32.1535 89.6665 32.1569C89.6677 32.1603 89.668 32.1639 89.6676 32.1675L89.826 32.5617C89.8367 32.5983 89.8468 32.6348 89.8575 32.6714L89.9617 32.8864C90.1822 33.287 90.3787 33.7016 90.6288 34.0842C90.9403 34.5777 91.3316 35.016 91.7869 35.3811L92.0737 35.6127L92.1543 35.673L92.2594 35.7471L92.5406 35.9356C92.5437 35.9346 92.5469 35.9342 92.5501 35.9345C92.5534 35.9348 92.5565 35.9357 92.5593 35.9372C92.5622 35.9387 92.5647 35.9408 92.5667 35.9433C92.5688 35.9458 92.5703 35.9487 92.5712 35.9518C92.6678 36.0086 92.7648 36.0654 92.8621 36.1223L92.9876 36.1866C93.0593 36.2234 93.1308 36.2603 93.2021 36.2973L93.3596 36.364L93.7302 36.5442C94.4066 36.7698 95.0945 36.9291 95.8148 36.9222C95.9487 37.0459 96.3763 37.0463 96.5097 36.9222L97.9457 36.73L98.0416 36.6883L98.1343 36.654L98.409 36.5526L98.4826 36.5354L99.014 36.2997L99.1502 36.2251L99.2891 36.145L99.4744 36.0361L99.7987 35.8119L99.8733 35.7489L99.9845 35.6706L100.259 35.4326L100.4 35.2964L100.447 35.2501L100.612 35.188L100.715 35.3858C100.735 35.4446 100.755 35.5034 100.775 35.5627L100.809 35.6202L100.869 35.6984L101.006 35.8958L101.138 36.0398L101.238 36.126L101.371 36.2223L101.615 36.3539H101.633L101.648 36.364L101.926 36.4678L102.016 36.4947L102.174 36.5382L102.575 36.5567L106.293 36.5489L102.575 36.5567C102.647 36.5827 102.719 36.6308 102.791 36.6313C103.993 36.6359 105.195 36.6313 106.398 36.6383C106.607 36.6383 106.662 36.5628 106.659 36.3668C106.653 35.6836 106.659 35.005 106.659 34.3269ZM99.9182 31.28C99.3072 32.4426 98.34 33.0536 97.0299 33.067C95.7198 33.0804 94.7192 32.4699 94.1722 31.2943C93.3175 29.4573 93.292 27.5763 94.2898 25.7823C95.1301 24.2741 96.9576 23.7563 98.4831 24.509C99.4012 24.962 99.8997 25.7638 100.209 26.7004C100.405 27.3112 100.498 27.9506 100.484 28.5921C100.472 29.5259 100.361 30.4384 99.9182 31.28Z" fill="#262A2D"/>
<path d="M51.0719 18.8436C52.2824 18.8469 53.4933 18.8436 54.7038 18.8473C54.8492 18.8473 54.9132 18.7959 54.9127 18.6449C54.9099 17.3651 54.9127 16.0853 54.9062 14.8055C54.9062 14.7494 54.8437 14.6934 54.8103 14.6373H50.9339V14.9393C50.9311 16.1958 50.9282 17.4525 50.9251 18.7093C50.8644 18.8723 50.9974 18.8436 51.0719 18.8436Z" fill="#262A2D"/>
<path d="M117.306 20.5181C117.299 20.5197 117.293 20.5199 117.286 20.5187C117.279 20.5175 117.272 20.515 117.267 20.5111L117.035 20.4648L116.853 20.4495C116.811 20.425 116.77 20.381 116.727 20.38C116.469 20.3736 116.21 20.3736 115.952 20.38C115.909 20.38 115.868 20.4264 115.826 20.45L115.644 20.4653L115.459 20.5074C115.198 20.576 114.922 20.6102 114.681 20.7205C114.272 20.9058 113.885 21.1439 113.488 21.3597L113.328 21.4806C113.327 21.4835 113.326 21.4862 113.325 21.4887C113.323 21.4911 113.321 21.4932 113.318 21.4948C113.316 21.4964 113.313 21.4975 113.31 21.498C113.307 21.4985 113.304 21.4984 113.301 21.4977L113.097 21.671L112.452 22.3227L112.366 22.4311L112.307 22.5047L112.224 22.6108C112.225 22.6178 112.223 22.6248 112.219 22.6305C112.215 22.6363 112.209 22.6403 112.202 22.6418L112.089 22.8026C112.09 22.8086 112.088 22.8146 112.084 22.8194C112.08 22.8241 112.075 22.8272 112.069 22.828L111.997 22.9415C111.999 22.9469 111.998 22.9528 111.996 22.9579C111.993 22.963 111.989 22.967 111.983 22.9689H111.878C111.878 22.8552 111.877 22.7417 111.873 22.6284C111.912 22.3533 111.901 22.0883 111.722 21.8558L111.639 21.6603L111.517 21.4463L111.443 21.3453L111.237 21.1295L110.981 20.9489L110.553 20.783L110.39 20.7177L110.227 20.6932L109.949 20.6468L109.769 20.6367C109.717 20.6149 109.665 20.5741 109.613 20.5737C108.377 20.57 107.142 20.57 105.907 20.5737C105.855 20.5737 105.803 20.639 105.752 20.6737V24.5145H107.347L107.503 24.5812C107.529 24.6303 107.555 24.6794 107.581 24.7285C107.562 24.8007 107.55 24.8743 107.543 24.9486C107.541 28.7437 107.541 32.5387 107.543 36.3335C107.543 36.6285 107.543 36.629 107.841 36.629C109.138 36.629 110.434 36.629 111.729 36.629C112.034 36.629 112.034 36.629 112.034 36.3159C112.034 34.3109 112.034 32.3054 112.034 30.2994C112.028 30.2176 112.016 30.1363 111.998 30.0562C111.994 30.0979 111.989 30.1396 111.984 30.1813C111.989 30.1396 111.994 30.0979 111.998 30.0562C112.002 29.871 112.006 29.6868 112.01 29.5036L112.056 29.1794C112.062 29.1025 112.068 29.0261 112.074 28.9478L112.245 28.0793C112.303 27.6388 112.5 27.2493 112.694 26.8592L112.816 26.655L112.926 26.4887L113.045 26.3266L113.651 25.6957L113.753 25.6142L113.832 25.5544L113.939 25.4803C114.346 25.2357 114.758 25.0028 115.236 24.9245L115.375 24.8846L115.512 24.8712L115.789 24.8272L116.665 24.8304L116.943 24.8689L117.079 24.8823C117.164 24.9119 117.253 24.9315 117.343 24.9407C117.364 24.9407 117.405 24.83 117.406 24.7702C117.409 23.4069 117.409 22.0439 117.406 20.6811C117.402 20.6288 117.34 20.5737 117.306 20.5181Z" fill="#262A2D"/>
<path d="M119.533 18.8427C120.726 18.8427 121.92 18.8427 123.114 18.8395C123.171 18.8395 123.228 18.7806 123.285 18.7496V14.6489H119.383V14.9116C119.379 16.1693 119.375 17.4269 119.37 18.6843C119.314 18.8506 119.43 18.8427 119.533 18.8427Z" fill="#262A2D"/>
<path d="M124.146 20.5718C124.091 20.5718 124.036 20.6219 123.98 20.6487L126.721 20.6371C126.67 20.6149 126.619 20.5727 126.568 20.5723C125.761 20.5683 124.954 20.5681 124.146 20.5718Z" fill="#262A2D"/>
<path d="M73.6009 27.7379L73.5898 27.5063C73.6296 27.3757 73.701 27.2414 73.5435 27.1358C73.5163 26.9338 73.4893 26.7319 73.4624 26.5299L73.4193 26.3447L73.4068 26.252C73.3915 26.1904 73.3758 26.1288 73.3605 26.0667L73.2854 25.7254L73.1757 25.3719C73.1669 25.334 73.1585 25.2964 73.1502 25.2589L72.9825 24.8175C72.963 24.7619 72.9431 24.7059 72.9232 24.6498L72.8801 24.5345L72.8 24.3538C72.7382 24.2303 72.6772 24.1068 72.617 23.9833L72.4952 23.7382L72.3877 23.5659L72.0004 22.9781L71.9268 22.8707C71.9204 22.8698 71.9147 22.8665 71.9108 22.8615C71.9068 22.8565 71.9049 22.8502 71.9054 22.8438L71.747 22.6377L71.6822 22.5511L71.5506 22.4065L71.5478 22.4038C71.5098 22.363 71.4714 22.3227 71.4329 22.282L71.0846 21.9383L70.94 21.8095L70.783 21.6793L70.7098 21.6224L70.6019 21.5381C70.5986 21.5385 70.5952 21.5383 70.592 21.5375C70.5888 21.5366 70.5858 21.5351 70.5832 21.5331C70.5805 21.5311 70.5783 21.5285 70.5767 21.5256C70.5751 21.5228 70.574 21.5196 70.5736 21.5163L70.3906 21.388H70.3878L70.2716 21.3125L69.7402 21.0054L69.6216 20.9438L69.4614 20.8724L69.2061 20.7576C69.203 20.7582 69.1998 20.758 69.1967 20.7571C69.1936 20.7563 69.1908 20.7547 69.1885 20.7525C69.1861 20.7504 69.1843 20.7477 69.1832 20.7447C69.1821 20.7417 69.1817 20.7385 69.182 20.7353L69.126 20.7034L68.4408 20.5084L68.3019 20.462L68.2125 20.4491L68.0272 20.3986L67.9345 20.3861L67.6788 20.3374L67.5116 20.3249L67.1873 20.2823L66.0292 20.274L65.6586 20.318C65.3125 20.3875 64.9605 20.4356 64.6218 20.532C64.2832 20.6283 63.9687 20.771 63.643 20.8933L63.3424 21.06C63.3392 21.0656 63.3342 21.07 63.3282 21.0724C63.3223 21.0749 63.3157 21.0752 63.3095 21.0735L63.0204 21.2555L61.9614 22.0837C61.9517 21.979 61.9448 21.9058 61.9378 21.8326L61.7826 21.4802C61.776 21.4776 61.7705 21.4728 61.7671 21.4666C61.7636 21.4605 61.7624 21.4533 61.7636 21.4463C61.7391 21.4111 61.7141 21.3764 61.689 21.3417L61.6251 21.2611L61.4306 21.0758L61.3546 21.0151L61.0535 20.8483L60.9844 20.8215L60.6407 20.7071L60.3845 20.6608L60.2414 20.6445L59.9676 20.6334C59.9009 20.6107 59.8342 20.569 59.7675 20.5686C58.6304 20.5643 57.493 20.5643 56.3552 20.5686C56.2899 20.5686 56.2241 20.6149 56.1588 20.6362C56.1386 20.6992 56.1249 20.764 56.1181 20.8298C56.1156 22.0011 56.1156 23.1725 56.1181 24.3441C56.1215 24.3991 56.1281 24.4539 56.138 24.5081C56.6133 24.5081 57.0751 24.5053 57.537 24.5081C57.6344 24.516 57.731 24.5315 57.826 24.5544L57.9131 24.6378C57.936 24.7415 57.9515 24.8468 57.9595 24.9527C57.9622 30.7242 57.9632 36.4956 57.9622 42.2671C57.9622 42.3518 57.9664 42.4366 57.9683 42.5214C58.715 42.5255 59.4622 42.5325 60.2094 42.5329C60.9177 42.5329 61.6265 42.5283 62.3348 42.5255L62.3543 42.3921C62.3626 42.2995 62.3779 42.2068 62.3779 42.1179C62.3779 40.0033 62.3788 37.8889 62.3807 35.7749C62.3879 35.6869 62.4026 35.5996 62.4247 35.5141C62.4685 35.566 62.5122 35.618 62.5558 35.6702L62.6067 35.7026L62.792 35.8008L62.9027 35.8777L63.0686 35.9903L63.2673 36.113C63.274 36.1118 63.281 36.113 63.2869 36.1164C63.2928 36.1198 63.2974 36.1252 63.2997 36.1316L63.6639 36.3543C63.7046 36.3715 63.7458 36.3886 63.7871 36.4067C64.2851 36.6253 64.7983 36.7916 65.3408 36.8569L65.6322 36.8967L66.0834 36.9106L66.176 36.9139H66.593H66.6856L67.1289 36.893L67.4347 36.8495L67.5699 36.8347L67.8016 36.786L67.8905 36.7754L68.0323 36.7351L68.9587 36.4655L69.6027 36.1723L69.6156 36.1603H69.6332L69.7866 36.0903L70.8766 35.3237L71.0378 35.195L71.4505 34.7781L71.5895 34.6308L71.6905 34.5025L71.7711 34.3899C72.491 33.4862 73.0061 32.4816 73.2725 31.3541C73.4578 31.1225 73.4846 30.8506 73.467 30.5667L73.5463 30.0076C73.7047 29.9034 73.632 29.7686 73.5954 29.6371L73.6055 29.4055C73.6296 29.3633 73.6741 29.3216 73.6746 29.2795C73.6792 28.8055 73.6792 28.3316 73.6746 27.8579C73.6699 27.8213 73.6255 27.7796 73.6009 27.7379ZM68.4001 31.6066C67.3068 33.2505 65.0184 33.5719 63.5962 32.274C62.9833 31.715 62.6359 30.9938 62.4381 30.2045C62.1393 29.0108 62.1833 27.819 62.5405 26.6411C63.0371 25.0042 64.3471 24.081 66.0482 24.207C67.1484 24.2885 67.9475 24.8791 68.4978 25.8129C69.0148 26.6888 69.1825 27.6536 69.1839 28.8065C69.1802 29.7079 68.9953 30.7117 68.4001 31.6066Z" fill="#262A2D"/>
<path d="M154.647 26.9986L154.63 26.7907L154.584 26.4831L154.571 26.3483C154.538 26.1782 154.505 26.0083 154.472 25.8388L154.084 24.5173L153.915 24.1264L153.894 24.062L153.725 23.7567C153.522 23.4371 153.318 23.1175 153.114 22.7979L153.029 22.6914L152.97 22.6224L152.794 22.4153C152.718 22.337 152.641 22.2592 152.565 22.1837L152.423 22.0448L152.377 22.0008L152.225 21.865C152.155 21.7914 152.096 21.7001 152.013 21.6464C151.723 21.4611 151.425 21.286 151.132 21.1077L150.827 20.9493L150.668 20.8807L150.407 20.7677C149.805 20.5361 149.176 20.406 148.538 20.3175L148.214 20.28H147.01L146.685 20.3198C146.135 20.4185 145.573 20.475 145.039 20.6288C144.585 20.7594 144.159 20.9924 143.727 21.198C142.723 21.6779 141.925 22.4023 141.268 23.2926L141.184 23.4052C141.185 23.408 141.185 23.4111 141.185 23.4141C141.185 23.4171 141.183 23.4199 141.182 23.4224C141.18 23.4248 141.177 23.4267 141.175 23.428C141.172 23.4293 141.169 23.4299 141.166 23.4297L141.089 23.5376C141.09 23.5438 141.09 23.5504 141.087 23.556C141.084 23.5617 141.079 23.5662 141.073 23.5687L140.958 23.7368L140.782 24.0291L140.709 24.1185C140.645 24.2593 140.58 24.4 140.515 24.5405C140.46 24.6547 140.405 24.7691 140.35 24.8837L140.328 24.9573L140.166 25.3483C140.167 25.3519 140.167 25.3556 140.166 25.359C140.164 25.3625 140.163 25.3657 140.16 25.3683C140.158 25.371 140.155 25.3731 140.151 25.3744C140.148 25.3757 140.144 25.3763 140.141 25.3761L140.116 25.4344C140.008 25.8782 139.899 26.3218 139.792 26.7652C139.773 26.8736 139.754 26.9817 139.735 27.0894L139.724 27.2242L139.677 27.5485C139.671 27.6411 139.665 27.7305 139.659 27.8218L139.624 28.4109C139.624 28.5476 139.624 28.6847 139.624 28.8213L139.659 29.3642C139.665 29.4402 139.671 29.5157 139.677 29.5912C139.692 29.6838 139.706 29.7764 139.72 29.8719C139.724 29.9182 139.728 29.9617 139.731 30.0067L139.778 30.2382C139.783 30.31 139.789 30.3814 139.795 30.4532L139.837 30.6074C139.838 30.6604 139.846 30.713 139.858 30.7644C140.079 31.3644 140.3 31.9635 140.523 32.5617L140.643 32.7404C140.67 32.7923 140.697 32.8442 140.724 32.8965L140.795 33.0165C140.81 33.0188 140.816 33.0272 140.813 33.042L140.888 33.1555C140.894 33.1582 140.898 33.163 140.901 33.169C140.904 33.1749 140.904 33.1817 140.902 33.1879L140.982 33.3394C141.383 33.8044 141.786 34.2693 142.19 34.734L142.429 34.9587C142.473 35.0086 142.521 35.0543 142.573 35.0953C143.031 35.3969 143.492 35.6947 143.952 35.9939L144.331 36.1607L144.351 36.1547L144.37 36.1653L144.669 36.2913L144.833 36.352L145.316 36.5234L146.174 36.7281L146.36 36.7744L146.449 36.7814L146.727 36.8319L146.864 36.8467L147.173 36.8851L147.703 36.9129C147.841 37.0347 148.212 37.0352 148.351 36.9129L148.953 36.9046L149.185 36.8666L149.422 36.83L149.653 36.7837L149.788 36.767L149.93 36.7318C150.297 36.6559 150.677 36.6165 151.027 36.4942C151.482 36.3358 151.914 36.1116 152.356 35.9157L152.662 35.7545L152.78 35.6892L152.985 35.5664C152.986 35.5635 152.988 35.5608 152.99 35.5585C152.992 35.5562 152.995 35.5544 152.998 35.5531C153.001 35.5519 153.004 35.5512 153.007 35.5512C153.01 35.5512 153.013 35.5518 153.016 35.553L153.126 35.4872L153.329 35.3631L153.634 35.1542C153.919 34.9119 154.209 34.6738 154.486 34.4219C154.53 34.382 154.544 34.2681 154.521 34.2069C154.481 34.0985 154.4 34.0054 154.339 33.904C153.955 33.262 153.572 32.6202 153.188 31.9785C153.023 31.7006 152.852 31.4301 152.679 31.1498C152.639 31.1677 152.602 31.1898 152.567 31.2156C152.051 31.7135 151.45 32.0859 150.822 32.4199L150.434 32.5941L150.271 32.6557L150.151 32.7052L150.062 32.7307L149.827 32.8021L149.672 32.8442L149.503 32.8961L149.411 32.9095L148.577 33.0179H148.067L147.558 32.9651L147.467 32.9549L147.328 32.9137L147.236 32.9012L147.064 32.8498L146.955 32.8136L146.902 32.7854C146.767 32.7506 146.615 32.7437 146.499 32.6761C145.993 32.3796 145.485 32.0887 145.109 31.6163C144.81 31.2354 144.569 30.8119 144.395 30.3596L144.28 30.0099C144.273 29.9715 144.265 29.933 144.258 29.8946L144.219 29.7324C144.173 29.486 144.37 29.587 144.457 29.5865C147.735 29.5801 151.013 29.5791 154.29 29.5838C154.495 29.5838 154.597 29.5342 154.584 29.3221L154.63 28.8751C154.634 28.7753 154.639 28.6757 154.644 28.5763C154.796 28.0496 154.78 27.5244 154.647 26.9986ZM144.358 26.2835C144.461 25.8638 144.654 25.5021 144.894 25.163C145.703 24.018 147.135 23.6886 148.191 23.9161C149.247 24.1435 150.057 25.1519 150.132 26.2835H144.358Z" fill="#262A2D"/>
<path d="M49.2446 27.9668C49.2395 27.844 49.2339 27.7213 49.2288 27.5962C49.2146 27.4727 49.1992 27.3492 49.1825 27.2256L49.1714 27.0894L49.1339 26.8555C49.0875 26.6175 49.0468 26.3771 48.9884 26.1417C48.8958 25.7564 48.7864 25.3742 48.6845 24.9907C48.6474 24.9027 48.6107 24.8145 48.5743 24.7262C48.5682 24.7017 48.5622 24.6771 48.5557 24.6526L48.382 24.2644C48.3474 24.2148 48.3165 24.1628 48.2894 24.1088C48.0046 23.4602 47.6112 22.8649 47.1262 22.3486C46.7959 21.9901 46.4461 21.6436 46.0204 21.3898C45.9023 21.1925 45.7082 21.1212 45.4988 21.0758C45.2421 20.953 44.9971 20.7918 44.7275 20.7154C44.1771 20.5593 43.6157 20.4491 43.0561 20.3198L42.7318 20.2781H41.6664C41.5362 20.2374 41.4023 20.1684 41.2958 20.3245C40.1052 20.4787 39.0152 20.8729 38.0994 21.6733C38.0697 21.7043 38.0396 21.7349 38.0095 21.7659L37.9599 21.8122L37.821 21.948L37.7709 21.9943L37.5393 21.7594L37.4003 21.4519L37.3262 21.3463C37.323 21.346 37.3199 21.3451 37.317 21.3435C37.3142 21.342 37.3117 21.3399 37.3097 21.3374C37.3076 21.3349 37.3061 21.332 37.3052 21.3289C37.3043 21.3258 37.3041 21.3226 37.3045 21.3194L37.0645 21.0804C36.8069 20.8455 36.4725 20.7923 36.1565 20.695L35.8786 20.6464L35.647 20.6362C35.5886 20.6121 35.5307 20.5681 35.4723 20.5681C34.2917 20.5635 33.111 20.5635 31.9304 20.5681C31.8711 20.5681 31.8122 20.6255 31.7529 20.6561V24.5099C32.2537 24.5099 32.723 24.503 33.1922 24.515C33.3043 24.5178 33.4146 24.5831 33.5258 24.6192C33.5448 24.6739 33.5642 24.7281 33.5837 24.7823C33.5865 24.867 33.5925 24.9518 33.5925 25.0361C33.5925 27.8681 33.5925 30.6998 33.5925 33.5311C33.5925 36.5327 33.594 39.534 33.5971 42.5352C34.9939 42.5389 36.3908 42.5414 37.7876 42.5427C37.8488 42.5427 37.9099 42.4963 37.9729 42.4732V42.2833C37.9729 42.2684 37.9683 42.2536 37.966 42.2369C37.9609 42.2073 37.9558 42.1772 37.9525 42.1471C37.9558 42.1772 37.9609 42.2073 37.966 42.2369C37.966 42.2522 37.9711 42.267 37.9729 42.2833C37.9904 42.2031 38.002 42.1219 38.0077 42.0401C38.0101 40.7302 38.0101 39.4201 38.0077 38.1099C38.0077 37.303 38.0077 36.4961 38.0146 35.6892C38.0146 35.647 38.0753 35.6049 38.1073 35.5627L38.0758 35.5322L38.003 35.4617L38.0758 35.5322L38.1073 35.5627L38.2342 35.6642L38.3268 35.7545L39.2042 36.3038L39.3126 36.3502H39.3302L39.3441 36.3613C39.6041 36.569 39.9222 36.6909 40.2544 36.7101L40.4087 36.7374L40.5476 36.7805L40.6403 36.7925L40.8256 36.8361L40.9645 36.8625L41.2013 36.9143L41.7108 36.9227H42.3131C42.6586 36.8902 43.0079 36.8889 43.3475 36.818C43.7633 36.7365 44.1703 36.6153 44.563 36.4562C45.0406 36.2547 45.4895 35.9875 45.9528 35.7485L46.0681 35.6702L46.0709 35.6679L46.4359 35.3853L46.4878 35.3418L46.6138 35.232L47.0261 34.8253L47.217 34.6317C47.469 34.2815 47.7211 33.9317 47.9734 33.5821L48.1365 33.3227C48.1597 33.2704 48.1828 33.218 48.2055 33.1652C48.2444 33.0943 48.2829 33.023 48.3213 32.9521L48.3931 32.7951C48.4293 32.7222 48.4657 32.6495 48.5025 32.577C48.5817 32.3546 48.6678 32.1341 48.7392 31.9086C48.8235 31.6422 48.9013 31.3736 48.9708 31.1031C49.0282 30.8812 49.0695 30.6556 49.1181 30.4319L49.1737 30.0613L49.1839 29.9252L49.2302 29.5546C49.2353 29.4471 49.2399 29.3401 49.245 29.2327C49.2654 29.1863 49.3025 29.14 49.3034 29.0965C49.3083 28.7673 49.3083 28.4378 49.3034 28.108C49.302 28.0575 49.265 28.0121 49.2446 27.9668ZM44.7863 29.2989C44.7205 30.0998 44.5047 30.8548 44.072 31.5454C42.8356 33.5191 39.7356 33.7363 38.4806 31.286C38.0489 30.4435 37.8784 29.5444 37.8784 28.5898C37.9025 27.6555 38.0253 26.7277 38.4992 25.8824C39.1171 24.779 40.0663 24.2047 41.3287 24.1894C42.5627 24.1746 43.4897 24.741 44.1132 25.7911C44.7567 26.875 44.8873 28.0687 44.7863 29.2989Z" fill="#262A2D"/>
<path d="M88.8794 27.2756C88.8794 27.6317 88.8794 27.9879 88.8794 28.3442C88.8993 28.3336 88.9364 28.3234 88.9364 28.3127C88.9395 27.978 88.9395 27.643 88.9364 27.3076C88.9373 27.297 88.8993 27.2863 88.8794 27.2756Z" fill="#262A2D"/>
<path d="M104.538 15.6475L104.762 16.3451C104.773 16.0852 104.728 15.843 104.538 15.6475Z" fill="#262A2D"/>
<path d="M42.3141 36.9189H41.7119C41.849 37.0408 42.1779 37.0398 42.3141 36.9189Z" fill="#262A2D"/>
<path d="M88.8169 26.5322C88.8348 26.703 88.8527 26.8741 88.8706 27.0454C88.9165 26.8676 88.9902 26.6869 88.8169 26.5322Z" fill="#262A2D"/>
</svg>
