<svg width="210" height="58" viewBox="0 0 210 58" fill="none" xmlns="http://www.w3.org/2000/svg">
<rect y="0.217407" width="209.247" height="57.1739" rx="8.57609" fill="white"/>
<g clip-path="url(#clip0_602_33671)">
<path d="M65.5553 44.9968C65.454 44.9735 65.4373 44.8979 65.4415 44.8068C65.4602 44.4021 65.4784 43.9975 65.496 43.5928C65.496 43.5614 65.5008 43.5303 65.5019 43.4993C65.5241 42.8023 65.5383 42.1068 65.5712 41.4091C65.598 40.8286 65.6451 40.2491 65.6837 39.6692C65.6837 39.6589 65.6837 39.6485 65.6837 39.6382C65.7047 39.0874 65.726 38.5367 65.7475 37.9861C65.77 37.3727 65.7895 36.7593 65.8138 36.1462C65.8301 35.7413 65.853 35.3368 65.872 34.9323C65.9137 34.0394 65.9551 33.1468 65.9963 32.2544C66.015 31.8598 66.0309 31.4653 66.0559 31.0715C66.0906 30.5331 66.1305 29.995 66.1683 29.4569C66.1683 29.4358 66.1701 29.4151 66.1708 29.3944C66.193 28.6557 66.2055 27.917 66.2402 27.1789C66.2648 26.6298 66.3134 26.0817 66.3512 25.5333C66.3512 25.5122 66.3529 25.4915 66.3536 25.4705C66.3758 24.7635 66.3904 24.0562 66.423 23.3492C66.4483 22.7897 66.4948 22.2309 66.5319 21.6711C66.534 21.64 66.5358 21.609 66.5368 21.5775C66.559 20.8809 66.5736 20.1851 66.6062 19.4877C66.6322 18.9165 66.679 18.3484 66.7165 17.7789C66.7186 17.7478 66.7193 17.7164 66.7203 17.6854C66.7435 17.041 66.7666 16.3965 66.7897 15.7519C66.9552 15.7259 67.0503 15.8401 67.1505 15.9437C67.7004 16.5128 68.2528 17.0798 68.7982 17.6539C68.913 17.7746 69.0327 17.8203 69.1968 17.8303C69.9441 17.8771 70.6904 17.9374 71.4367 18.0003C71.7288 18.0242 71.7989 18.0902 71.8447 18.3969C71.9859 19.3424 72.1222 20.2893 72.2575 21.2355C72.434 22.4599 72.6098 23.6843 72.7849 24.9085C72.9566 26.1124 73.1242 27.3175 73.2959 28.5214C73.4884 29.8697 73.6822 31.2175 73.8774 32.565C74.029 33.6251 74.1775 34.6852 74.3284 35.7453C74.5019 36.9592 74.6763 38.1732 74.8516 39.3872C74.9992 40.4162 75.1453 41.4454 75.2898 42.4749C75.3054 42.5856 75.31 42.6977 75.3214 42.8273C74.8222 42.9405 74.3402 43.0512 73.8576 43.1587C72.0195 43.5693 70.1813 43.9793 68.343 44.3887C67.4641 44.5851 66.5851 44.7821 65.7062 44.9796C65.6562 44.9882 65.6059 44.9939 65.5553 44.9968Z" fill="#3C8F34"/>
<path d="M122.185 39.094C121.821 41.101 121.465 43.0733 121.107 45.0524H117.228C117.375 44.2473 117.517 43.4614 117.661 42.6755C118.166 39.9129 118.671 37.1504 119.177 34.3881C119.489 32.6892 119.821 30.9943 120.104 29.2909C120.33 27.9366 120.496 26.5716 120.69 25.2116C120.701 25.1309 120.721 25.0516 120.737 24.9695H124.164C124.094 25.6761 124.023 26.3702 123.953 27.0639L124.005 27.0871C124.058 27.0179 124.11 26.9475 124.164 26.879C124.88 25.9678 125.747 25.2723 126.849 24.9249C127.617 24.6751 128.437 24.6542 129.216 24.8645C130.342 25.1666 131.102 25.9146 131.581 26.985C131.942 27.793 132.096 28.6521 132.112 29.5329C132.154 31.8245 131.651 33.9761 130.475 35.9373C129.677 37.2684 128.636 38.3435 127.241 39.0101C125.818 39.6885 124.346 39.8281 122.834 39.3571C122.624 39.2932 122.426 39.1929 122.185 39.094ZM122.792 35.9944C123.682 36.791 124.936 36.7878 125.847 36.0041C126.475 35.4642 126.897 34.7691 127.23 34.0132C127.779 32.7635 128.081 31.4589 128.057 30.0817C128.055 29.6953 127.982 29.3128 127.84 28.9549C127.577 28.3054 127.014 27.9651 126.337 28.0497C126.196 28.0684 126.058 28.1022 125.925 28.1504C125.408 28.3322 125.02 28.6921 124.689 29.1238C124.048 29.9603 123.694 30.9301 123.49 31.9598C123.329 32.7649 123.202 33.5772 123.063 34.3877C122.971 34.9187 122.883 35.4517 122.792 35.9944Z" fill="#010101"/>
<path d="M94.3876 39.3482H90.4883C91.7498 32.4757 93.0093 25.6134 94.2668 18.7611H98.1665C97.67 21.4572 97.1774 24.1329 96.6844 26.8086L96.7399 26.8443C96.8242 26.749 96.9074 26.653 96.9928 26.5587C97.8154 25.6479 98.7917 25.0152 100 24.8035C100.534 24.7103 101.07 24.6881 101.602 24.7981C102.83 25.0523 103.57 25.8378 103.894 27.0639C104.111 27.8851 104.102 28.721 103.978 29.5465C103.766 30.9558 103.514 32.359 103.263 33.7618C102.951 35.5028 102.628 37.2413 102.308 38.9805C102.287 39.0926 102.261 39.2033 102.234 39.3275H98.3483C98.3979 39.0383 98.4423 38.7634 98.4923 38.4899C98.9433 36.0234 99.4027 33.5583 99.8454 31.0904C99.9668 30.4141 100.049 29.7286 99.9453 29.0391C99.8419 28.3497 99.4304 27.9973 98.7546 28.0065C98.4076 28.0112 98.0995 28.1258 97.8143 28.3175C97.2835 28.6746 96.905 29.1712 96.5917 29.7272C96.0772 30.6405 95.8121 31.6402 95.6241 32.6693C95.2504 34.7151 94.8664 36.7596 94.4872 38.8051C94.4549 38.9783 94.4237 39.1515 94.3876 39.3482Z" fill="#010101"/>
<path d="M148.458 45.804C148.101 44.67 147.746 43.5446 147.386 42.401C147.632 42.2974 147.864 42.2028 148.094 42.1014C149.367 41.5391 150.444 40.7175 151.258 39.5535C151.394 39.3596 151.509 39.15 151.634 38.9465C151.795 38.6859 151.822 38.4049 151.768 38.1057C151.39 36.0177 151.013 33.9294 150.638 31.8409C150.249 29.6707 149.861 27.5 149.476 25.3287C149.46 25.2401 149.456 25.1502 149.446 25.0484H153.54L154.509 34.8173L154.556 34.8312C154.834 34.0189 155.103 33.2045 155.386 32.3947C155.673 31.5735 155.971 30.7523 156.268 29.935C156.566 29.1177 156.868 28.2993 157.17 27.4835C157.473 26.6676 157.783 25.8564 158.089 25.0434H162.122C162.11 25.109 162.093 25.1735 162.071 25.2362C161.285 26.9834 160.498 28.73 159.712 30.4763C158.959 32.1472 158.215 33.8229 157.449 35.4874C156.447 37.6654 155.351 39.787 153.929 41.7137C153.179 42.7305 152.357 43.6774 151.336 44.418C150.504 45.0228 149.608 45.4955 148.622 45.7772C148.568 45.7894 148.513 45.7983 148.458 45.804Z" fill="#020202"/>
<path d="M118.147 30.5259C118.115 32.4933 117.655 34.3374 116.62 36.0073C115.629 37.6091 114.285 38.7634 112.5 39.3186C111.293 39.6935 110.068 39.7521 108.842 39.4282C106.98 38.9369 105.823 37.6987 105.291 35.8185C105.006 34.8101 105.007 33.7815 105.122 32.75C105.292 31.2186 105.742 29.7804 106.542 28.47C107.54 26.8347 108.89 25.6426 110.701 25.0606C111.861 24.6878 113.046 24.6064 114.24 24.882C116.122 25.3166 117.301 26.5298 117.877 28.3965C118.084 29.0663 118.154 29.6965 118.147 30.5259ZM109.059 33.548C109.055 34.512 109.132 34.9808 109.322 35.4332C109.834 36.6507 111.103 36.7511 111.862 36.263C112.341 35.9556 112.688 35.5278 112.964 35.0358C113.712 33.699 114.042 32.2405 114.143 30.7155C114.174 30.2438 114.16 29.7775 114.053 29.3184C113.665 27.6402 112.091 27.5192 111.168 28.239C110.748 28.5657 110.426 28.9792 110.173 29.4473C109.5 30.7076 109.118 32.111 109.059 33.548Z" fill="#010101"/>
<path d="M143.433 39.325H139.515C140.201 35.5721 140.883 31.8388 141.571 28.0694H139.758C139.951 27.0318 140.139 26.0342 140.328 25.0163H142.106C142.272 24.3115 142.406 23.6284 142.595 22.9618C142.894 21.9082 143.39 20.9595 144.134 20.1601C144.879 19.3606 145.782 18.8604 146.827 18.6176C147.868 18.3744 148.949 18.3802 149.988 18.6344C150.134 18.6701 150.275 18.7276 150.451 18.7854C150.2 19.8348 149.953 20.8713 149.7 21.9314C149.462 21.8839 149.24 21.8168 149.015 21.7996C148.702 21.7761 148.384 21.7518 148.078 21.7971C147.588 21.8685 147.202 22.1542 146.89 22.5469C146.523 23.0111 146.309 23.5438 146.184 24.1201C146.123 24.4057 146.072 24.6914 146.011 25.007H148.713C148.533 26.0392 148.359 27.0375 148.181 28.0569H145.496C144.807 31.8184 144.122 35.5596 143.433 39.325Z" fill="#020202"/>
<path d="M90.5507 25.3976C90.243 26.3681 89.9456 27.305 89.6435 28.2572C89.3822 28.1669 89.1387 28.0726 88.8895 27.9983C88.1745 27.7841 87.4494 27.6531 86.7014 27.7716C86.3544 27.8262 86.0349 27.9448 85.7729 28.1961C85.3365 28.6153 85.2609 29.2652 85.6293 29.749C85.8081 29.9748 86.0186 30.172 86.2538 30.3342C86.6105 30.5887 86.998 30.7965 87.364 31.0383C87.86 31.3634 88.3146 31.7511 88.7171 32.1922C89.5293 33.0874 89.7996 34.1478 89.6317 35.34C89.3541 37.2995 88.2144 38.5338 86.4519 39.149C84.4119 39.8606 82.3691 39.7895 80.3721 38.9151C80.1882 38.8344 80.0151 38.7277 79.8135 38.6205L80.7717 35.7792C81.1881 35.9491 81.5756 36.1258 81.9746 36.264C82.7379 36.5286 83.5199 36.6903 84.3317 36.6054C84.4828 36.5898 84.6315 36.556 84.7748 36.5047C85.8545 36.1119 85.8729 34.9437 85.3691 34.3488C85.1526 34.0928 84.8834 33.8761 84.6159 33.6761C84.3213 33.4573 83.9938 33.2866 83.6895 33.0809C83.2146 32.7596 82.7771 32.3936 82.4003 31.9484C81.5034 30.8879 81.2991 29.6768 81.6675 28.3554C82.1071 26.7794 83.1764 25.8068 84.6166 25.2226C85.6029 24.8228 86.6358 24.7228 87.6877 24.7585C88.4708 24.7849 89.2431 24.8727 89.9855 25.1441C90.1732 25.2109 90.3509 25.3066 90.5507 25.3976Z" fill="#020101"/>
<path d="M136.113 39.3315H132.247C133.124 34.5645 133.998 29.814 134.875 25.0495H138.74C138.796 25.2684 136.216 39.0037 136.113 39.3315Z" fill="#020202"/>
<path d="M137.273 23.2782C136.214 23.3174 135.507 22.4455 135.466 21.3858C135.425 20.3361 136.012 19.3774 136.992 19.0475C137.457 18.8837 137.961 18.8871 138.423 19.0571C139.214 19.3474 139.591 19.9687 139.64 20.7931C139.681 21.4947 139.481 22.1313 138.973 22.6369C138.518 23.09 137.967 23.2789 137.273 23.2782Z" fill="#020202"/>
<path d="M66.258 15.7955C65.9749 15.8669 65.6998 15.969 65.4132 16.0608C65.3012 15.7787 65.2012 15.507 65.0864 15.2421C64.8068 14.5994 64.4473 14.0103 63.9269 13.5404C63.4474 13.1076 62.8975 12.8327 62.2533 12.8213C62.0104 12.817 61.8255 12.757 61.6864 12.5499C61.6352 12.4845 61.577 12.4254 61.5129 12.3735C61.0966 11.9908 60.6244 11.7708 60.0495 11.8083C59.6231 11.8365 59.2047 11.899 58.8005 12.0365C57.7794 12.3832 56.9638 13.0334 56.2678 13.8574C55.3709 14.9161 54.736 16.1351 54.2527 17.4361C53.9572 18.2313 53.7209 19.05 53.4458 19.8955C53.4048 19.9105 53.3209 19.9451 53.2345 19.973C52.7324 20.1336 52.2283 20.2907 51.7277 20.4525C51.1957 20.6234 50.6656 20.7966 50.1373 20.972C49.8251 21.0748 49.6592 21.2958 49.6169 21.6318C49.4833 22.6837 49.3393 23.7341 49.2061 24.7856C49.0729 25.8371 48.9494 26.8922 48.8179 27.9437C48.6618 29.1934 48.5008 30.4402 48.3426 31.6885C48.2302 32.5754 48.1186 33.4624 48.0078 34.3495C47.8787 35.3814 47.75 36.4134 47.6216 37.4455C47.506 38.3639 47.3912 39.2821 47.2774 40.2002C47.2251 40.6211 47.1768 41.0428 47.1255 41.473C47.214 41.4995 47.2792 41.5252 47.3468 41.5384C49.0663 41.8716 50.7859 42.2049 52.5055 42.5381C54.7123 42.9637 56.9194 43.3882 59.1266 43.8117C61.184 44.2105 63.24 44.6169 65.2977 45.0153C65.3799 45.0314 65.4712 45.0039 65.5572 44.9967C65.4559 44.9735 65.4392 44.8978 65.4434 44.8068C65.4621 44.4021 65.4803 43.9975 65.4979 43.5928C65.4979 43.5614 65.5027 43.5303 65.5038 43.4993C65.526 42.8023 65.5402 42.1068 65.5732 41.4091C65.5999 40.8286 65.6471 40.2491 65.6856 39.6692C65.6856 39.6589 65.6856 39.6485 65.6856 39.6382C65.7066 39.0873 65.7279 38.5367 65.7494 37.9861C65.772 37.3727 65.7914 36.7593 65.8157 36.1462C65.832 35.7413 65.8549 35.3368 65.874 34.9323C65.9156 34.0394 65.957 33.1468 65.9982 32.2544C66.0169 31.8598 66.0329 31.4653 66.0578 31.0715C66.0925 30.5331 66.1324 29.995 66.1703 29.4569C66.1703 29.4358 66.172 29.4151 66.1727 29.3944C66.1949 28.6557 66.2074 27.917 66.2421 27.1789C66.2667 26.6298 66.3153 26.0817 66.3531 25.5333C66.3531 25.5122 66.3548 25.4915 66.3555 25.4705C66.3777 24.7635 66.3923 24.0562 66.4249 23.3492C66.4502 22.7897 66.4967 22.231 66.5338 21.6711C66.5359 21.64 66.5377 21.609 66.5387 21.5775C66.5609 20.8809 66.5755 20.1851 66.6081 19.4877C66.6341 18.9165 66.681 18.3484 66.7184 17.7789C66.7205 17.7478 66.7212 17.7164 66.7222 17.6854C66.7454 17.041 66.7685 16.3965 66.7916 15.7519C66.6126 15.7648 66.4291 15.7537 66.258 15.7955ZM61.7707 17.2237L58.636 18.2213L58.5902 18.1535C59.068 16.5303 59.7351 15.0443 61.3311 14.1724C61.7183 15.1689 61.7446 16.1883 61.7707 17.2237ZM55.04 18.6248C55.4018 17.5479 55.8476 16.51 56.4465 15.5491C56.9669 14.7165 57.5772 13.9699 58.424 13.465C58.9327 13.1615 59.4795 12.9902 60.072 12.9919C60.2552 12.9919 60.4318 13.0134 60.5959 13.1466C60.5642 13.1807 60.5294 13.2115 60.4918 13.2387C59.4784 13.7964 58.7918 14.6715 58.2645 15.6923C57.8231 16.5442 57.5518 17.4593 57.3523 18.3987C57.3392 18.4594 57.3274 18.5209 57.3117 18.5808C57.2994 18.6163 57.2848 18.6509 57.268 18.6844L54.77 19.4749C54.8724 19.1489 54.9522 18.8847 55.04 18.6237V18.6248ZM60.8315 27.4285C60.7726 27.4148 60.7146 27.3972 60.658 27.3757C59.9836 27.0585 59.2541 26.8845 58.5129 26.864C58.0886 26.8522 57.6622 26.8972 57.2666 27.0879C56.7684 27.3282 56.4773 27.7209 56.4239 28.2933C56.4044 28.4704 56.4256 28.6498 56.4859 28.817C56.5462 28.9841 56.6438 29.1344 56.7709 29.2555C57.069 29.551 57.383 29.8289 57.7114 30.0882C58.3304 30.5759 58.9625 31.0436 59.5013 31.631C60.4328 32.6461 60.8245 33.8511 60.7368 35.2325C60.6788 36.1491 60.4797 37.0271 60.0179 37.8236C59.324 39.0219 58.3106 39.782 56.9648 39.9659C54.9563 40.2416 53.1831 39.6578 51.6566 38.2767C51.4869 38.1232 51.4304 37.9804 51.5063 37.7376C51.77 36.8957 52.0035 36.0437 52.2537 35.1775C52.6637 35.4571 53.0371 35.7253 53.4236 35.9709C53.8784 36.2674 54.384 36.4718 54.9133 36.5732C55.3557 36.6539 55.789 36.6354 56.1491 36.313C56.6002 35.9109 56.6696 35.3943 56.5308 34.8291C56.4548 34.5209 56.3157 34.2385 56.0933 34.0182C55.7439 33.6715 55.3751 33.3459 55.0178 33.0081C54.675 32.6843 54.31 32.3804 53.9998 32.0262C53.3497 31.2832 53.0527 30.3892 53.0412 29.393C53.0253 28.0148 53.3882 26.7562 54.1903 25.6461C54.8932 24.6725 55.8175 23.9998 56.9312 23.6109C58.3867 23.0942 59.9593 23.0383 61.4459 23.4506C61.6472 23.5049 61.8387 23.5963 62.0527 23.6774C61.6413 24.9442 61.2398 26.1753 60.8315 27.4274V27.4285ZM62.8351 16.8995C62.8639 15.903 62.7844 14.9568 62.4829 13.997C62.587 14.0117 62.664 14.0103 62.732 14.0327C63.0068 14.1281 63.224 14.3095 63.4235 14.5223C63.8159 14.94 64.2721 15.8433 64.3561 16.4218L62.8351 16.8995Z" fill="#81C039"/>
</g>
<defs>
<clipPath id="clip0_602_33671">
<rect width="115" height="34" fill="white" transform="translate(47.1235 11.8044)"/>
</clipPath>
</defs>
</svg>
