<svg width="58" height="45" viewBox="0 0 58 45" fill="none" xmlns="http://www.w3.org/2000/svg">
<g clip-path="url(#clip0_856_30739)">
<path d="M35.5803 5.28353C35.5803 6.58282 36.0264 8.1564 35.4446 9.09093C34.9532 9.87472 33.241 9.85964 32.1045 10.2817C28.3573 11.6744 26.1959 14.5021 24.7519 18.1196C22.6939 23.2686 20.5264 28.3723 18.2494 33.4308C17.4807 35.1491 16.3622 36.7288 15.271 38.2813C12.172 42.6856 7.68928 44.4341 2.48307 44.7506C1.27723 44.823 0.776772 44.431 0.864195 43.1468C0.977244 41.5501 0.977244 39.9474 0.864195 38.3506C0.782801 37.2051 1.32843 36.8945 2.28406 36.7257C3.50798 36.5117 4.78014 36.3579 5.90158 35.8967C8.21679 34.9501 9.54022 32.9786 10.523 30.793C13.1396 24.9658 15.8015 19.1566 18.2886 13.2752C21.27 6.22703 26.5034 2.18749 34.0037 0.861063C35.4025 0.610851 35.7039 1.09318 35.6587 2.28998C35.6225 3.29083 35.6587 4.29166 35.6587 5.28949L35.5803 5.28353Z" fill="#C9CED4"/>
<path d="M50.0175 19.2469C52.4021 19.2469 54.651 19.1987 56.8938 19.3012C57.2465 19.3163 57.8615 20.0277 57.8555 20.4106C57.6565 32.9001 50.9219 42.0825 38.4234 44.5997C37.2628 44.8318 36.7382 44.4942 36.7834 43.2492C36.8437 41.6032 36.8347 39.9542 36.7834 38.3082C36.7563 37.4038 37.106 36.9637 37.9893 36.7406C45.149 34.9319 48.3504 29.7859 49.5804 23.0061C49.7914 21.8274 49.8547 20.6487 50.0175 19.2469Z" fill="#C9CED4"/>
<path d="M19.5248 44.9102C19.5248 42.1971 19.5007 39.915 19.561 37.6299C19.561 37.3737 20.0041 36.9878 20.3086 36.9064C29.0087 34.5581 32.0655 28.2093 32.4815 19.9433C32.5138 19.7198 32.5591 19.4983 32.6172 19.2801C35.0077 19.2801 37.4405 19.2439 39.8703 19.3373C40.0994 19.3373 40.4732 20.1724 40.4732 20.6155C40.3737 30.7355 35.6227 39.9512 24.6195 43.6441C23.0549 44.1716 21.3999 44.452 19.5248 44.9102Z" fill="#C9CED4"/>
</g>
<defs>
<clipPath id="clip0_856_30739">
<rect width="57" height="44.1186" fill="white" transform="translate(0.855469 0.791748)"/>
</clipPath>
</defs>
</svg>
