<svg width="112" height="40" viewBox="0 0 112 40" fill="none" xmlns="http://www.w3.org/2000/svg">
<g clip-path="url(#clip0_856_30778)">
<path d="M0.893723 5.93327C1.68019 6.362 2.44333 6.52062 2.76979 6.99223C4.46568 9.43603 6.05557 11.9656 7.69846 14.4523C10.1957 18.2273 12.7247 21.9808 15.207 25.7644C17.5855 29.3872 20.0403 32.965 22.2259 36.6972C23.4066 38.7187 24.7824 39.5977 27.0888 39.2525C28.3798 39.0596 29.7217 39.2182 31.0932 39.2182V37.8762C31.0932 30.1275 31.0932 22.3796 31.0932 14.6323C31.0932 9.86908 31.1038 5.10656 31.125 0.344727H0.891602L0.893723 5.93327ZM18.4144 6.04254L18.2214 6.15402L18.4144 6.04254ZM14.6664 8.48852C15.4805 7.41668 16.5891 6.50558 18.0306 6.25691L18.126 6.20761L18.0306 6.25691L28.1763 6.19484C27.5403 7.29884 26.9595 8.43712 26.2684 9.50467C24.6722 11.9721 23.0271 14.4051 21.3927 16.8511C20.0551 18.8576 18.7133 20.8619 17.2739 23.0185L11.2386 13.8606C12.3918 12.0256 13.3988 10.1542 14.6664 8.48852Z" fill="#C9CED4"/>
<path d="M85.6539 27.8739C85.2384 27.9065 84.8209 27.9065 84.4053 27.8739C83.3454 27.6874 82.9405 28.1804 82.6904 29.1601C82.1859 31.1408 81.5563 33.0895 80.9436 35.1624L79.0951 27.8739C78.5312 27.8739 78.0988 27.9381 77.6918 27.8631C76.653 27.668 76.3075 28.1762 76.0998 29.1237C75.6758 31.1023 75.1246 33.053 74.5883 35.1538C73.9523 32.9523 73.3376 30.92 72.8034 28.8621C72.6105 28.1225 72.32 27.8288 71.5314 27.8545C69.4561 27.9167 67.3765 27.8739 65.2991 27.8739H54.668V39.066H57.1355V34.2663H61.6423V31.979H57.1758V30.2084H64.7479V39.0532H67.2493V30.2833L70.4863 30.0239C71.2453 32.5406 72.1695 35.3338 72.9136 38.1699C73.2719 39.5397 74.2152 38.9931 74.9889 39.1303C75.7987 39.2739 75.9916 38.7723 76.1549 38.1335C76.6552 36.1849 77.1894 34.247 77.7596 32.1312C78.2535 34.0112 78.6796 35.6962 79.1417 37.3683C79.6505 39.2032 79.6653 39.1668 81.5223 39.1497C82.1583 39.1497 82.3703 38.8731 82.5293 38.3264C83.108 36.3564 83.7312 34.3971 84.3248 32.4292C84.7615 30.9436 85.1897 29.4559 85.6539 27.8739Z" fill="#C9CED4"/>
<path d="M44.8809 11.1295C44.8809 11.8026 45.0929 12.107 45.7903 12.0856C46.952 12.0491 48.1222 12.1584 49.2754 12.0469C50.1233 11.9633 51.0751 11.8218 51.7556 11.3652C53.5659 10.1497 53.9963 7.48085 51.5733 5.89453C52.7244 4.87628 53.0254 3.66733 52.3831 2.39398C51.7408 1.12063 50.5685 0.711108 49.1927 0.753981C48.067 0.790424 46.9372 0.78828 45.8115 0.753981C45.1501 0.730401 44.8682 0.906262 44.8767 1.6394C44.9084 4.79704 44.9021 7.9697 44.8809 11.1295ZM50.3671 8.43481C50.4052 9.5238 49.5446 9.45527 48.8387 9.51743C48.0119 9.63105 47.6028 9.40382 47.6028 8.44559C47.6028 7.60741 47.8402 7.29863 48.6627 7.38652C49.4195 7.47441 50.3289 7.29223 50.3671 8.43481ZM49.8308 3.85374C49.9431 4.04667 49.8138 4.63406 49.6803 4.67908C49.1355 4.857 48.4825 5.07787 47.9992 4.90852C47.7194 4.81205 47.6855 3.99952 47.5032 3.38857C48.4974 3.38214 49.3178 2.98555 49.8308 3.85374Z" fill="#C9CED4"/>
<path d="M83.0592 18.6174L83.2712 18.5767C83.8309 19.4706 84.3842 20.3666 84.9502 21.2563C85.5395 22.1823 86.1457 23.0977 86.7351 24.0238C87.6508 25.4665 88.0621 25.6186 89.8173 25.1513V14.1264H87.3774V20.7482C86.1648 18.8596 85.0985 17.1661 83.9983 15.4962C82.9215 13.8648 82.595 13.7533 80.6299 14.21V25.2542H83.0507L83.0592 18.6174Z" fill="#C9CED4"/>
<path d="M36.1129 12.0428C36.1743 12.0428 36.2337 11.9784 36.4542 11.8562V7.6053H38.0886C40.024 7.6053 40.024 7.60535 40.024 9.58611C40.024 12.2507 40.024 12.2507 42.6547 12.0428C42.7183 12.0428 42.7756 11.9784 42.8667 11.9313V0.833444H40.0304V2.45837C40.0304 5.18085 40.0303 5.15938 37.3106 5.05005C36.6068 5.02004 36.3948 4.74564 36.416 4.07681C36.4542 3.02212 36.416 1.96321 36.416 0.938535C34.2537 0.471212 33.4779 1.06501 33.4736 3.08222C33.4736 5.24948 33.4736 7.41671 33.4736 9.58611C33.48 12.24 33.48 12.2421 36.1129 12.0428Z" fill="#C9CED4"/>
<path d="M47.6831 27.6487C44.3676 27.6594 41.9192 30.1869 41.9595 33.5632C41.9934 36.8388 44.4779 39.3276 47.7382 39.3511C51.1003 39.3769 53.5763 36.8494 53.5572 33.4088C53.5296 30.0775 51.0452 27.638 47.6831 27.6487ZM47.7594 37.0531C45.9045 37.0424 44.6241 35.5396 44.6475 33.4088C44.6687 31.3059 45.9194 29.9382 47.8166 29.9789C49.7139 30.0197 50.8777 31.4044 50.8671 33.5438C50.8565 35.6832 49.591 37.0638 47.753 37.0531H47.7594Z" fill="#C9CED4"/>
<path d="M40.6577 18.3087C41.7791 17.0225 41.2937 14.6966 39.6572 14.3965C37.656 14.0278 35.5786 14.0728 33.5244 13.9377V25.31H37.868C38.1499 25.31 38.434 25.31 38.7159 25.295C41.0075 25.102 42.483 23.3443 41.8661 21.2606C41.6011 20.3624 40.7468 19.64 40.1384 18.8082C40.3212 18.6523 40.4946 18.4855 40.6577 18.3087ZM36.0555 16.1886C36.6724 16.1886 37.2278 16.1458 37.7747 16.1994C38.3959 16.2594 38.9449 16.5938 38.7477 17.2712C38.6568 17.4908 38.5216 17.6888 38.3508 17.8527C38.18 18.0166 37.9773 18.1427 37.7557 18.223C37.2575 18.3859 36.6639 18.2615 36.0598 18.2615L36.0555 16.1886ZM38.4043 22.9412C37.726 23.2049 36.9204 23.1213 36.0492 23.192V20.416C36.8187 20.416 37.5839 20.268 38.2475 20.4674C38.6905 20.6003 39.2586 21.2113 39.2798 21.6336C39.301 22.056 38.8241 22.7761 38.4043 22.9412Z" fill="#C9CED4"/>
<path d="M65.6362 13.884V25.2563C67.3682 25.2563 69.028 25.3742 70.6539 25.2284C72.7441 25.0419 74.2259 23.8907 74.9827 21.8564C76.0935 18.8745 74.7707 15.2282 72.0149 14.525C69.982 14.0084 67.807 14.0813 65.6362 13.884ZM72.1442 21.7385C71.22 23.1855 69.7276 23.0912 68.1885 22.9647V16.3857C69.7064 16.2871 71.2009 16.1607 72.1315 17.6098C72.5505 18.2143 72.7764 18.934 72.7787 19.6722C72.781 20.4104 72.5595 21.1315 72.1442 21.7385Z" fill="#C9CED4"/>
<path d="M111.777 37.0938C111.777 37.0316 111.703 36.9781 111.599 36.8238H107.018V34.2513C108.354 34.2513 109.615 34.1956 110.87 34.2706C111.754 34.3221 111.847 33.8934 111.815 33.1838C111.788 32.5257 111.911 31.8976 110.883 31.9747C109.598 32.0605 108.305 31.9962 107.001 31.9962V30.0304H111.735V27.9446H104.332V29.0636C104.332 31.9769 104.332 34.8901 104.319 37.8034C104.319 38.155 104.15 38.5066 104.061 38.8603C103.081 37.0167 102.102 35.171 101.123 33.3231C102.274 32.635 102.819 31.739 102.681 30.5749C102.543 29.4109 102.013 28.369 100.879 28.1975C98.8969 27.8996 96.8724 27.891 94.8691 27.7688V39.0532H97.3494V34.4121C98.8736 34.2706 99.2572 34.4614 99.8254 35.6769C100.113 36.285 100.37 36.9075 100.595 37.5419C101.18 39.1883 102.337 39.6427 104.08 38.8838C104.517 38.994 104.962 39.07 105.411 39.1111C106.923 39.1411 108.436 39.1239 109.948 39.1239C111.968 39.1325 111.968 39.1325 111.777 37.0938ZM99.8678 31.6789C99.1449 32.0541 98.3372 32.2641 97.3812 32.5964V29.741C98.3054 30.0304 99.1152 30.2148 99.8466 30.5664C100.008 30.6457 100.025 31.5975 99.8678 31.6789Z" fill="#C9CED4"/>
<path d="M93.5612 24.6177C95.5708 25.8203 97.7288 25.7516 99.8932 25.0892C100.128 25.0185 100.449 24.697 100.455 24.4848C100.502 22.8641 100.48 21.2414 100.48 19.6122H97.9556V21.7794C97.9556 23.2693 97.7119 23.4729 96.2258 23.2028C96.0199 23.162 95.8193 23.0973 95.628 23.0099C94.1272 22.3668 93.3661 20.8212 93.6587 19.0591C93.9364 17.3977 95.1426 16.1715 96.8194 16.1737C98.0108 16.1737 99.2042 16.5296 100.423 16.7311V14.5038C98.3945 13.7556 96.3954 13.5005 94.3985 14.3473C92.2787 15.2412 91.1551 16.9068 90.958 19.1791C90.763 21.4857 91.5325 23.4044 93.5612 24.6177Z" fill="#C9CED4"/>
<path d="M46.9603 25.5179C49.7161 25.7323 51.8678 24.4718 52.0883 22.088C52.3342 19.4641 52.1455 16.7996 52.1455 14.1414H49.7183C49.7183 16.4694 49.7416 18.7074 49.7183 20.9411C49.6971 22.4417 48.8703 23.265 47.5306 23.2371C46.2587 23.2135 45.4976 22.4267 45.4828 21.0462C45.4573 18.7503 45.4828 16.4523 45.4828 14.105H42.9623C42.9623 16.5638 42.9241 18.9668 42.9623 21.3698C43.0047 23.6786 44.6454 25.3335 46.9603 25.5179Z" fill="#C9CED4"/>
<path d="M90.0422 27.8931C87.8651 27.5758 87.598 27.7452 86.8624 29.7817C86.7162 30.1804 86.5529 30.5706 86.4067 30.9693C85.4443 33.621 84.484 36.2749 83.4897 39.0188C86.0081 39.3489 86.0103 39.3489 86.8031 37.1474C86.8985 36.8794 86.9154 36.5578 87.0808 36.3521C87.2928 36.0927 87.598 35.7732 87.8842 35.7497C90.6252 35.516 90.6273 35.5354 91.5791 38.14C91.6149 38.3129 91.6802 38.4783 91.772 38.6287C91.9395 38.8195 92.1536 39.0788 92.3677 39.0981C93.0524 39.1581 93.7477 39.1196 94.3688 39.1196C94.4494 38.9695 94.4876 38.9288 94.4791 38.9052C93.2072 35.3746 91.9522 31.844 90.6633 28.324C90.5979 28.2101 90.5082 28.1123 90.4008 28.0378C90.2934 27.9632 90.1709 27.9138 90.0422 27.8931ZM87.9944 33.5267C88.3082 32.5064 88.5943 31.5695 88.9844 30.2962C89.366 31.5073 89.6543 32.4399 89.9998 33.5267H87.9944Z" fill="#C9CED4"/>
<path d="M39.1401 32.1934C38.4448 31.9447 37.7219 31.7646 37.0521 31.4581C36.7786 31.3359 36.4034 30.9287 36.4458 30.7357C36.4993 30.5642 36.5913 30.4075 36.7145 30.2778C36.8376 30.148 36.9887 30.0487 37.1559 29.9875C37.7008 29.8767 38.261 29.8665 38.8094 29.9575C39.3415 30.0304 39.8524 30.2512 40.4608 30.4334C40.4608 29.7903 40.5201 29.2587 40.4375 28.742C40.3929 28.4634 40.1534 28.0647 39.9181 27.9939C38.4024 27.5309 36.8719 27.428 35.3943 28.1633C34.2009 28.7571 33.6137 29.7475 33.6751 31.0894C33.7366 32.3971 34.5358 33.1237 35.6826 33.5524C36.5168 33.8273 37.3356 34.1478 38.1353 34.5128C39.0341 34.9651 39.0765 35.9062 38.2201 36.4421C37.7786 36.7287 37.2603 36.8702 36.7362 36.8473C35.6763 36.7294 34.6269 36.4379 33.4737 36.2042C33.4737 36.8323 33.4377 37.5311 33.497 38.2235C33.5249 38.3498 33.5817 38.4677 33.6626 38.5678C33.7436 38.6679 33.8466 38.7475 33.9634 38.8002C35.7759 39.4025 37.599 39.6277 39.4093 38.7831C40.9568 38.0628 41.6182 36.9073 41.5292 35.1023C41.4571 33.6725 40.7046 32.7529 39.1401 32.1934Z" fill="#C9CED4"/>
<path d="M55.4565 7.94406C54.5598 9.23027 53.7606 10.5701 52.7876 12.0728C53.6864 12.0728 54.3478 12.0385 55.005 12.0728C55.7024 12.12 56.1624 11.9399 56.5292 11.2539C57.0188 10.3385 57.6866 9.51967 58.3607 8.53787C58.8631 9.28387 59.2744 9.89051 59.6793 10.4993C60.8007 12.1821 61.5553 12.4502 63.6625 11.8799C63.6547 11.7485 63.6246 11.6194 63.5734 11.4983C61.3236 8.06841 59.0624 4.64569 56.7899 1.23009C56.7143 1.11541 56.6169 1.01707 56.5034 0.94088C56.3898 0.864691 56.2624 0.812224 56.1285 0.786384C55.2445 0.732792 54.3542 0.764926 53.2879 0.764926C54.121 2.05114 54.8227 3.14225 55.5434 4.22695C56.7984 6.09195 56.7687 6.06834 55.4565 7.94406Z" fill="#C9CED4"/>
<path d="M64.3326 11.1273C64.3326 11.8026 64.5446 12.0941 65.2441 12.0834C67.2177 12.0555 69.1892 12.032 71.1606 12.0834C72.3499 12.1177 72.0743 11.3139 72.121 10.6429C72.1718 9.91834 72.1019 9.41669 71.1395 9.48314C69.8909 9.56889 68.6317 9.5024 67.294 9.5024V0.751932C66.4758 0.751932 65.8101 0.788375 65.1572 0.751932C64.5043 0.715489 64.3284 1.02207 64.3326 1.63945C64.3538 4.80066 64.3538 7.96326 64.3326 11.1273Z" fill="#C9CED4"/>
<path d="M58.0239 14.1436V25.2457H64.8393V23.0185H60.43V14.1436H58.0239Z" fill="#C9CED4"/>
<path d="M56.1987 14.1157H53.8032V25.2629H56.1987V14.1157Z" fill="#C9CED4"/>
<path d="M78.8449 14.1094H76.4771V25.2372H78.8449V14.1094Z" fill="#C9CED4"/>
<path d="M60.5484 5.10149L63.3042 0.886974C60.436 0.445375 60.1541 0.571911 58.8779 2.76919C59.3125 3.43587 59.7513 4.1132 60.1965 4.78632C60.3038 4.90225 60.4216 5.0078 60.5484 5.10149Z" fill="#C9CED4"/>
<path d="M0.855469 22.6003V29.7217C1.66737 28.5084 2.34997 27.533 2.97533 26.5169C3.03582 26.3874 3.06596 26.2456 3.06339 26.1025C3.06081 25.9593 3.0256 25.8187 2.9605 25.6915C2.33302 24.7033 1.6483 23.7515 0.855469 22.6003Z" fill="#C9CED4"/>
<path d="M6.78467 39.1368H11.8257C10.9332 37.8656 10.1298 36.7316 9.24794 35.4583L6.78467 39.1368Z" fill="#C9CED4"/>
<path d="M69.9756 4.22044C70.2015 4.23311 70.4276 4.1987 70.6397 4.11922C70.8519 4.03974 71.0457 3.91697 71.2089 3.75852C71.3722 3.60008 71.5014 3.40934 71.5886 3.19822C71.6759 2.98709 71.7192 2.76004 71.716 2.53125C71.6926 2.08842 71.5099 1.66961 71.2022 1.35369C70.8944 1.03776 70.483 0.846562 70.0455 0.8163C69.8183 0.813387 69.5929 0.856677 69.3826 0.943581C69.1722 1.03049 68.9813 1.15922 68.8212 1.32218C68.661 1.48514 68.5348 1.679 68.4502 1.89222C68.3656 2.10544 68.3241 2.33366 68.3284 2.56338C68.3411 3.54733 68.9941 4.20544 69.9756 4.22044Z" fill="#C9CED4"/>
</g>
<defs>
<clipPath id="clip0_856_30778">
<rect width="111" height="39" fill="white" transform="translate(0.855469 0.351074)"/>
</clipPath>
</defs>
</svg>
