<svg width="104" height="33" viewBox="0 0 104 33" fill="none" xmlns="http://www.w3.org/2000/svg">
<rect width="104" height="32" rx="6" transform="matrix(1 0 0 -1 0 32.8696)" fill="white"/>
<g clip-path="url(#clip0_654_32158)">
<path d="M21.8275 7.86956C22.4512 8.03373 23.0881 8.16626 23.6976 8.36406C27.7699 9.73285 30.2282 13.5574 29.8222 17.8675C29.4567 21.7533 26.162 25.0793 22.0786 25.6896C21.7576 25.737 21.4387 25.8063 21.1187 25.8656H20.1062C19.9911 25.8199 19.8717 25.7848 19.7498 25.7608C15.8315 25.3216 12.6937 22.6414 11.7511 18.9287C11.6762 18.632 11.584 18.3442 11.5 18.0524V15.5799C11.5674 15.4214 11.6255 15.2592 11.6741 15.0943C12.5354 11.4719 14.7967 9.15263 18.4579 8.13659C18.8032 8.03769 19.1515 7.9556 19.4988 7.8656L21.8275 7.86956ZM29.4425 16.833C29.4422 14.5669 28.5217 12.3934 26.8828 10.7896C25.2438 9.18573 23.0205 8.28247 20.7006 8.27802C15.8639 8.27802 11.908 12.1352 11.9182 16.8587C11.9293 21.5575 15.8781 25.3889 20.7016 25.38C21.8502 25.3797 22.9874 25.1584 24.0484 24.7287C25.1094 24.299 26.0733 23.6692 26.885 22.8755C27.6967 22.0818 28.3404 21.1396 28.7792 20.1028C29.2181 19.066 29.4434 17.9549 29.4425 16.833Z" fill="#504D4C"/>
<path d="M92.4998 19.5399C91.8194 20.9928 90.2622 21.3696 88.7364 20.4191L88.2301 20.9769L88.1106 20.885V18.6013C88.4691 18.4253 88.4741 18.7121 88.5359 18.9138C88.8336 19.8791 89.5818 20.4082 90.5609 20.3489C90.9831 20.3232 91.3253 20.164 91.4539 19.7486C91.5774 19.353 91.3942 19.0128 91.0489 18.8159C90.5001 18.4985 89.921 18.2304 89.352 17.9466C88.7829 17.6628 88.2919 17.2849 88.137 16.6381C87.8727 15.5186 88.947 14.5414 90.2409 14.7343C90.6318 14.7926 91.0044 14.9608 91.3891 15.0804C91.5147 14.9469 91.6594 14.7936 91.8032 14.6393C91.8457 14.667 91.8883 14.6947 91.9298 14.7234V16.7143C91.544 16.8785 91.5511 16.5768 91.4812 16.3741C91.217 15.5947 90.7097 15.2268 89.9544 15.2753C89.5788 15.3 89.2456 15.4187 89.1292 15.8074C89.0128 16.196 89.2355 16.4789 89.5666 16.6569C90.0384 16.9111 90.5184 17.1514 91.0084 17.368C91.6706 17.6647 92.2052 18.0712 92.4856 18.7526L92.4998 19.5399Z" fill="#4B4848"/>
<path d="M52.5165 18.2878C53.0896 18.8496 53.6212 19.4182 54.2054 19.9266C54.4087 20.1022 54.6494 20.2315 54.9102 20.305C55.1709 20.3786 55.4452 20.3946 55.713 20.3519C56.1038 20.3034 56.3559 20.1224 56.3792 19.7387C56.4228 19.0464 56.443 18.36 56.4511 17.6697C56.4582 17.1267 56.4511 16.5818 56.4157 16.0418C56.3873 15.568 56.1423 15.2832 55.6158 15.2683C55.5085 15.2683 55.4042 15.1418 55.2979 15.0705C55.3991 15.0171 55.5075 14.9163 55.6118 14.9172C56.8754 14.9321 58.143 14.8896 59.3995 15.0043C61.3911 15.1843 62.5231 16.7756 62.032 18.5974C61.6959 19.8316 60.7563 20.4082 59.5453 20.6139C59.0288 20.6876 58.507 20.7207 57.9851 20.7128C56.603 20.7257 55.2199 20.7 53.8338 20.7287C53.6615 20.7412 53.4889 20.7082 53.3341 20.6332C53.1793 20.5582 53.048 20.444 52.9539 20.3024C52.5095 19.7228 52.0427 19.1611 51.5699 18.6023C51.443 18.4765 51.3039 18.3629 51.1547 18.2631L50.9816 18.3452C51.0312 18.8733 51.0261 19.4143 51.1578 19.9216C51.2064 20.1066 51.578 20.2183 51.8088 20.3479C51.9431 20.4179 52.081 20.4813 52.2219 20.5378L52.1612 20.6852C52.0643 20.7008 51.9666 20.711 51.8685 20.7158C50.8088 20.7158 49.7487 20.7158 48.6883 20.7158L48.6113 20.5694C48.7217 20.4982 48.824 20.3855 48.9444 20.3618C49.5793 20.2342 49.7544 20.0878 49.7666 19.4509C49.7902 18.3649 49.7902 17.277 49.7666 16.1871C49.7534 15.5245 49.5894 15.386 48.911 15.2614C48.8098 15.2426 48.7349 15.1289 48.6478 15.0636C48.7359 15.0122 48.825 14.9163 48.912 14.9172C50.0906 14.9301 51.2742 14.9044 52.4467 15.0053C52.8942 15.0438 53.3944 15.2931 53.7346 15.5937C54.496 16.2643 54.2489 17.4501 53.2992 17.9575C53.0623 18.086 52.8051 18.1671 52.5165 18.2878ZM57.6803 15.4849C57.6803 16.7885 57.6803 18.0514 57.6803 19.3144C57.6803 20.0601 57.8119 20.1748 58.5642 20.162C58.6655 20.162 58.7667 20.1541 58.868 20.1461C59.9189 20.065 60.5467 19.436 60.6965 18.3175C60.8768 16.9704 60.4211 15.9438 59.4866 15.6026C59.3308 15.541 59.1662 15.5029 58.9986 15.4899C58.5753 15.4741 58.1562 15.4849 57.6803 15.4849ZM51.0282 17.7221C52.0295 17.821 52.476 17.6944 52.7423 17.2424C52.9924 16.8181 52.9631 16.2089 52.6583 15.8479C52.2118 15.3168 51.6185 15.4642 51.0282 15.479V17.7221Z" fill="#07789C"/>
<path d="M73.2138 18.3017C73.9093 18.9287 74.5371 19.5132 75.1891 20.069C75.3659 20.1962 75.5703 20.2818 75.7865 20.3193C76.4679 20.4824 76.8901 20.1966 76.9074 19.5132C76.9357 18.3927 76.9337 17.2721 76.9074 16.1506C76.8942 15.5067 76.7312 15.3791 76.068 15.2694C75.9546 15.2496 75.8584 15.1309 75.7541 15.0577L75.8361 14.9351H81.0201C81.0647 15.4731 81.1092 15.9913 81.1528 16.5096L81.0232 16.5907C80.9412 16.4839 80.8116 16.3879 80.7852 16.2693C80.6627 15.6976 80.2729 15.4889 79.7251 15.478C79.2381 15.4701 78.7501 15.478 78.2246 15.478V17.3572C78.4939 17.3572 78.7602 17.376 79.0215 17.3572C79.4356 17.3206 79.6553 17.1 79.6583 16.6738C79.6583 16.5749 79.7656 16.476 79.8223 16.3771C79.8892 16.4819 80.0097 16.5848 80.0127 16.6896C80.0299 17.3651 80.0269 18.0416 80.0127 18.7171C80.0127 18.7972 79.9044 18.8763 79.8456 18.9554C79.7818 18.898 79.6816 18.8506 79.6603 18.7804C79.4123 17.9634 79.2655 17.8784 78.2297 17.9891C78.2297 18.5074 78.2034 19.0296 78.2388 19.5478C78.2641 19.9217 78.5112 20.1412 78.9131 20.1462C79.2503 20.1462 79.5885 20.1462 79.9256 20.1531C80.5696 20.162 81.0505 19.9553 81.1669 19.263C81.1858 19.2013 81.2207 19.1454 81.2682 19.1008C81.2844 19.082 81.33 19.086 81.4707 19.0593C81.4434 19.62 81.417 20.1571 81.3887 20.7238C79.4123 20.7238 77.4865 20.6545 75.5698 20.7505C74.4622 20.8058 73.6694 20.5527 73.1155 19.5854C72.8796 19.175 72.5222 18.8278 72.2043 18.4649C72.1405 18.3907 72.0099 18.3719 71.9096 18.3284C71.8661 18.4273 71.7892 18.5193 71.7871 18.6162C71.7805 18.9132 71.7906 19.2104 71.8175 19.5063C71.8783 20.1531 71.9886 20.254 72.6275 20.3697C72.7551 20.3924 72.8675 20.4943 72.9859 20.5606C72.9637 20.6071 72.9424 20.6545 72.9201 20.701H69.4442L69.3652 20.5843C69.4736 20.5111 69.5728 20.3954 69.6923 20.3717C70.3544 20.2401 70.5104 20.0977 70.5225 19.4193C70.5407 18.3478 70.5407 17.2767 70.5225 16.206C70.5104 15.5334 70.3474 15.389 69.6761 15.2743C69.5748 15.2575 69.4948 15.1487 69.4047 15.0824C69.4877 15.028 69.5718 14.9232 69.6538 14.9242C70.8506 14.938 72.0524 14.9044 73.2421 15.0063C74.4146 15.1052 75.0788 15.9399 74.8985 16.8854C74.7902 17.4571 74.4115 17.8091 73.9002 18.0475C73.7241 18.1316 73.5307 18.186 73.2138 18.3017ZM71.8043 17.7439C72.4453 17.7557 73.0922 17.8883 73.5013 17.2494C73.7575 16.8538 73.7261 16.2099 73.4304 15.8529C72.989 15.3198 72.3916 15.4662 71.8043 15.4731V17.7439Z" fill="#4E4B4A"/>
<path d="M36.4269 15.5928L34.5589 21.0323L34.405 21.0383C34.3311 20.8731 34.244 20.7129 34.1873 20.5437C33.5798 18.7319 32.9743 16.9187 32.3709 15.1042C32.303 14.9014 32.2271 14.7007 32.1501 14.5009C31.9385 13.949 31.5831 13.5791 30.9351 13.5406C30.8167 13.5336 30.7043 13.4179 30.5889 13.3517L30.6587 13.2152H34.5376L34.6105 13.3477C34.4991 13.414 34.3949 13.5158 34.2744 13.5386C33.4431 13.6948 33.3125 13.8739 33.5656 14.6809C33.9443 15.8677 34.3503 17.0545 34.8464 18.2413C35.0904 17.5421 35.3375 16.8439 35.5795 16.1446C35.8711 15.304 36.1505 14.4584 36.4573 13.6226C36.515 13.4634 36.672 13.3388 36.7823 13.1984C36.8836 13.3467 37.0344 13.4812 37.0922 13.6454C37.5782 15.0458 38.048 16.4522 38.5238 17.8576C38.5674 17.9881 38.618 18.1177 38.7263 18.4006C39.2032 16.9517 39.6588 15.6501 40.0527 14.3318C40.2005 13.8373 40.0142 13.6741 39.4705 13.5712C39.2965 13.5231 39.1271 13.4602 38.9643 13.3833C38.9815 13.3309 38.9997 13.2785 39.0169 13.2261H42.3258L42.3825 13.3467C42.2731 13.413 42.1648 13.5346 42.0544 13.5366C41.2637 13.5514 40.8809 14.0212 40.6541 14.6819C39.9791 16.6283 39.3075 18.575 38.6393 20.522C38.5795 20.697 38.5046 20.8662 38.4368 21.0383L38.2616 21.0442L36.4269 15.5928Z" fill="#06779C"/>
<path d="M65.1728 17.4669C65.1728 18.1592 65.1394 18.7665 65.1819 19.3707C65.2295 20.0453 65.4937 20.2539 66.2106 20.3518C66.324 20.3667 66.4242 20.4834 66.5305 20.5497C66.4539 20.6132 66.3695 20.6673 66.2794 20.7109C66.197 20.7263 66.1125 20.7283 66.0294 20.7168H62.4967C62.4674 20.6713 62.439 20.6258 62.4097 20.5813C62.5109 20.5012 62.602 20.3696 62.7134 20.3509C63.573 20.2035 63.7958 20.0324 63.8181 19.1769C63.8572 17.6802 63.8572 16.1828 63.8181 14.6848C63.7958 13.855 63.572 13.6839 62.7377 13.5376C62.6365 13.5188 62.5443 13.4209 62.4481 13.3595C62.5494 13.3042 62.6425 13.2003 62.7397 13.1993C64.0368 13.1944 65.3368 13.1627 66.6308 13.228C67.1332 13.2658 67.6191 13.4201 68.0483 13.678C68.343 13.8496 68.5866 14.0935 68.755 14.3854C68.9233 14.6774 69.0106 15.0073 69.0082 15.3424C69.0057 15.6775 68.9136 16.0061 68.741 16.2957C68.5683 16.5853 68.3211 16.8257 68.024 16.9932C67.5623 17.2543 66.9882 17.3551 66.4516 17.4491C66.0435 17.5243 65.6152 17.4669 65.1728 17.4669ZM65.1576 16.8359C65.9554 16.8142 66.7867 17.0387 67.3416 16.2534C67.7131 15.7253 67.6848 14.846 67.2869 14.3396C66.7118 13.6098 65.9119 13.8451 65.1606 13.8254L65.1576 16.8359Z" fill="#4B4847"/>
<path d="M44.7756 20.9651C43.7631 20.9324 42.8833 20.616 42.1563 19.9345C40.8451 18.7072 40.8927 16.7865 42.2576 15.6106C42.8485 15.1125 43.5806 14.8018 44.3565 14.7196C45.1325 14.6375 45.9157 14.7878 46.6022 15.1507C47.7595 15.7708 48.4581 16.9497 48.3234 18.0574C48.1624 19.3837 47.1702 20.4646 45.775 20.8098C45.4459 20.8899 45.1067 20.9146 44.7756 20.9651ZM47.0639 17.823L46.9809 17.7983C46.9647 17.6005 46.9606 17.4027 46.9313 17.2049C46.7571 16.0497 45.9653 15.299 44.8809 15.2545C43.7368 15.2071 42.9572 15.8113 42.6656 16.9952C42.4722 17.7864 42.5238 18.5657 42.9126 19.2976C43.3014 20.0295 43.9251 20.3707 44.7594 20.3717C45.5937 20.3727 46.2539 20.0483 46.6072 19.3105C46.829 18.8486 46.9161 18.3244 47.0639 17.823Z" fill="#08789D"/>
<path d="M85.8663 15.122L86.3492 14.6453L86.4879 14.7343C86.4879 15.3227 86.495 15.9122 86.4808 16.5006C86.4808 16.5867 86.3796 16.6708 86.329 16.7568C86.2368 16.6846 86.1143 16.6302 86.0607 16.5372C85.9797 16.3968 85.9594 16.2227 85.8916 16.0764C85.5959 15.4741 85.0208 15.1477 84.3637 15.3039C84.0954 15.3682 83.742 15.6105 83.6813 15.836C83.6205 16.0615 83.8342 16.4205 84.0397 16.5986C84.3202 16.8419 84.7059 16.9704 85.0522 17.1435C85.3205 17.28 85.5969 17.4007 85.8622 17.5391C86.7572 18.0059 87.1501 18.6775 86.9759 19.4321C86.883 19.8555 86.6421 20.234 86.2946 20.5029C85.9471 20.7718 85.5147 20.9142 85.0714 20.9057C84.4589 20.8919 83.8504 20.6763 83.2398 20.5507L83.2672 20.4102L82.7386 20.9739L82.603 20.875C82.603 20.2015 82.5969 19.528 82.6101 18.8555C82.6101 18.7516 82.7032 18.6488 82.7538 18.5459C82.8429 18.633 82.9776 18.7052 83.013 18.81C83.3806 19.886 84.061 20.4003 85.0714 20.3449C85.4926 20.3212 85.8308 20.1669 85.9715 19.7515C86.1123 19.3361 85.9118 19.0226 85.5828 18.8209C85.116 18.5331 84.6077 18.3105 84.1227 18.0475C83.819 17.8813 83.4899 17.728 83.2267 17.5075C82.7508 17.1119 82.5118 16.5936 82.6556 15.9686C82.8055 15.3188 83.2803 14.9736 83.8949 14.7946C84.6016 14.5948 85.2598 14.7481 85.8663 15.122Z" fill="#4D4A49"/>
<path d="M18.7292 21.5525C17.7552 18.7269 16.8186 16.0062 15.8669 13.2448C16.1706 13.2162 16.4308 13.232 16.6576 13.1558C16.8115 13.1044 16.9199 12.9234 17.0484 12.8008C16.8935 12.7088 16.7376 12.5367 16.5837 12.5387C15.7929 12.5486 15.0032 12.604 14.1841 12.6455C16.2091 9.07023 22.1261 7.7232 25.8947 11.1026C25.8248 11.1284 25.7721 11.1511 25.7165 11.1679C24.7627 11.4518 24.3526 12.2093 24.709 13.1301C24.868 13.5415 25.114 13.9213 25.3499 14.3021C25.9392 15.2634 26.1842 16.2801 25.8693 17.3769C25.4846 18.72 25.0593 20.0532 24.627 21.4991C23.655 18.6785 22.7235 15.9725 21.7819 13.2419C22.0917 13.2132 22.356 13.229 22.5868 13.1509C22.7346 13.1004 22.8308 12.9086 22.9503 12.781C22.8096 12.695 22.6678 12.5357 22.5281 12.5357C21.7697 12.5357 21.0093 12.603 20.254 12.6079C19.6992 12.6079 19.1403 12.5298 18.5874 12.5407C18.4265 12.5407 18.2685 12.7385 18.1085 12.8374C18.2503 12.9491 18.4032 13.1667 18.5318 13.1539C19.1686 13.0906 19.3509 13.4614 19.5098 13.9559C19.7518 14.7076 20.0616 15.4395 20.3198 16.1852C20.3913 16.3647 20.4062 16.5611 20.3624 16.7489C19.847 18.3165 19.3063 19.8722 18.7292 21.5525Z" fill="#484544"/>
<path d="M20.881 17.6519C21.6748 19.7743 22.4686 21.895 23.2624 24.0142C22.3674 24.6076 19.7278 24.6877 18.4824 24.1586C19.2445 21.9966 20.0079 19.833 20.7727 17.6677L20.881 17.6519Z" fill="#484544"/>
<path d="M17.2327 23.7125C13.5158 22.0826 11.7125 17.2127 13.5036 13.7482C14.75 17.0683 15.9711 20.343 17.2327 23.7125Z" fill="#494645"/>
<path d="M24.6729 23.4188C25.2206 21.874 25.742 20.437 26.2402 18.993C26.6857 17.7023 27.1423 16.4127 27.52 15.1022C27.6638 14.6028 27.6 14.0479 27.6942 13.5119C28.5042 14.8777 28.6844 16.3543 28.4961 17.8893C28.2257 20.1116 26.628 22.4506 24.6729 23.4188Z" fill="#494746"/>
</g>
<defs>
<clipPath id="clip0_654_32158">
<rect width="81" height="18" fill="white" transform="translate(11.5 7.86957)"/>
</clipPath>
</defs>
</svg>
