<svg width="92" height="32" viewBox="0 0 92 32" fill="none" xmlns="http://www.w3.org/2000/svg">
<rect width="92" height="32" rx="6" fill="white"/>
<path d="M52.7192 23.1797V21.7708H53.4204V23.1797H52.7192ZM59.892 18.3294C59.8704 18.0282 59.7844 17.7486 59.6547 17.512C59.5251 17.2754 59.3531 17.0819 59.137 16.9205C58.9152 16.7537 58.6621 16.633 58.3926 16.5657C58.1007 16.4873 57.7997 16.4475 57.4974 16.4474C57.0947 16.4451 56.6966 16.5333 56.3327 16.7055C55.9977 16.869 55.7086 17.1129 55.4913 17.4152C55.2647 17.7055 55.0922 18.0494 54.9736 18.4262C54.855 18.803 54.8011 19.1896 54.8011 19.5985C54.8011 20.0717 54.855 20.5017 54.963 20.8997C55.0706 21.2981 55.2435 21.6525 55.4697 21.9432C55.6954 22.232 55.9829 22.4671 56.3111 22.6314C56.6564 22.7927 57.0555 22.8789 57.4974 22.8789C57.8317 22.8789 58.1338 22.8248 58.4036 22.7175C58.6841 22.6098 58.932 22.4594 59.1476 22.2659C59.3633 22.0724 59.5471 21.8464 59.6763 21.5773C59.8056 21.3082 59.903 21.0074 59.9568 20.6952H60.4745C60.4267 21.0856 60.3098 21.4643 60.1292 21.8139C59.9647 22.1292 59.7414 22.4104 59.4713 22.6423C59.2123 22.8693 58.912 23.0446 58.5867 23.1586C58.2524 23.2765 57.8965 23.3305 57.519 23.3305C56.9369 23.3305 56.4509 23.2228 56.0412 23.0297C55.6315 22.8143 55.2973 22.5562 55.0384 22.2013C54.7795 21.857 54.5855 21.459 54.4559 21.0074C54.3346 20.5475 54.2729 20.074 54.2724 19.5985C54.2724 19.1148 54.3372 18.6412 54.4885 18.2002C54.6283 17.7701 54.8334 17.3831 55.1138 17.0604C55.3943 16.7376 55.718 16.4685 56.1277 16.286C56.5272 16.0921 56.9907 15.9954 57.519 15.9954C57.8965 15.9954 58.2634 16.0494 58.5871 16.1352C58.9214 16.2319 59.223 16.3718 59.4717 16.5657C59.7326 16.7579 59.9494 17.0035 60.1076 17.286C60.2695 17.5766 60.3665 17.9205 60.4097 18.3294H59.903H59.892ZM61.2401 19.6737C61.2401 19.1684 61.3053 18.6949 61.4562 18.2648C61.5964 17.8347 61.801 17.4368 62.0815 17.0925C62.356 16.7527 62.7022 16.4774 63.0954 16.286C63.4949 16.0921 63.9584 15.9954 64.4867 15.9954C65.0044 15.9954 65.4683 16.0921 65.878 16.286C66.2736 16.4738 66.6207 16.7497 66.8923 17.0925C67.1724 17.4368 67.3668 17.8132 67.5176 18.2648C67.6579 18.7164 67.7337 19.1684 67.7337 19.6737C67.7337 20.1794 67.6685 20.6525 67.5176 21.0936C67.3882 21.5214 67.1758 21.9198 66.8923 22.2659C66.6167 22.5992 66.2703 22.8674 65.878 23.0509C65.4793 23.2443 65.0154 23.3411 64.4867 23.3411C63.969 23.3411 63.5055 23.2443 63.0954 23.0509C62.7055 22.8637 62.36 22.5961 62.0815 22.2659C61.8121 21.9432 61.5964 21.5452 61.4562 21.0936C61.3053 20.6525 61.2401 20.1684 61.2401 19.6737ZM61.7472 19.6737C61.7472 20.0932 61.801 20.4908 61.9197 20.8891C62.0329 21.2565 62.2079 21.6019 62.4374 21.9106C62.6623 22.206 62.9495 22.4484 63.2788 22.6208C63.6241 22.7927 64.0016 22.8789 64.4439 22.8789C64.8468 22.8824 65.2451 22.7941 65.6086 22.6208C65.9414 22.4537 66.2298 22.2104 66.45 21.9106C66.6795 21.6019 66.8545 21.2565 66.9677 20.8891C67.0859 20.5127 67.1402 20.1038 67.1402 19.6737C67.1402 19.2436 67.0753 18.8567 66.9677 18.4583C66.8491 18.0819 66.6762 17.738 66.45 17.4368C66.2237 17.1356 65.9323 16.899 65.6086 16.7266C65.2633 16.5547 64.8858 16.4685 64.4439 16.4685C64.0409 16.465 63.6424 16.5533 63.2788 16.7266C62.946 16.8937 62.6576 17.1371 62.4374 17.4368C62.2079 17.7455 62.0329 18.091 61.9197 18.4583C61.8121 18.8567 61.7472 19.2542 61.7472 19.6737ZM68.8014 16.1677H69.3191V17.5982H69.3407C69.3926 17.3721 69.4918 17.1594 69.6318 16.9742C69.761 16.7807 69.9334 16.6084 70.1389 16.458C70.34 16.3117 70.5615 16.1957 70.7964 16.1137C71.0444 16.0362 71.3026 15.9964 71.5624 15.9958C71.9077 15.9958 72.1988 16.0384 72.436 16.1246C72.6843 16.2214 72.9 16.3181 73.0724 16.4685C73.2448 16.6189 73.3851 16.7697 73.4825 16.9421C73.5901 17.114 73.6549 17.297 73.6981 17.4799H73.7198C73.9354 16.9957 74.2049 16.6193 74.5608 16.3718C74.9171 16.1246 75.3806 15.9954 75.9525 15.9954C76.2652 15.9954 76.5779 16.0494 76.8371 16.1352C77.0956 16.2319 77.3438 16.3718 77.5379 16.5657C77.7319 16.7596 77.8832 17.0169 78.0018 17.3075C78.1094 17.6087 78.1636 17.9636 78.1636 18.3725V23.1476H77.6345V18.34C77.6345 17.8884 77.5697 17.5551 77.4184 17.286C77.2892 17.0388 77.1168 16.8348 76.9333 16.7055C76.7499 16.5762 76.5664 16.4901 76.3618 16.458C76.1783 16.4364 76.0275 16.4043 75.9305 16.4043C75.6174 16.4043 75.3047 16.458 75.0459 16.5657C74.7814 16.6774 74.5428 16.842 74.3447 17.0494C74.1507 17.2754 73.9998 17.5331 73.8812 17.8669C73.7732 18.2002 73.7193 18.566 73.7193 18.9745V23.1476H73.2016V18.34C73.2016 17.9099 73.1364 17.5551 73.0072 17.297C72.8779 17.0388 72.7161 16.8453 72.5437 16.7161C72.3708 16.5872 72.1878 16.5006 71.9933 16.4685C71.8451 16.4331 71.6932 16.4151 71.5408 16.4149C71.2922 16.4149 71.0337 16.4685 70.7744 16.5547C70.516 16.6624 70.2677 16.8022 70.0521 17.0173C69.836 17.2323 69.6525 17.4904 69.5233 17.8238C69.3941 18.1571 69.3077 18.5335 69.3077 18.9855V23.148H68.7899V16.1458H68.8009L68.8014 16.1677Z" fill="#2E3133"/>
<path d="M35.3755 8.94035C34.6205 9.3383 34.3511 9.99438 34.3511 11.8118C34.3511 11.8118 34.7286 11.446 35.2895 11.2419C35.6992 11.1021 36.0445 10.8761 36.2491 10.7257C36.8855 10.2631 36.9719 9.67122 36.9719 8.67125C36.9719 8.67125 35.9365 8.63873 35.3755 8.94035Z" fill="#FFCB29"/>
<path d="M30.9535 9.37043C30.3494 9.90822 30.1659 10.7578 30.1659 10.7578L28.1382 18.523L26.4664 12.1561C26.3046 11.4895 26.0025 10.6399 25.5386 10.0802C24.9565 9.37043 23.7592 9.32734 23.6295 9.32734C23.4999 9.32734 22.2924 9.37043 21.6989 10.0911C21.2349 10.661 20.9333 11.5 20.7714 12.1667L19.0996 18.5336L17.0931 10.7578C17.0931 10.7578 16.9207 9.89725 16.3063 9.37043C15.3137 8.49932 13.8359 8.68224 13.8359 8.68224L17.6867 23.244C17.6867 23.244 18.9594 23.3408 19.5957 23.0074C20.4261 22.5879 20.8358 22.2546 21.343 20.2648C21.7959 18.5011 23.058 13.3171 23.1766 12.9407C23.2304 12.7577 23.3058 12.3171 23.6295 12.3171C23.9638 12.3171 24.029 12.7472 24.0824 12.9407C24.2011 13.3065 25.4522 18.5015 25.9161 20.2648C26.4232 22.2441 26.8223 22.5664 27.6637 23.0074C28.2997 23.3408 29.5728 23.244 29.5728 23.244L33.4231 8.69281C33.4231 8.69281 31.9458 8.50989 30.9535 9.37043ZM36.9718 11.059C36.9718 11.059 36.7345 11.4248 36.1846 11.7472C35.8287 11.9411 35.494 12.0805 35.1275 12.2529C34.5234 12.5431 34.351 12.8764 34.351 13.3711V23.2448C34.351 23.2448 35.3322 23.3627 35.9579 23.0509C36.7773 22.6314 36.9608 22.2339 36.9718 20.4161V11.059ZM46.5929 15.9954L51.4791 8.72492C51.4791 8.72492 49.4188 8.37005 48.3944 9.30621C47.7364 9.89725 47.0026 10.9623 47.0026 10.9623L45.2122 13.565C45.1152 13.6939 45.0182 13.8447 44.8347 13.8447C44.6513 13.8447 44.533 13.7049 44.4572 13.565L42.6452 10.9728C42.6452 10.9728 41.9228 9.90782 41.2538 9.31678C40.24 8.38103 38.1691 8.73549 38.1691 8.73549L43.0659 15.9849L38.1691 23.2229C38.1691 23.2229 40.3264 23.5026 41.3403 22.5668C41.9982 21.9754 42.6346 20.9965 42.6346 20.9965L44.425 18.4047C44.522 18.2755 44.6191 18.1251 44.8025 18.1251C44.9859 18.1251 45.1042 18.2649 45.18 18.4047L46.9704 20.9965C46.9704 20.9965 47.639 21.9538 48.2864 22.5668C49.3002 23.5026 51.4253 23.2229 51.4253 23.2229L46.5929 15.9954Z" fill="#2E3133"/>
</svg>
