<svg width="156" height="58" viewBox="0 0 156 58" fill="none" xmlns="http://www.w3.org/2000/svg">
<g clip-path="url(#clip0_602_33629)">
<rect x="0.904785" y="0.608704" width="154.37" height="57.1739" rx="8.57609" fill="white"/>
<rect x="20.3506" y="-5.21881" width="115.478" height="68.8289" rx="7.374" fill="white"/>
<path d="M71.9115 24.9259C71.5089 25.2766 71.1148 25.6302 70.6543 26.0528C70.6047 25.8987 70.5632 25.7421 70.53 25.5837C70.2602 23.8468 70.2051 23.8032 68.4112 23.9314C68.3406 23.9314 68.27 23.9468 68.1994 23.9468C67.681 23.9468 67.486 24.1582 67.4931 24.7188C67.5256 27.4403 67.5086 30.1619 67.5086 32.889C67.5086 37.9349 67.5214 42.9793 67.4917 48.0237C67.4917 48.659 67.7248 48.8689 68.2898 48.8619C68.924 48.8619 69.561 48.8421 70.1924 48.8365C70.6727 48.8365 70.8154 48.597 70.8097 48.1237C70.7857 46.0361 70.797 43.947 70.7998 41.8594C70.7998 41.6157 70.8267 41.372 70.8309 41.3142C72.1926 41.3142 73.4596 41.3903 74.7139 41.2988C77.9302 41.0649 80.4967 39.6943 81.7765 36.6248C83.0562 33.5553 83.0181 30.3788 81.7299 27.3023C79.8922 22.9129 74.1884 22.9382 71.9115 24.9259ZM78.4966 35.7078C77.6774 37.6475 76.0643 38.5251 74.0246 38.58C73.1192 38.6054 72.2067 38.4209 71.2998 38.318C70.9015 38.2729 70.773 38.0292 70.78 37.6306C70.8026 36.4825 70.7885 35.3331 70.7885 34.1836H70.9114C70.9114 32.8031 70.7518 31.4001 70.9453 30.0464C71.3055 27.5192 73.5924 26.0697 76.0883 26.6078C77.2593 26.86 78.0983 27.5516 78.5235 28.6476C79.4303 30.9944 79.4811 33.3764 78.4966 35.7078Z" fill="#FE540E"/>
<path d="M101.64 23.651C98.014 23.5764 95.1212 25.433 94.0124 28.8236C93.2465 31.1376 93.2061 33.6295 93.8965 35.967C94.6367 38.5476 96.3543 40.193 98.9223 40.924C101.167 41.5594 103.456 41.5129 105.702 40.9719C107.766 40.4733 107.749 40.8311 107.143 38.4011C107.013 37.8799 106.766 37.8151 106.279 37.9785C104.538 38.5617 102.757 38.7899 100.925 38.4997C98.3587 38.0926 96.7371 35.998 97.0337 33.3708C97.2725 33.3595 97.5225 33.3384 97.7739 33.3384C100.645 33.3384 103.517 33.3384 106.39 33.3384C108.65 33.3384 108.657 33.3384 108.57 31.0705C108.379 26.35 105.529 23.7313 101.64 23.651ZM97.0055 30.8352C97.134 29.2448 97.579 27.8305 98.9251 26.9501C100.319 26.0373 101.874 25.9641 103.334 26.8093C104.829 27.6714 105.232 29.1434 105.28 30.8408L97.0055 30.8352Z" fill="#FE540E"/>
<path d="M63.9592 30.8859C63.9744 30.0649 63.9357 29.2438 63.8434 28.4278C63.4959 25.8922 62.0255 24.3666 59.5183 23.8807C57.5718 23.5045 55.6282 23.6327 53.6973 24.0102C51.9161 24.3568 51.7706 24.6653 52.426 26.405C52.611 26.898 52.8498 26.9797 53.3752 26.8924C54.7369 26.6684 56.1197 26.405 57.4899 26.4317C59.8912 26.4782 61.0212 27.9658 60.6257 30.3492C60.394 30.3492 60.2019 30.3492 60.0225 30.3492C58.4772 30.4126 56.898 30.2943 55.3951 30.5817C52.2664 31.1803 50.6222 33.3764 50.7409 36.4318C50.8482 39.0787 52.5884 40.7649 55.7426 41.2086C58.3713 41.5777 60.9491 41.1706 63.5114 40.6254C63.9776 40.5268 63.9578 40.2366 63.9564 39.8986C63.962 36.8939 63.9705 33.8892 63.9592 30.8859ZM60.7104 38.0504C60.7104 38.1913 60.4279 38.4434 60.2598 38.4547C58.9758 38.5378 57.682 38.6702 56.4022 38.5955C55.0759 38.5223 54.1987 37.5898 54.0433 36.3755C53.8498 34.8682 54.477 33.699 55.7906 33.2046C57.3882 32.6101 59.0196 32.8186 60.7344 33.0257C60.7245 34.7344 60.7358 36.3938 60.7048 38.0504H60.7104Z" fill="#FE540E"/>
<path d="M37.7838 24.0412C35.8459 24.0412 35.8614 24.0412 35.9702 26.0063C35.9984 26.5191 36.1721 26.6895 36.6905 26.6839C38.7839 26.6599 40.8787 26.6726 42.972 26.6754C43.2178 26.6754 43.4636 26.6994 43.8449 26.7191C43.6458 27.0487 43.5229 27.2643 43.3887 27.4713C40.7303 31.5931 38.0729 35.7153 35.4164 39.838C35.2526 40.0944 35.2017 40.4226 35.0986 40.7184C35.3938 40.7973 35.6877 40.9452 35.9843 40.9466C39.5354 40.9635 43.0878 40.9579 46.6389 40.9579C48.6263 40.9579 48.6164 40.9579 48.495 38.966C48.4653 38.449 48.2831 38.2899 47.7703 38.2955C45.4891 38.318 43.2079 38.3054 40.9253 38.3039C40.6795 38.3039 40.4351 38.2828 40.0905 38.2673C40.2317 38.0124 40.3151 37.8447 40.4139 37.7039C43.1448 33.4901 45.8757 29.2754 48.6065 25.0597C48.7563 24.8273 48.7845 24.516 48.8693 24.2413C48.6094 24.1751 48.3495 24.0525 48.0896 24.0525C44.6529 24.037 41.2177 24.0412 37.7838 24.0412Z" fill="#FE540E"/>
<path d="M121.045 24.3934C121.033 24.2342 120.675 23.9905 120.461 23.9708C118.92 23.844 117.516 24.1962 116.376 25.3076C116.029 25.6471 115.707 26.012 115.279 26.467C115.232 26.1542 115.201 25.9725 115.18 25.7894C114.96 23.844 114.736 23.6764 112.756 23.9426C112.311 24.0018 112.116 24.1441 112.118 24.647C112.136 29.8759 112.136 35.1053 112.118 40.3352C112.118 40.8043 112.239 41.0396 112.732 41.0396C113.413 41.0311 114.094 41.0396 114.773 41.0466C115.287 41.0551 115.437 40.8226 115.431 40.3113C115.406 37.756 115.406 35.2002 115.431 32.6439C115.432 31.9175 115.497 31.1925 115.625 30.4774C116.049 28.2123 117.566 26.9783 119.874 26.9558C120.223 26.9558 120.572 26.9558 121.073 26.9558C121.072 26.0613 121.104 25.2245 121.045 24.3934Z" fill="#FE540E"/>
<path d="M89.9203 32.5228C89.9203 29.9182 89.9062 27.3108 89.9316 24.7061C89.9316 24.1765 89.779 24.0131 89.2522 24.0286C88.0049 24.0624 86.7576 24.0384 85.509 24.0399C84.4228 24.0399 84.4228 24.0399 84.3945 25.1062C84.3535 26.636 84.3535 26.6642 85.8833 26.6318C86.5133 26.6177 86.6842 26.8205 86.68 27.4333C86.6545 31.2367 86.6672 35.0401 86.6672 38.8435C86.6672 41.2382 86.817 41.3523 89.238 41.0635C89.7607 41.0016 89.9443 40.8184 89.9344 40.2705C89.9033 37.6926 89.9203 35.1049 89.9203 32.5228Z" fill="#FE540E"/>
<path d="M92.1035 14.113C91.4467 14.0876 90.7884 14.1059 90.126 14.1059L90.0031 13.8031L92.2476 11.8887L90.8704 10.4885L88.5524 12.7508C88.5524 11.807 88.4988 11.0999 88.5666 10.404C88.6414 9.61794 88.2487 9.52778 87.6075 9.52919C86.9662 9.5306 86.5664 9.59822 86.6427 10.3941C86.7105 11.0984 86.6568 11.8112 86.6568 12.5212L86.2924 12.7269C85.9633 12.3043 85.6709 11.845 85.3036 11.4591C84.3149 10.4378 84.2541 10.4519 83.3642 11.5577C83.2847 11.6732 83.2135 11.7942 83.151 11.9197L85.0734 13.9129L84.9646 14.1003C84.2668 14.1003 83.5634 14.151 82.8713 14.0876C81.9574 14.0045 82.1382 14.6286 82.1015 15.1385C82.0591 15.7203 82.1876 16.0682 82.9108 15.9949C83.634 15.9217 84.3685 15.978 85.0988 15.978L85.2401 16.271L83.0154 18.1403C83.3374 18.5094 83.5394 18.732 83.7329 18.9644C84.1567 19.4743 84.5395 19.5701 85.0197 18.9757C85.4435 18.4474 85.9774 18.0037 86.4619 17.5219L86.6625 17.6191C86.6625 18.3826 86.6865 19.1475 86.654 19.9096C86.6342 20.3773 86.8207 20.552 87.2642 20.5308C87.4987 20.5196 87.7346 20.5196 87.9705 20.5308C88.4253 20.5506 88.5863 20.3477 88.568 19.8927C88.5369 19.125 88.5595 18.3559 88.5595 17.5867L88.842 17.3994C89.448 18.1361 90.0554 18.8714 90.7602 19.7265L92.1727 18.3066L90.0426 16.14C90.9184 15.9752 91.6868 15.9865 92.4566 15.9668C92.6473 15.9668 92.9934 15.878 92.999 15.8048C93.0651 15.3002 93.0575 14.7887 92.9764 14.2862C92.9524 14.1679 92.41 14.1257 92.1035 14.113ZM87.623 16.3964C86.4718 16.3964 86.2416 16.1781 86.2401 15.0596C86.2401 13.9792 86.5226 13.7016 87.6202 13.7059C88.6753 13.7059 88.9607 13.9876 88.9734 15.023C88.9861 16.1555 88.753 16.3936 87.623 16.3964Z" fill="#FE540E"/>
</g>
<defs>
<clipPath id="clip0_602_33629">
<rect x="0.904785" y="0.608704" width="154.37" height="57.1739" rx="8.57609" fill="white"/>
</clipPath>
</defs>
</svg>
