<svg width="104" height="36" viewBox="0 0 104 36" fill="none" xmlns="http://www.w3.org/2000/svg">
<g clip-path="url(#clip0_856_30801)">
<path d="M92.8492 25.1767C92.2981 24.8118 91.805 24.2835 91.1961 24.1092C88.7469 23.4039 86.2371 22.8591 83.7989 22.1538C81.7436 21.5656 79.6663 20.9936 77.7157 20.1358C73.0955 18.1015 70.9356 14.3216 71.4976 9.64294C72.01 5.37551 75.2995 1.85691 79.8206 0.846561C81.0669 0.5612 82.3405 0.407915 83.6198 0.38913C89.7084 0.342834 95.7971 0.361812 101.886 0.369982C103.814 0.369982 104.073 0.770308 103.332 2.54863C102.445 4.66737 101.5 6.76168 100.662 8.89948C100.326 9.7546 99.836 10.046 98.9213 10.0405C93.9751 10.0079 89.0298 10.0079 84.0854 10.0405C83.5729 10.0405 83.0632 10.3918 82.5508 10.5852C82.953 11.0019 83.2864 11.6445 83.7741 11.7943C86.1654 12.5351 88.634 13.0444 91.0088 13.8287C93.6784 14.7111 96.4169 15.547 98.8717 16.8624C102.652 18.8858 104.241 22.3417 103.773 26.5083C103.255 31.1107 100.178 33.6162 95.8797 34.8009C94.5082 35.1546 93.0956 35.3285 91.6783 35.3183C83.4848 35.3646 75.2885 35.3429 67.0923 35.3374C65.0508 35.3374 64.7698 34.9397 65.5274 33.1287C66.398 31.0535 67.3375 29.0056 68.1392 26.9059C68.5139 25.9282 69.0897 25.6641 70.0925 25.6669C77.0518 25.7023 84.011 25.6859 90.9702 25.6859H92.5957L92.8492 25.1767Z" fill="#C9CED4"/>
<path d="M19.0803 16.5111C20.94 12.1538 22.6619 8.05253 24.4389 3.98391C26.3206 -0.308031 25.0395 0.443667 29.8553 0.372861C31.8224 0.343812 33.7904 0.343812 35.7594 0.372861C37.2664 0.397371 37.5804 0.857594 37.0129 2.19474C32.4781 12.881 27.9433 23.5682 23.4085 34.2563C23.0669 35.0733 22.5545 35.3456 21.739 35.3456C19.9537 35.332 18.1574 35.3265 16.3831 35.3456C15.5566 35.3456 15.0497 35.0515 14.7136 34.2563C10.1917 23.5646 5.65686 12.8774 1.1092 2.19474C0.558194 0.879381 0.891569 0.391929 2.39858 0.378313C5.18943 0.353803 7.98302 0.394631 10.7739 0.356505C11.7877 0.342888 12.325 0.735066 12.7024 1.67189C14.5703 6.1599 16.5044 10.618 18.4191 15.0842C18.6037 15.4818 18.7911 15.8739 19.0803 16.5111Z" fill="#C9CED4"/>
<path d="M48.8732 10.0081H38.2552C37.842 10.0081 37.4287 10.0245 37.0182 9.9945C36.1917 9.93186 35.839 9.41981 36.1311 8.69813C37.1615 6.15183 38.2167 3.61376 39.3738 1.12193C39.5529 0.737938 40.316 0.402998 40.8119 0.400274C50.9762 0.358517 61.1404 0.352078 71.3047 0.381126C72.6382 0.381126 72.9825 0.895896 72.4949 2.08054C71.5361 4.41169 70.5057 6.71019 69.5552 9.04679C69.2494 9.80115 68.7673 10.0325 67.9794 10.0216C65.3731 9.98622 62.7668 10.0081 59.9209 10.0081V11.642C59.9209 18.9369 59.9209 26.2327 59.9209 33.5293C59.9209 35.1633 59.7583 35.3321 58.1411 35.3403C55.623 35.3403 53.1049 35.3049 50.5868 35.3593C49.2754 35.3866 48.8456 34.8746 48.8539 33.5974C48.9007 26.348 48.8759 19.0957 48.8759 11.8463L48.8732 10.0081Z" fill="#C9CED4"/>
</g>
<defs>
<clipPath id="clip0_856_30801">
<rect width="103" height="35" fill="white" transform="translate(0.855469 0.351074)"/>
</clipPath>
</defs>
</svg>
