<svg width="70" height="33" viewBox="0 0 70 33" fill="none" xmlns="http://www.w3.org/2000/svg">
<rect y="0.434814" width="70" height="32" rx="6" fill="white"/>
<path d="M60.8669 10.453C59.5925 10.4296 58.601 11.1222 58.1145 12.3764C58.0667 12.4949 58.0247 12.6154 57.9793 12.7325C57.9372 12.8424 57.8947 12.9528 57.8269 13.1287C57.5636 12.3099 57.307 11.5638 56.6533 11.0495C55.9996 10.5352 55.2403 10.3526 54.3883 10.4678C54.3883 10.3488 54.3912 10.247 54.3883 10.1462C54.3745 9.70977 54.3998 9.26765 54.3362 8.83891C54.1289 7.43989 53.0566 6.51979 51.6235 6.47104C50.3305 6.42707 49.1737 7.35529 48.8927 8.6807C48.8372 8.96896 48.809 9.26183 48.8086 9.55539C48.7966 10.1873 48.8048 10.8191 48.8048 11.5046C47.5781 10.5261 46.2192 10.1954 44.691 10.3866C44.691 9.95975 44.7111 9.55491 44.6872 9.15294C44.6394 8.32222 44.3178 7.60622 43.657 7.08428C42.8169 6.42229 41.8713 6.30423 40.8941 6.71242C39.9088 7.12443 39.3574 7.92312 39.2594 8.96987C39.1825 9.7896 39.2236 10.6208 39.2116 11.4467C39.2116 11.527 39.2116 11.6078 39.2116 11.7335C37.8369 10.6107 36.3188 10.1791 34.6244 10.4138C32.93 10.6485 31.6245 11.5452 30.642 12.9346C28.7383 10.1476 24.9873 9.55109 22.4184 11.4505C21.7083 10.5424 20.7598 10.2126 19.6503 10.399C18.5087 10.5931 17.8264 11.3435 17.4494 12.4337C16.9773 11.1279 16.1219 10.3526 14.7118 10.3584C13.3141 10.3636 12.4698 11.1394 12.0063 12.4203C11.9844 12.3811 11.9647 12.3407 11.947 12.2994C11.4601 10.953 10.4528 10.2566 9.03985 10.3703C7.92457 10.4602 7.0807 11.0084 6.66259 12.08C6.37206 12.8223 6.51159 13.5703 6.76294 14.2935C7.44051 16.2414 8.12653 18.1861 8.82099 20.1276C8.97773 20.5683 9.13924 21.0176 9.37816 21.4143C10.4796 23.2502 13.0685 23.4017 14.3353 21.7207C14.4715 21.54 14.5823 21.3383 14.7175 21.1319C14.7744 21.237 14.8212 21.3259 14.8705 21.4134C15.83 23.113 18.2311 23.4209 19.5915 22.0199C20.0216 21.5773 20.2896 21.041 20.486 20.4636C20.5453 20.2897 20.6117 20.1176 20.6867 19.9116C20.7517 20.0163 20.7928 20.0837 20.8353 20.1506C21.5282 21.2384 22.471 22.0266 23.6814 22.4773C25.5449 23.1714 27.366 22.9716 29.1536 22.1949C29.867 21.8847 30.4977 21.4521 31.0014 20.8498C33.2726 23.4056 37.0528 23.4218 39.7526 21.6834C39.7758 21.6982 39.7972 21.7155 39.8166 21.7351C40.671 22.8927 42.2741 23.0112 43.3048 22.4816C43.3885 22.4489 43.4815 22.4489 43.5652 22.4816C45.5602 23.2617 47.3478 22.8879 48.9601 21.5257C49.0107 21.4827 49.0604 21.4378 49.1177 21.3876C49.6673 22.3827 50.5035 22.8879 51.6164 22.876C52.7293 22.864 53.5363 22.3115 54.0878 21.3508C54.0299 21.8225 53.9349 22.2795 53.8847 22.7417C53.8297 23.2435 53.7222 23.7655 53.8015 24.2525C54.1174 26.1869 56.3742 26.8188 57.7079 26.131C58.4246 25.7615 58.8662 25.1611 59.1596 24.4303C59.869 22.6644 60.5805 20.8988 61.2941 19.1335C61.963 17.4782 62.6368 15.8264 63.29 14.1654C64.0096 12.331 62.8007 10.4884 60.8669 10.453ZM21.381 13.1483C21.3433 13.4661 21.2262 13.7787 21.1182 14.0842C20.4273 16.0525 19.7296 18.0182 19.0253 19.9814C18.9505 20.1989 18.8553 20.4089 18.741 20.6085C18.4194 21.1567 17.9286 21.3928 17.2964 21.3307C16.7144 21.2729 16.325 20.9483 16.1286 20.4125C15.9246 19.8566 15.7521 19.2831 15.57 18.7186C15.3273 17.9634 15.0888 17.2072 14.848 16.4516C14.8246 16.3784 14.7959 16.3082 14.7486 16.1748C14.6913 16.3416 14.6502 16.4544 14.6139 16.5682C14.2282 17.777 13.846 18.9872 13.458 20.195C13.2926 20.7093 13.0155 21.1299 12.4545 21.2838C11.7306 21.4817 11.0554 21.2208 10.7285 20.5396C10.4624 19.9842 10.2689 19.3925 10.0596 18.8108C9.47946 17.1905 8.90605 15.5681 8.33933 13.9436C8.26504 13.718 8.20393 13.4881 8.15632 13.2554C7.94463 12.3238 8.6571 11.9223 9.26921 11.8931C9.91095 11.8635 10.3467 12.1828 10.5398 12.8199C11.0033 14.3533 11.4662 15.8863 11.9284 17.419C11.9508 17.4935 11.9762 17.5681 12.0149 17.6943C12.1104 17.3999 12.1907 17.1527 12.2681 16.9047C12.6848 15.573 13.1016 14.2411 13.5186 12.9088C13.662 12.4605 13.8804 12.0738 14.3788 11.9371C15.1022 11.7383 15.7048 12.0456 15.9465 12.7626C16.2003 13.5139 16.4273 14.2744 16.6633 15.031C16.9362 15.9005 17.208 16.7704 17.5019 17.7105C17.7944 16.7436 18.0653 15.8488 18.3353 14.9536C18.5594 14.2094 18.7754 13.4628 19.0085 12.721C19.1997 12.1106 19.7779 11.7861 20.4187 11.9084C21.0594 12.0308 21.4556 12.5164 21.381 13.1483ZM30.212 16.7976C30.1422 17.1704 29.8775 17.4118 29.5 17.4668C29.3427 17.4896 29.184 17.5009 29.025 17.5007C27.4348 17.5029 25.8442 17.5029 24.2533 17.5007H23.9523C24.033 18.0934 24.3054 18.5365 24.7828 18.8295C25.5411 19.2955 26.3596 19.3691 27.182 19.0407C27.6599 18.8495 28.1019 18.5761 28.5677 18.3553C29.0628 18.1206 29.4971 18.2296 29.8154 18.6464C30.1088 19.0288 30.1317 19.4747 29.8283 19.8528C29.6517 20.0772 29.4394 20.2709 29.1999 20.4264C27.8949 21.2475 26.4719 21.5477 24.9558 21.2375C23.3846 20.9163 22.3004 19.9766 21.7609 18.47C21.208 16.9271 21.3352 15.4191 22.1967 14.0096C23.8056 11.3808 27.3822 11.2006 29.263 13.6463C29.8441 14.402 30.1891 15.2514 30.2512 16.2054C30.2626 16.4037 30.2494 16.6026 30.212 16.7976ZM38.7845 17.4668C37.1534 17.469 35.5226 17.469 33.8918 17.4668H33.6166C33.7021 18.3047 34.3143 18.9375 35.1935 19.1354C35.8812 19.2988 36.6048 19.206 37.2291 18.8744C37.5607 18.7028 37.8828 18.5121 38.2187 18.3486C38.8776 18.0322 39.539 18.363 39.7 19.0775C39.775 19.4121 39.6441 19.6865 39.4367 19.9312C39.1022 20.3289 38.6626 20.5884 38.1943 20.7915C37.0078 21.3049 35.7836 21.5056 34.5126 21.1992C32.971 20.8269 31.9117 19.8839 31.4119 18.3854C30.8275 16.6337 31.0482 14.966 32.2189 13.5101C33.9869 11.3115 37.1885 11.3784 38.9235 13.6191C39.538 14.4116 39.9059 15.302 39.9222 16.3172C39.9365 17.1174 39.5906 17.4668 38.7845 17.4668ZM48.4516 19.8628C47.5098 21.0688 45.9951 21.6175 44.6428 21.2399C44.0746 21.0807 43.5982 20.7839 43.2317 20.2605C43.2021 20.3413 43.1839 20.3924 43.1639 20.4436C42.945 21.0449 42.5016 21.313 41.8412 21.2427C41.3156 21.1878 40.9037 20.7705 40.821 20.2022C40.7998 20.0611 40.7887 19.9186 40.788 19.7758C40.7861 16.3596 40.7861 12.9439 40.788 9.52862C40.7847 9.34613 40.8008 9.16381 40.8358 8.98469C40.9658 8.39105 41.4341 8.02445 42.0142 8.04309C42.6057 8.06221 43.0559 8.45988 43.1553 9.06451C43.1819 9.23704 43.1946 9.41142 43.1935 9.58598C43.1968 10.6179 43.1935 11.6494 43.1935 12.7105C43.2474 12.6847 43.2999 12.656 43.3507 12.6244C45.0991 11.3564 47.3679 11.7445 48.5869 13.5216C49.8794 15.4005 49.8197 18.1106 48.4516 19.8638V19.8628ZM52.8616 19.9317C52.8628 20.0823 52.8467 20.2325 52.8138 20.3795C52.6628 21.0219 52.1821 21.3732 51.5237 21.3355C50.9445 21.3011 50.4791 20.8307 50.4175 20.2132C50.4046 20.0794 50.4041 19.9436 50.4041 19.8088C50.4041 18.0999 50.4041 16.3912 50.4041 14.6826C50.4041 12.9584 50.4041 11.234 50.4041 9.5095C50.3987 9.33502 50.4125 9.16048 50.4452 8.98899C50.5971 8.32605 51.0931 7.97426 51.7755 8.02779C52.3437 8.07224 52.8005 8.56121 52.8511 9.18114C52.8578 9.26048 52.8597 9.3403 52.8597 9.42012C52.861 12.923 52.8616 16.4269 52.8616 19.9317ZM61.8928 13.6224C61.5755 14.435 61.2487 15.2442 60.9252 16.0544C59.8895 18.6402 58.8544 21.2254 57.8197 23.8099C57.7601 23.9655 57.6872 24.1157 57.6018 24.2587C57.2291 24.8586 56.639 25.0359 55.99 24.752C55.4611 24.5202 55.2198 24.0236 55.4166 23.4056C55.6298 22.7426 55.9093 22.1012 56.1616 21.4507C56.2906 21.1161 56.5252 20.7872 56.5262 20.455C56.5271 20.1229 56.3002 19.7888 56.1673 19.458C55.4155 17.5805 54.6636 15.7031 53.9114 13.8256C53.8435 13.6648 53.7945 13.4967 53.7652 13.3247C53.6773 12.7124 53.9941 12.2296 54.5847 12.0514C54.8653 11.9638 55.1683 11.9827 55.4357 12.1046C55.7032 12.2265 55.9164 12.4427 56.0345 12.7119C56.2696 13.2664 56.4645 13.8385 56.6705 14.4039C57.0422 15.4144 57.4121 16.4253 57.7987 17.4806C58.007 16.9549 58.1991 16.4692 58.3907 15.9836C58.8045 14.9364 59.2145 13.8872 59.6331 12.8414C59.9728 11.9926 60.9304 11.734 61.6023 12.3032C61.9927 12.633 62.0983 13.0881 61.8895 13.6239L61.8928 13.6224Z" fill="#069BD6"/>
<path d="M43.6761 14.922C43.0387 15.878 43.086 17.4682 43.7789 18.3878C44.4631 19.2959 45.7251 19.3337 46.4548 18.4609C46.8848 17.9452 47.0406 17.3286 47.076 16.6618C47.0435 16.0195 46.9039 15.399 46.5121 14.8589C45.7863 13.8547 44.3647 13.8877 43.6761 14.922Z" fill="#069BD6"/>
<path d="M25.8576 13.9017C24.8948 13.9662 23.9912 14.9126 24.082 15.773H27.9248C27.9066 14.6784 26.9533 13.8281 25.8576 13.9017Z" fill="#069BD6"/>
<path d="M35.486 13.8992C34.5022 13.9351 33.6526 14.7921 33.6406 15.7633H37.5111C37.4165 14.6191 36.5841 13.8596 35.486 13.8992Z" fill="#069BD6"/>
</svg>
