<svg width="88" height="33" viewBox="0 0 88 33" fill="none" xmlns="http://www.w3.org/2000/svg">
<rect width="88" height="32" rx="6" transform="matrix(1 0 0 -1 0 32.4348)" fill="white"/>
<path d="M30.8524 21.8955L31.7642 19.7172C32.7494 20.4736 34.0583 20.8669 35.3524 20.8669C36.3083 20.8669 36.9112 20.4887 36.9112 19.9138C36.8965 18.3104 31.1906 19.5659 31.1465 15.5421C31.1318 13.4999 32.8965 11.9267 35.3965 11.9267C36.8818 11.9267 38.3671 12.3049 39.4259 13.1671L38.573 15.3908C37.6024 14.7555 36.3965 14.3017 35.2495 14.3017C34.47 14.3017 33.9553 14.6798 33.9553 15.1639C33.97 16.7371 39.7201 15.8749 39.7789 19.7172C39.7789 21.8047 38.0583 23.2721 35.5877 23.2721C33.7789 23.2721 32.1171 22.8334 30.8524 21.8955Z" fill="black"/>
<path d="M65.8367 18.9306C65.3808 19.7474 64.5279 20.3072 63.5426 20.3072C62.0867 20.3072 60.9102 19.097 60.9102 17.5994C60.9102 16.1018 62.0867 14.8916 63.5426 14.8916C64.5279 14.8916 65.3808 15.4513 65.8367 16.2682L68.3514 14.8311C67.4102 13.1066 65.6014 11.9267 63.5426 11.9267C60.4984 11.9267 58.0278 14.4681 58.0278 17.5994C58.0278 20.7307 60.4984 23.2721 63.5426 23.2721C65.6161 23.2721 67.4102 22.1073 68.3514 20.3677L65.8367 18.9306Z" fill="black"/>
<path d="M44.19 7.22216H41.0429V23.0603H44.19V7.22216Z" fill="black"/>
<path d="M69.5882 7.22216V23.0603H72.7353V18.3104L76.4706 23.0603H80.5L75.75 17.4179L80.1471 12.1536H76.2941L72.7353 16.5254V7.22216H69.5882Z" fill="black"/>
<path d="M53.5432 18.9608C53.0873 19.7323 52.1461 20.3072 51.0873 20.3072C49.6314 20.3072 48.4549 19.097 48.4549 17.5994C48.4549 16.1018 49.6314 14.8916 51.0873 14.8916C52.1461 14.8916 53.0873 15.4967 53.5432 16.2833V18.9608ZM53.5432 12.1536V13.4394C53.0285 12.5469 51.749 11.9267 50.4108 11.9267C47.6461 11.9267 45.4696 14.4378 45.4696 17.5843C45.4696 20.7307 47.6461 23.2721 50.4108 23.2721C51.749 23.2721 53.0285 22.6519 53.5432 21.7594V23.0452H56.6902V12.1536H53.5432Z" fill="black"/>
<path d="M11.3986 18.9459C11.3986 20.0501 10.531 20.9426 9.45743 20.9426C8.3839 20.9426 7.51625 20.0501 7.51625 18.9459C7.51625 17.8416 8.3839 16.9491 9.45743 16.9491H11.3986V18.9459Z" fill="#E01E5A"/>
<path d="M12.37 18.9461C12.37 17.8418 13.2377 16.9493 14.3112 16.9493C15.3848 16.9493 16.2524 17.8418 16.2524 18.9461V23.938C16.2524 25.0423 15.3848 25.9348 14.3112 25.9348C13.2377 25.9348 12.37 25.0423 12.37 23.938V18.9461Z" fill="#E01E5A"/>
<path d="M14.3087 10.9284C13.2351 10.9284 12.3675 10.0359 12.3675 8.9316C12.3675 7.82732 13.2351 6.93481 14.3087 6.93481C15.3822 6.93481 16.2498 7.82732 16.2498 8.9316V10.9284H14.3087Z" fill="#36C5F0"/>
<path d="M14.3088 11.9419C15.3824 11.9419 16.25 12.8344 16.25 13.9387C16.25 15.043 15.3824 15.9355 14.3088 15.9355H9.44118C8.36765 15.9355 7.5 15.043 7.5 13.9387C7.5 12.8344 8.36765 11.9419 9.44118 11.9419H14.3088Z" fill="#36C5F0"/>
<path d="M22.0887 13.9388C22.0887 12.8345 22.9564 11.942 24.0299 11.942C25.1035 11.942 25.9711 12.8345 25.9711 13.9388C25.9711 15.043 25.1035 15.9355 24.0299 15.9355H22.0887V13.9388Z" fill="#2EB67D"/>
<path d="M21.1176 13.9387C21.1176 15.043 20.25 15.9355 19.1764 15.9355C18.1029 15.9355 17.2352 15.043 17.2352 13.9387V8.9316C17.2352 7.82732 18.1029 6.93481 19.1764 6.93481C20.25 6.93481 21.1176 7.82732 21.1176 8.9316V13.9387Z" fill="#2EB67D"/>
<path d="M19.1764 21.9412C20.2499 21.9412 21.1176 22.8337 21.1176 23.938C21.1176 25.0423 20.2499 25.9348 19.1764 25.9348C18.1029 25.9348 17.2352 25.0423 17.2352 23.938V21.9412H19.1764Z" fill="#ECB22E"/>
<path d="M19.1764 20.9426C18.1029 20.9426 17.2352 20.0501 17.2352 18.9459C17.2352 17.8416 18.1029 16.9491 19.1764 16.9491H24.0441C25.1176 16.9491 25.9853 17.8416 25.9853 18.9459C25.9853 20.0501 25.1176 20.9426 24.0441 20.9426H19.1764Z" fill="#ECB22E"/>
</svg>
