<svg width="96" height="48" viewBox="0 0 96 48" fill="none" xmlns="http://www.w3.org/2000/svg">
<path fill-rule="evenodd" clip-rule="evenodd" d="M6.91748 35.3747H9.37303V26.0543C9.37303 21.798 12.4064 18.5967 16.2702 18.5967C19.773 18.5967 20.2424 21.5144 20.2424 24.3883V35.3747H22.698V23.7335C22.698 19.2225 21.1091 16.6396 16.5952 16.6396C12.3341 16.6396 9.95081 20.4743 9.2647 22.1477H9.30302C9.30302 22.1477 9.33692 20.7505 9.33692 19.9501V17.0762H6.91748V35.3747Z" fill="#C9CED4"/>
<path fill-rule="evenodd" clip-rule="evenodd" d="M38.2016 18.639C36.721 17.2213 34.5916 16.6396 32.6066 16.6396C29.2844 16.6396 26.4316 18.3858 26.4316 21.7327C26.4316 27.7352 36.6621 26.6074 36.6621 30.6819C36.6621 32.6099 34.4844 33.6285 32.4622 33.6285C30.5825 33.6285 28.5821 32.9047 27.2091 31.6255L25.6821 33.1638C27.4151 34.9768 30.0103 35.8113 32.426 35.8113C36.001 35.8113 38.5649 33.6649 38.5649 30.6455C38.5649 24.6066 28.2983 25.8435 28.2983 21.6599C28.2983 19.6591 30.5844 18.8224 32.4983 18.8224C33.9482 18.8224 35.5957 19.3176 36.6787 20.1732L38.2016 18.639Z" fill="#C9CED4"/>
<path fill-rule="evenodd" clip-rule="evenodd" d="M56.0195 26.2436C56.0195 30.9001 53.3473 33.9634 50.1334 33.9634C46.4143 33.9634 44.356 29.9543 44.356 26.28C44.356 21.0779 47.2084 18.5239 50.2417 18.5239C53.6361 18.5239 56.0195 21.7691 56.0195 26.2436ZM58.5111 26.2073C58.5111 20.5686 55.5139 16.6396 50.6028 16.6396C47.7862 16.6396 45.4032 18.0584 44.2834 20.423H44.2115C44.2115 20.423 44.3199 19.8046 44.3199 19.0043V17.0762H41.9727V47.7023H44.4278V33.7741C44.4278 32.8282 44.3199 32.1734 44.3199 32.1734H44.3921C45.5838 34.4653 47.8223 35.8113 50.3862 35.8113C55.1167 35.8113 58.5111 32.0279 58.5111 26.2073Z" fill="#C9CED4"/>
<path fill-rule="evenodd" clip-rule="evenodd" d="M62.1235 12.4916H64.7957L67.4672 9.80029H64.795L62.1235 12.4916Z" fill="#C9CED4"/>
<path fill-rule="evenodd" clip-rule="evenodd" d="M62.1362 35.3747H64.5921V17.0762H62.1362V35.3747Z" fill="#C9CED4"/>
<path fill-rule="evenodd" clip-rule="evenodd" d="M69.7051 35.3747H72.1606V27.626C72.1606 23.9882 73.8575 19.368 77.938 19.368C78.2991 19.368 78.7328 19.4044 78.8408 19.4408V17.0034C78.5519 16.9307 78.1908 16.8943 77.8658 16.8943C75.0491 16.8943 72.9547 19.8922 72.0523 22.657H72.0538C72.0538 22.657 72.1241 21.2597 72.1241 20.4594V17.0762H69.7051V35.3747Z" fill="#C9CED4"/>
<path fill-rule="evenodd" clip-rule="evenodd" d="M93.3644 24.3523H81.5845C82.1623 20.6777 85.1669 18.6769 88.2002 18.6769C90.9085 18.6769 93.2196 20.5322 93.3644 24.3523ZM95.8557 25.0792C95.8557 20.5322 93.2918 16.6396 88.2724 16.6396C83.3613 16.6396 79.2808 20.2411 79.2808 26.2436C79.2808 31.8824 83.3978 35.8113 88.8141 35.8113C91.1978 35.8113 93.8335 34.829 95.5307 33.2648L94.4113 31.3731C92.9307 32.7191 90.8724 33.5554 88.8863 33.5554C85.1307 33.5554 81.5845 30.9725 81.4762 26.3164H95.7835C95.82 25.9159 95.8557 25.4797 95.8557 25.0792Z" fill="#C9CED4"/>
<path fill-rule="evenodd" clip-rule="evenodd" d="M65.0179 5.42009H62.6132L60.2085 2.99756H62.6136L65.0179 5.42009Z" fill="#C9CED4"/>
<path fill-rule="evenodd" clip-rule="evenodd" d="M68.0015 6.53369H70.1394L72.2766 8.68672H70.139L68.0015 6.53369Z" fill="#C9CED4"/>
<mask id="mask0_856_30648" style="mask-type:alpha" maskUnits="userSpaceOnUse" x="0" y="0" width="70" height="36">
<path d="M0 35.3747V0H34.914H69.828V35.3747H0Z" fill="white"/>
</mask>
<g mask="url(#mask0_856_30648)">
<path fill-rule="evenodd" clip-rule="evenodd" d="M69.8281 0H67.9569L66.0869 1.8839H67.9573L69.8281 0Z" fill="#C9CED4"/>
<path fill-rule="evenodd" clip-rule="evenodd" d="M2.65024 12.4916H-0.0219727L2.64951 9.80029H5.32172L2.65024 12.4916Z" fill="#C9CED4"/>
<path fill-rule="evenodd" clip-rule="evenodd" d="M-0.0219727 35.3747H2.43358V17.0762H-0.0219727V35.3747Z" fill="#C9CED4"/>
</g>
</svg>
