<svg width="105" height="32" viewBox="0 0 105 32" fill="none" xmlns="http://www.w3.org/2000/svg">
<rect width="105" height="32" rx="6" fill="white"/>
<path d="M51.875 20.4885L51.8803 20.48L51.875 20.4885Z" fill="#262A2D"/>
<path d="M49.7567 15.0349C49.7457 14.9276 49.7345 14.8206 49.7231 14.7137C49.7184 14.6748 49.7138 14.6359 49.7089 14.5977L49.6845 14.4817C49.6813 14.4527 49.6781 14.4237 49.6746 14.3947C49.6575 14.3173 49.6401 14.2398 49.623 14.1627L49.5987 14.0386C49.5894 14.0122 49.5804 13.9855 49.5714 13.9592C49.5673 13.94 49.5636 13.9209 49.5595 13.9012C49.5402 13.8432 49.5209 13.7852 49.5015 13.7272C49.4099 13.5126 49.3377 13.287 49.222 13.0861C49.048 12.7825 48.8415 12.496 48.6492 12.2019C48.6309 12.1793 48.613 12.1567 48.5947 12.1344L48.4514 11.9894L48.3337 11.8734L48.2409 11.7881L48.162 11.7241L48.0605 11.6464L47.8433 11.4869L47.7752 11.4411L47.6983 11.3984L47.6267 11.3558L47.4953 11.2848L47.3628 11.2134L47.3216 11.1963L47.0995 11.0995L47.0594 11.0783L47.027 11.0612L46.5679 10.9359L46.4809 10.9092L46.4249 10.9017L46.3379 10.8768L46.2527 10.8634L46.1178 10.8385L46.0172 10.8289L45.8432 10.8063L45.0022 10.7964L44.7702 10.8225C44.5451 10.8544 44.3181 10.8765 44.0956 10.9217C43.9374 10.9576 43.7822 11.0061 43.6316 11.0667C43.4156 11.1488 43.2036 11.2407 42.9902 11.33L42.6546 11.5196L42.5488 11.586L42.4795 11.6313L42.378 11.7041L42.3069 11.7536L41.985 12.0146L41.9291 12.0712L41.7806 12.2161C41.7533 12.2451 41.7258 12.2741 41.6982 12.3055L41.6402 12.3649L41.0263 13.2325C40.9918 13.2957 40.9573 13.3592 40.9225 13.4224C40.917 13.4363 40.9112 13.45 40.9057 13.4639C40.8477 13.5973 40.7892 13.7309 40.7302 13.8646C40.7029 13.9437 40.6758 14.0228 40.6487 14.1021C40.6159 14.2053 40.5833 14.3086 40.551 14.4118L40.5336 14.5081C40.524 14.5371 40.5147 14.5661 40.5046 14.5951L40.4968 14.653C40.4855 14.6986 40.4744 14.7441 40.4634 14.7896C40.4579 14.8224 40.4524 14.8552 40.4472 14.8879C40.4417 14.9123 40.4364 14.9363 40.4312 14.9607L40.4182 15.0897C40.3242 15.1332 40.3602 15.1991 40.3892 15.2637C40.3866 15.3119 40.3837 15.3597 40.3811 15.4087C40.3718 15.5146 40.3622 15.6207 40.3521 15.7277V16.2551C40.3608 16.3613 40.3697 16.4671 40.3787 16.5741C40.3813 16.6127 40.3837 16.6509 40.3863 16.6901L40.4153 16.8641C40.4456 17.2386 40.5372 17.6057 40.6864 17.9506L40.7636 18.1385L40.8027 18.2403L40.9326 18.5157C40.9805 18.6126 41.0173 18.7173 41.0776 18.8057C41.3966 19.2668 41.7264 19.7182 42.1854 20.0546L42.284 20.1346L42.331 20.1697L42.434 20.2486C42.7558 20.4919 43.1113 20.6873 43.4893 20.8285L43.5681 20.8535L43.607 20.8648L43.7787 20.9312L43.8367 20.9471L43.9106 20.9729L43.9541 20.9816L44.0411 21.0106L44.0991 21.0205L44.1847 21.0478L44.2427 21.0614L44.323 21.082L44.4465 21.0985L44.5625 21.1275L44.6478 21.1353L44.7928 21.1643L44.8798 21.1748L45.046 21.1971H46.1999L46.3336 21.1785L46.5093 21.1614L46.5673 21.1507L46.7094 21.1263L46.8544 21.0956L46.9327 21.0886H46.9878C47.078 21.0596 47.1691 21.0327 47.259 21.0017C47.5066 20.9147 47.7537 20.8277 48.0011 20.7407L48.2458 20.6308L48.3175 20.5942L48.508 20.493L48.9267 20.2454L49.0303 20.1732L49.0839 20.1367L49.2034 20.052L49.3957 19.9006L49.4931 19.8197L49.6746 19.6458C49.7466 19.5678 49.7416 19.5434 49.6378 19.4703C49.6021 19.4039 49.5697 19.3355 49.5299 19.2714C49.3916 19.0484 49.2463 18.8298 49.1115 18.6045C48.9285 18.2991 48.7522 17.9897 48.5738 17.6818C48.5315 17.6087 48.4868 17.6049 48.4265 17.6644C48.3666 17.7273 48.3031 17.7866 48.2363 17.8421C47.8566 18.1452 47.4344 18.3771 46.9893 18.5697C46.9121 18.603 46.824 18.6117 46.741 18.6317L46.6856 18.6401L46.6369 18.6691L46.5311 18.7016L46.4731 18.7094L46.3281 18.7413L45.6338 18.7779L45.3148 18.744L45.2585 18.737L45.1715 18.7126L45.115 18.7048L44.97 18.65L44.8943 18.6384L44.852 18.6265L44.6614 18.5517L44.5625 18.5073L44.4297 18.4354L44.1557 18.2513L44.0872 18.2L43.9231 18.0492L43.8686 17.9912L43.8297 17.9465L43.7218 17.8184L43.6856 17.7711L43.636 17.7012L43.5803 17.6163C43.3947 17.3225 43.2613 17.0093 43.2204 16.6617H49.5166C49.5601 16.6617 49.6071 16.6709 49.6456 16.657C49.672 16.6475 49.6865 16.6051 49.7065 16.5773L49.7222 16.372L49.7547 15.995L49.7599 15.85C49.7599 15.6272 49.7599 15.4042 49.7599 15.1811L49.7567 15.0349ZM44.0336 13.4613C44.6403 13.0263 45.3096 12.8755 46.012 13.1855C46.5856 13.4389 46.8419 13.9432 46.9376 14.5571H43.3092C43.4437 14.1099 43.6615 13.7278 44.0336 13.4613Z" fill="#262A2D"/>
<path d="M81.8271 11.0379C81.7871 11.0176 81.7471 10.9799 81.7068 10.9799C81.2465 10.9759 80.7862 10.9759 80.3261 10.9799C80.2849 10.9799 80.2443 11.0089 80.2034 11.0228L80.0584 11.0283L79.9134 11.0573L79.4361 11.2136L79.3076 11.2942L79.2612 11.3293L79.1333 11.4366C78.9225 11.6396 78.8355 11.9162 78.7096 12.1697C78.6977 12.2182 78.6856 12.2665 78.6734 12.3146L78.6621 12.3938L78.5661 12.644L78.5487 12.7131L78.4457 12.9871L78.4327 13.0323L78.2161 13.6297C78.2094 13.6526 78.2024 13.6755 78.1958 13.6984L78.0641 14.0246L77.7474 14.9458L77.7222 15.0221C77.7164 15.045 77.7106 15.0679 77.7051 15.0908C77.6726 15.1749 77.6403 15.259 77.6082 15.3431L77.5824 15.3831L77.5708 15.4165C77.5095 15.5904 77.4484 15.7634 77.3875 15.9352L77.3667 15.9932C77.3667 16.0115 77.364 16.0297 77.3626 16.0477C77.328 16.1409 77.2934 16.234 77.2588 16.327C77.2527 16.3496 77.2469 16.3722 77.2408 16.3948L77.1442 16.6471L77.1196 16.6871C77.1158 16.699 77.1117 16.7109 77.108 16.7228C77.0488 16.9037 76.9898 17.0847 76.9308 17.2659L76.9061 17.332C76.9061 17.3485 76.9061 17.3651 76.9041 17.3813L76.8551 17.6266C76.8713 17.5448 76.8877 17.4631 76.9041 17.3813L76.8351 17.5005L76.7664 17.4378L76.8142 17.6295L76.7664 17.4378L76.7568 17.3819L76.7063 17.2641L76.4822 16.5876L76.3778 16.3107C76.3749 16.2959 76.3717 16.2817 76.3688 16.2661L76.2658 15.9909L76.1049 15.5182C76.0802 15.4539 76.0556 15.3892 76.0312 15.3248C76.0277 15.3109 76.0245 15.2958 76.0214 15.2828L75.9175 15.0053C75.9138 14.9899 75.9103 14.9763 75.9068 14.9595L75.7876 14.6257C75.7783 14.6022 75.7693 14.5787 75.7604 14.5555C75.7362 14.4923 75.7123 14.4293 75.6887 14.3665C75.6823 14.3436 75.676 14.3207 75.6699 14.298L75.5286 13.9005L75.4544 13.7001L75.4254 13.6131C75.4219 13.5983 75.4184 13.5841 75.4147 13.5688L75.3103 13.2942L75.2932 13.2275C75.2778 13.1535 75.2717 13.0758 75.2447 13.0062C75.1949 12.8775 75.1328 12.7537 75.0757 12.6275L75.0652 12.5855L74.9617 12.3083C74.9017 12.1566 74.8556 11.9971 74.7778 11.855C74.6865 11.6869 74.5893 11.5123 74.4559 11.3792C74.2721 11.1956 74.0279 11.102 73.7681 11.0602L73.5941 11.0278L73.452 11.0217L71.736 11.0289C71.7329 11.0768 71.7271 11.1249 71.7271 11.1739C71.7271 11.8505 71.7271 12.5271 71.7271 13.2037V13.4536H72.1977L72.3679 13.5308C72.397 13.5728 72.4227 13.617 72.4448 13.663C72.6432 14.1774 72.8401 14.6924 73.0355 15.208C73.1768 15.5823 73.3136 15.9587 73.4523 16.3342L73.5601 16.5734L73.5714 16.6187L73.6787 16.8918C73.6831 16.9057 73.6872 16.9208 73.6915 16.933C73.6993 16.9582 73.7069 16.9835 73.7147 17.0084C73.8307 17.3172 73.9513 17.6252 74.0665 17.9346C74.3362 18.6575 74.6049 19.3809 74.8727 20.1047C74.9086 20.1841 74.9444 20.2637 74.98 20.3433C74.984 20.3587 74.9878 20.3741 74.9916 20.3894L75.0983 20.6617L75.1435 20.7905L75.212 20.9529C75.2177 20.9584 75.221 20.966 75.2212 20.974C75.2714 20.9943 75.3216 21.032 75.372 21.032C76.2853 21.0358 77.199 21.0349 78.1117 21.0349C78.3515 21.0349 78.366 21.0216 78.4037 20.7713C78.5603 20.348 78.717 19.9247 78.8738 19.5016L78.95 19.3119C78.9645 19.269 78.979 19.2249 78.9938 19.1832L79.0539 19.0382L79.1287 18.83C79.2279 18.5528 79.3256 18.275 79.4274 17.9989C79.5031 17.7933 79.5843 17.5898 79.6632 17.3853C79.7061 17.2837 79.7491 17.182 79.7922 17.0803L79.8044 17.0365L80.0219 16.4685L80.0436 16.4267L80.0558 16.3896L80.2956 15.7311C80.3314 15.64 80.3672 15.5489 80.4029 15.4576L80.5343 15.0943L80.6344 14.8481C80.6381 14.8333 80.6419 14.8191 80.6454 14.8037L80.7515 14.5318L80.7643 14.4851L80.8951 14.1516L80.9142 14.0803L80.9812 13.9205C80.9855 13.9057 80.9899 13.8915 80.994 13.8761L81.0957 13.6282L81.2323 13.4858L81.3681 13.4528H81.8271V11.0379Z" fill="#262A2D"/>
<path d="M72.6391 18.6013C72.6144 18.5833 72.59 18.5497 72.5651 18.5494C72.3001 18.5456 72.0347 18.5459 71.7694 18.5494C71.738 18.5543 71.7075 18.5641 71.6792 18.5784C71.5159 18.5714 71.4901 18.4624 71.4901 18.329C71.4901 16.3572 71.4909 14.3845 71.4924 12.4107C71.4811 12.3084 71.4698 12.2057 71.4582 12.1034C71.4582 12.0848 71.455 12.0662 71.4535 12.048C71.4825 11.9418 71.4686 11.849 71.3665 11.7853C71.303 11.4996 70.9895 11.1688 70.6659 11.1134L70.5647 11.0714L70.4626 11.0569L70.3176 11.0293L70.1456 11.0223L68.0637 11.0293L70.1456 11.0223C70.1088 11.0079 70.072 10.9812 70.0349 10.9809C69.3345 10.9783 68.6339 10.9809 67.9332 10.9771C67.823 10.9771 67.7882 11.0215 67.7929 11.125C67.7984 11.2842 67.7929 11.444 67.7929 11.6032C67.7929 12.1782 67.7929 12.7529 67.7955 13.3279C67.7955 13.3673 67.8306 13.4068 67.8491 13.4462L68.5724 13.4526L68.7174 13.5291C68.7255 13.5622 68.7334 13.5952 68.7412 13.6283C68.7345 13.969 68.7267 14.3097 68.7223 14.6505C68.7252 14.7113 68.7323 14.7718 68.7435 14.8317V18.777C68.742 19.1109 68.7407 19.4444 68.7397 19.7777C68.7397 19.7841 68.7531 19.7905 68.76 19.7968L68.7757 19.9363C68.7829 19.9668 68.7902 19.9969 68.7972 20.0274C68.8783 20.4913 69.1399 20.7949 69.5935 20.93L69.8078 20.9692L70.0244 20.9854C70.0697 21.0014 70.1149 21.0307 70.1604 21.031C70.9444 21.0339 71.7283 21.0339 72.512 21.031C72.5651 21.031 72.6553 21.0678 72.6443 20.9512C72.6427 20.1687 72.641 19.3854 72.6391 18.6013Z" fill="#262A2D"/>
<path d="M29.8316 19.7672C29.8316 19.4097 29.8316 19.0521 29.8316 18.6943C29.8316 18.6183 29.8333 18.5429 29.7257 18.5438L28.7415 18.5539C28.7171 18.5331 28.6925 18.5125 28.6678 18.4919L28.6435 18.3982C28.6406 18.3402 28.6351 18.2822 28.6351 18.2242C28.6316 16.2128 28.6283 14.2012 28.6252 12.1894C28.6159 12.1407 28.6066 12.0922 28.5962 12.0444L28.5901 11.9884L28.5611 11.9014C28.5559 11.8771 28.551 11.8527 28.546 11.8287C28.5263 11.7248 28.5301 11.61 28.4123 11.5543C28.3445 11.4761 28.2768 11.3977 28.2093 11.3192L28.0748 11.2197L27.9773 11.171L27.8161 11.1011L27.6285 11.0582L27.4835 11.0292L27.3402 11.0217L26.5604 11.0252L27.3402 11.0217C27.2987 11.0069 27.2576 10.9796 27.2158 10.9796C26.4345 10.9769 25.6533 10.9769 24.872 10.9796C24.8326 10.9796 24.7934 11.0112 24.754 11.0283L24.7517 11.0307C24.7346 11.0695 24.7024 11.1084 24.7024 11.1467C24.6995 11.8729 24.6995 12.5993 24.7024 13.3258C24.7024 13.3641 24.7354 13.4023 24.7528 13.4418L25.7098 13.4513L25.8165 13.4853L25.8661 13.5433C25.862 13.5624 25.8593 13.5817 25.858 13.6012C25.858 15.5924 25.8589 17.5825 25.8606 19.5717C25.8606 19.6164 25.8818 19.661 25.8931 19.7057C25.8905 20.2424 26.1605 20.7719 26.7324 20.9357L26.947 20.9705L27.1039 20.9836C27.1476 21.0016 27.1909 21.0349 27.2349 21.0349C28.0469 21.0381 28.8589 21.0349 29.6692 21.0401C29.8009 21.0401 29.8336 20.9911 29.8316 20.8691C29.8278 20.5022 29.8316 20.1343 29.8316 19.7672Z" fill="#262A2D"/>
<path d="M60.8924 19.5933C60.8924 19.2894 60.8924 18.9844 60.8924 18.6814C60.8924 18.606 60.8808 18.5451 60.7857 18.5459C60.4679 18.5494 60.1498 18.5526 59.8316 18.5555L59.7843 18.5216L59.7452 18.4534C59.7414 18.3908 59.7345 18.3282 59.7345 18.2658C59.7345 15.8107 59.7345 13.3557 59.7345 10.9006C59.7345 10.1517 59.7353 9.40279 59.7371 8.65389L59.7081 8.39292C59.7063 8.37436 59.7049 8.35552 59.7031 8.33667L59.5631 7.89997L59.5465 7.85996L59.5004 7.78573C59.4987 7.78579 59.4971 7.78545 59.4955 7.78474C59.494 7.78403 59.4927 7.78297 59.4916 7.78164C59.4906 7.78031 59.4898 7.77875 59.4895 7.7771C59.4892 7.77544 59.4892 7.77373 59.4897 7.7721L59.3543 7.61145L59.3253 7.58246L59.2594 7.52911L59.2099 7.49315L59.0779 7.41775L58.6299 7.28727L58.4559 7.26349H55.8169V9.66764C55.8523 9.68851 55.8871 9.72562 55.9233 9.72707C56.0726 9.73374 56.2229 9.73287 56.3725 9.72881C56.5053 9.72534 56.6381 9.71344 56.771 9.70533L56.887 9.72969C56.9135 9.78768 56.9399 9.84567 56.9664 9.90367C56.9664 10.454 56.9664 11.0043 56.9664 11.5545L56.8777 11.5597L56.8 11.4962L56.7309 11.4446L56.6834 11.4104L56.5584 11.3277C56.5566 11.3287 56.5545 11.3293 56.5525 11.3293C56.5504 11.3294 56.5483 11.3289 56.5464 11.328C56.5446 11.3271 56.5429 11.3258 56.5417 11.3241C56.5404 11.3224 56.5396 11.3205 56.5393 11.3184L56.4523 11.2654C56.3919 11.2288 56.3363 11.1784 56.2707 11.1581C55.9561 11.0609 55.6388 10.9722 55.3224 10.8806L55.1876 10.8423L55.0028 10.8261C54.9356 10.7304 54.8523 10.771 54.7708 10.7971H54.1038L53.8718 10.8243L53.3498 10.8872L53.2156 10.9215L53.0773 10.9861L52.885 11.0551L52.838 11.0673L52.5953 11.1729L52.4944 11.2152C52.4507 11.239 52.4068 11.2627 52.3627 11.2862L51.5872 11.8183L51.5246 11.8743C51.4214 11.9033 51.3413 11.959 51.319 12.0732L51.261 12.1338L51.2068 12.1953L51.1235 12.2924C51.1239 12.2943 51.1238 12.2962 51.1233 12.2981C51.1228 12.2999 51.1219 12.3016 51.1207 12.3031C51.1195 12.3046 51.118 12.3057 51.1163 12.3066C51.1145 12.3074 51.1127 12.3078 51.1108 12.3078L51.0612 12.3722C51.0003 12.4476 50.9392 12.5229 50.8779 12.5981L50.8242 12.6784L50.7648 12.7726L50.7088 12.8541L50.6152 13.0319C50.5724 13.1142 50.5297 13.1966 50.487 13.2789L50.4722 13.3224L50.3339 13.5854L50.0476 14.5423L50.0233 14.6699L50.0163 14.7456C50.005 14.8036 49.994 14.8616 49.9827 14.9196C49.9804 14.9486 49.9777 14.9758 49.9754 15.0039C49.9664 15.053 49.9577 15.102 49.9487 15.151C49.9461 15.1887 49.9432 15.2264 49.9406 15.2641C49.9308 15.367 49.9209 15.4696 49.9116 15.5726C49.9116 15.872 49.9116 16.1717 49.9116 16.4715C49.9215 16.5744 49.9311 16.6771 49.9406 16.78C49.9432 16.809 49.9456 16.8366 49.9482 16.865C49.958 16.9328 49.9676 17.0007 49.9772 17.068L49.9824 17.1239C49.994 17.1914 50.0057 17.259 50.0175 17.3269L50.0201 17.4072L50.0444 17.5006C50.0922 17.7042 50.1405 17.9077 50.1894 18.1113L50.239 18.2252C50.2413 18.2249 50.2435 18.2251 50.2457 18.2258C50.2478 18.2265 50.2497 18.2276 50.2513 18.2292C50.253 18.2308 50.2542 18.2327 50.2549 18.2348C50.2556 18.237 50.2559 18.2392 50.2556 18.2415L50.3547 18.4882C50.3614 18.5111 50.3678 18.534 50.3745 18.557L50.4397 18.6915C50.5777 18.9423 50.7007 19.2018 50.8573 19.4414C51.0523 19.7503 51.2973 20.0247 51.5823 20.2533L51.7618 20.3983L51.8123 20.436L51.8781 20.4824L52.0541 20.6004C52.0561 20.5997 52.0581 20.5995 52.0601 20.5997C52.0621 20.5999 52.0641 20.6005 52.0659 20.6014C52.0676 20.6023 52.0692 20.6036 52.0705 20.6052C52.0718 20.6068 52.0727 20.6086 52.0733 20.6105C52.1338 20.6461 52.1945 20.6817 52.2554 20.7172L52.334 20.7575C52.3788 20.7805 52.4236 20.8036 52.4683 20.8268L52.5669 20.8686L52.7989 20.9814C53.2222 21.1226 53.6529 21.2224 54.1038 21.218C54.1877 21.2954 54.4553 21.2957 54.5388 21.218L55.4378 21.0977L55.4979 21.0716L55.5559 21.0501L55.7278 20.9866L55.774 20.9759L56.1066 20.8283L56.1918 20.7816L56.2788 20.7314L56.3948 20.6633L56.5978 20.523L56.6445 20.4835L56.7141 20.4345L56.8861 20.2855L56.9745 20.2002L57.0035 20.1712L57.1071 20.1324L57.1715 20.2562C57.1839 20.293 57.1967 20.3298 57.2092 20.367L57.23 20.4029L57.268 20.4519L57.3536 20.5754L57.4362 20.6656L57.4989 20.7196L57.5821 20.7799L57.7346 20.8622H57.7462L57.7558 20.8686L57.9298 20.9336L57.9861 20.9504L58.085 20.9776L58.3358 20.9892L60.6636 20.9843L58.3358 20.9892C58.3808 21.0055 58.4257 21.0356 58.4709 21.0359C59.2235 21.0388 59.9763 21.0359 60.7292 21.0403C60.8597 21.0403 60.8942 20.993 60.8927 20.8703C60.889 20.4426 60.8924 20.0178 60.8924 19.5933ZM56.6727 17.6859C56.2901 18.4137 55.6846 18.7962 54.8645 18.8046C54.0444 18.813 53.418 18.4308 53.0755 17.6949C52.5405 16.5449 52.5245 15.3673 53.1492 14.2442C53.6752 13.3001 54.8193 12.9759 55.7742 13.4471C56.349 13.7307 56.6611 14.2326 56.8545 14.819C56.9774 15.2014 57.0357 15.6016 57.0267 16.0032C57.0192 16.5878 56.9496 17.159 56.6727 17.6859Z" fill="#262A2D"/>
<path d="M26.0943 9.90061C26.852 9.90264 27.6101 9.90061 28.3679 9.90293C28.4589 9.90293 28.4989 9.87075 28.4986 9.77622C28.4969 8.97503 28.4986 8.17384 28.4946 7.37265C28.4946 7.33756 28.4554 7.30248 28.4346 7.2674H26.0078V7.45646C26.0061 8.24305 26.0043 9.02973 26.0023 9.81652C25.9643 9.91859 26.0476 9.90061 26.0943 9.90061Z" fill="#262A2D"/>
<path d="M67.5578 10.9487C67.5537 10.9497 67.5493 10.9499 67.5451 10.9491C67.5408 10.9484 67.5368 10.9468 67.5332 10.9444L67.3882 10.9154L67.2742 10.9058C67.2478 10.8904 67.222 10.8629 67.1953 10.8623C67.0335 10.8582 66.8714 10.8582 66.7099 10.8623C66.6832 10.8623 66.6574 10.8913 66.6313 10.9061L66.5173 10.9156L66.4013 10.942C66.2384 10.985 66.0655 11.0064 65.9147 11.0754C65.6586 11.1914 65.4159 11.3405 65.1677 11.4756L65.0673 11.5513C65.067 11.5531 65.0663 11.5548 65.0653 11.5563C65.0642 11.5579 65.0629 11.5592 65.0614 11.5602C65.0598 11.5612 65.0581 11.5618 65.0563 11.5622C65.0545 11.5625 65.0526 11.5624 65.0508 11.562L64.9229 11.6704L64.5192 12.0784L64.4653 12.1463L64.4282 12.1924L64.3763 12.2588C64.3767 12.2632 64.3756 12.2676 64.373 12.2712C64.3704 12.2747 64.3667 12.2772 64.3624 12.2782L64.2919 12.3788C64.2922 12.3826 64.2911 12.3864 64.2887 12.3894C64.2863 12.3923 64.2829 12.3943 64.2791 12.3948L64.2342 12.4658C64.2353 12.4692 64.235 12.4729 64.2335 12.4761C64.2319 12.4793 64.2291 12.4818 64.2258 12.4829H64.1599C64.1599 12.4118 64.1589 12.3408 64.1567 12.2698C64.1811 12.0976 64.1741 11.9317 64.0622 11.7861L64.01 11.6638L63.9334 11.5298L63.8876 11.4666L63.7586 11.3315L63.5985 11.2184L63.33 11.1146L63.2285 11.0737L63.1264 11.0583L62.9524 11.0293L62.8396 11.0229C62.8068 11.0093 62.7743 10.9838 62.7416 10.9835C61.9682 10.9812 61.1949 10.9812 60.4216 10.9835C60.3891 10.9835 60.3569 11.0244 60.3247 11.0461V13.4506H61.3235L61.4206 13.4923C61.4371 13.5231 61.4537 13.5538 61.4699 13.5845C61.4581 13.6297 61.4501 13.6758 61.4461 13.7223C61.445 16.0981 61.445 18.4738 61.4461 20.8494C61.4461 21.0342 61.4461 21.0345 61.6326 21.0345C62.4446 21.0345 63.2559 21.0345 64.0666 21.0345C64.2571 21.0345 64.2574 21.0344 64.2574 20.8384C64.2574 19.5832 64.2574 18.3278 64.2574 17.072C64.2537 17.0208 64.2461 16.9699 64.2348 16.9198C64.2321 16.9459 64.229 16.972 64.2261 16.9981C64.229 16.972 64.2321 16.9459 64.2348 16.9198C64.2375 16.8038 64.24 16.6885 64.2423 16.5738L64.2713 16.3709C64.2751 16.3227 64.2785 16.2749 64.2823 16.2259L64.3893 15.6822C64.4256 15.4064 64.5488 15.1626 64.6706 14.9184L64.7469 14.7905L64.8156 14.6864L64.8904 14.5849L65.2695 14.19L65.3333 14.139L65.3831 14.1016L65.4501 14.0552C65.705 13.9021 65.9626 13.7562 66.2621 13.7072L66.3491 13.6823L66.4344 13.6738L66.6084 13.6463L67.1565 13.6483L67.3305 13.6724L67.4157 13.6808C67.4692 13.6993 67.5245 13.7116 67.5808 13.7173C67.5941 13.7173 67.6199 13.648 67.6202 13.6106C67.6221 12.7572 67.6221 11.9039 67.6202 11.0508C67.6179 11.018 67.5787 10.9835 67.5578 10.9487Z" fill="#262A2D"/>
<path d="M68.952 9.89986C69.6991 9.89986 70.4464 9.89986 71.1934 9.89783C71.2294 9.89783 71.2651 9.86101 71.301 9.84158V7.27448H68.8581V7.43889C68.8556 8.22625 68.8529 9.01352 68.85 9.80069C68.8149 9.90479 68.8877 9.89986 68.952 9.89986Z" fill="#262A2D"/>
<path d="M71.8401 10.9822C71.8053 10.9822 71.7708 11.0135 71.7363 11.0303L73.4522 11.0231C73.4201 11.0092 73.3882 10.9828 73.356 10.9825C72.8508 10.98 72.3455 10.9799 71.8401 10.9822Z" fill="#262A2D"/>
<path d="M40.1977 15.4685L40.1907 15.3235C40.2157 15.2418 40.2603 15.1577 40.1617 15.0916C40.1447 14.9651 40.1278 14.8387 40.111 14.7123L40.084 14.5963L40.0762 14.5383C40.0666 14.4997 40.0568 14.4612 40.0472 14.4223L40.0002 14.2086L39.9315 13.9874C39.926 13.9636 39.9208 13.9401 39.9155 13.9166L39.8106 13.6403C39.7984 13.6055 39.7859 13.5704 39.7734 13.5353L39.7465 13.4631L39.6963 13.35C39.6576 13.2727 39.6194 13.1954 39.5817 13.118L39.5055 12.9646L39.4382 12.8568L39.1958 12.4888L39.1496 12.4215C39.1457 12.421 39.1421 12.4189 39.1396 12.4158C39.1372 12.4126 39.136 12.4087 39.1363 12.4047L39.0371 12.2757L38.9965 12.2214L38.9142 12.131L38.9124 12.1292C38.8886 12.1037 38.8646 12.0785 38.8405 12.053L38.6224 11.8378L38.5319 11.7572L38.4336 11.6757L38.3878 11.6401L38.3202 11.5873C38.3182 11.5876 38.3161 11.5874 38.3141 11.5869C38.3121 11.5864 38.3102 11.5854 38.3085 11.5842C38.3069 11.5829 38.3055 11.5813 38.3045 11.5795C38.3035 11.5777 38.3028 11.5757 38.3026 11.5737L38.188 11.4933H38.1863L38.1135 11.4461L37.7808 11.2538L37.7066 11.2153L37.6063 11.1706L37.4465 11.0987C37.4445 11.0991 37.4425 11.099 37.4406 11.0984C37.4387 11.0979 37.4369 11.0969 37.4354 11.0955C37.434 11.0942 37.4328 11.0925 37.4321 11.0906C37.4314 11.0888 37.4312 11.0868 37.4314 11.0848L37.3963 11.0648L36.9674 10.9427L36.8804 10.9137L36.8244 10.9056L36.7084 10.874L36.6504 10.8661L36.4903 10.8357L36.3857 10.8279L36.1827 10.8012L35.4577 10.796L35.2257 10.8235C35.009 10.867 34.7886 10.8972 34.5766 10.9575C34.3646 11.0178 34.1677 11.1071 33.9639 11.1836L33.7757 11.288C33.7737 11.2915 33.7706 11.2943 33.7668 11.2958C33.7631 11.2973 33.7589 11.2976 33.7551 11.2964L33.5741 11.4104L32.9112 11.9289C32.9051 11.8633 32.9007 11.8175 32.8964 11.7717L32.7992 11.551C32.7951 11.5494 32.7917 11.5464 32.7895 11.5426C32.7873 11.5387 32.7866 11.5342 32.7873 11.5299C32.772 11.5078 32.7563 11.4861 32.7406 11.4643L32.7006 11.4139L32.5788 11.2979L32.5313 11.2599L32.3428 11.1555L32.2996 11.1387L32.0844 11.0671L31.924 11.0381L31.8344 11.0279L31.663 11.021C31.6212 11.0068 31.5795 10.9807 31.5377 10.9804C30.8259 10.9777 30.1138 10.9777 29.4016 10.9804C29.3607 10.9804 29.3195 11.0094 29.2786 11.0227C29.266 11.0621 29.2574 11.1027 29.2531 11.1439C29.2516 11.8772 29.2516 12.6105 29.2531 13.3439C29.2552 13.3784 29.2594 13.4126 29.2656 13.4466C29.5631 13.4466 29.8523 13.4448 30.1414 13.4466C30.2024 13.4516 30.2629 13.4613 30.3223 13.4756L30.3769 13.5278C30.3912 13.5927 30.4009 13.6586 30.4059 13.7249C30.4076 17.338 30.4082 20.951 30.4076 24.564C30.4076 24.6171 30.4102 24.6702 30.4114 24.7232C30.8788 24.7258 31.3466 24.7302 31.8144 24.7305C32.2578 24.7305 32.7015 24.7276 33.1449 24.7258L33.1571 24.6423C33.1623 24.5843 33.1719 24.5263 33.1719 24.4707C33.1719 23.1468 33.1725 21.8232 33.1736 20.4998C33.1781 20.4447 33.1873 20.3901 33.2012 20.3366C33.2286 20.369 33.256 20.4016 33.2832 20.4343L33.3151 20.4546L33.4311 20.516L33.5004 20.5642L33.6043 20.6346L33.7287 20.7115C33.7329 20.7107 33.7372 20.7115 33.7409 20.7136C33.7446 20.7157 33.7475 20.7191 33.749 20.7231L33.9769 20.8626C34.0024 20.8733 34.0282 20.884 34.0541 20.8953C34.3658 21.0322 34.6871 21.1363 35.0267 21.1772L35.2091 21.2021L35.4916 21.2108L35.5496 21.2128H35.8106H35.8686L36.1461 21.1998L36.3375 21.1725L36.4222 21.1633L36.5672 21.1328L36.6229 21.1261L36.7116 21.1009L37.2916 20.9322L37.6947 20.7486L37.7028 20.7411H37.7139L37.8098 20.6973L38.4922 20.2174L38.5931 20.1368L38.8515 19.8758L38.9385 19.7836L39.0017 19.7033L39.0522 19.6328C39.5029 19.0671 39.8253 18.4381 39.9921 17.7323C40.1081 17.5873 40.1249 17.4171 40.1139 17.2394L40.1635 16.8894C40.2627 16.8241 40.2171 16.7398 40.1942 16.6574L40.2006 16.5124C40.2157 16.486 40.2435 16.4599 40.2438 16.4336C40.2467 16.1368 40.2467 15.8402 40.2438 15.5436C40.2409 15.5207 40.2131 15.4946 40.1977 15.4685ZM36.9419 17.8904C36.2575 18.9195 34.8249 19.1207 33.9346 18.3082C33.5509 17.9582 33.3334 17.5067 33.2096 17.0126C33.0225 16.2654 33.0501 15.5193 33.2737 14.7819C33.5845 13.7571 34.4047 13.1792 35.4695 13.2581C36.1583 13.3091 36.6585 13.6788 37.0031 14.2634C37.3267 14.8118 37.4317 15.4158 37.4326 16.1375C37.4302 16.7018 37.3145 17.3301 36.9419 17.8904Z" fill="#262A2D"/>
<path d="M90.934 15.0057L90.9235 14.8755L90.8945 14.683L90.8867 14.5986C90.866 14.4921 90.8453 14.3857 90.8246 14.2796L90.5816 13.4523L90.4755 13.2076L90.4624 13.1673L90.3569 12.9762C90.2296 12.7761 90.1021 12.576 89.9744 12.376L89.921 12.3093L89.8839 12.2661L89.7737 12.1364C89.7261 12.0874 89.6783 12.0387 89.6307 11.9915L89.5417 11.9045L89.5127 11.8769L89.4176 11.792C89.3738 11.7459 89.3369 11.6887 89.2847 11.6551C89.1035 11.5391 88.917 11.4295 88.7337 11.3179L88.5426 11.2187L88.4429 11.1758L88.2799 11.105C87.9029 10.96 87.5091 10.8786 87.1097 10.8232L86.9067 10.7997H86.1527L85.9497 10.8246C85.6055 10.8864 85.2538 10.9218 84.9194 11.018C84.6349 11.0998 84.3684 11.2457 84.0981 11.3744C83.4694 11.6748 82.9697 12.1283 82.5582 12.6856L82.506 12.7561C82.5066 12.7579 82.5068 12.7598 82.5065 12.7617C82.5062 12.7636 82.5055 12.7654 82.5043 12.7669C82.5032 12.7684 82.5017 12.7696 82.4999 12.7704C82.4982 12.7712 82.4963 12.7716 82.4944 12.7715L82.4463 12.839C82.4472 12.8429 82.4467 12.847 82.4449 12.8506C82.4431 12.8541 82.4401 12.8569 82.4364 12.8585L82.3642 12.9637L82.2543 13.1467L82.2088 13.2027C82.1682 13.2908 82.1277 13.3789 82.0873 13.4668C82.0526 13.5384 82.0182 13.61 81.984 13.6817L81.9701 13.7278L81.8689 13.9725C81.8692 13.9748 81.869 13.9771 81.8683 13.9793C81.8676 13.9814 81.8664 13.9834 81.8649 13.9851C81.8633 13.9868 81.8614 13.9881 81.8593 13.9889C81.8572 13.9897 81.8549 13.9901 81.8526 13.9899L81.8373 14.0265C81.7694 14.3043 81.7017 14.582 81.6343 14.8596C81.6223 14.9274 81.6105 14.9951 81.5989 15.0625L81.5916 15.1469L81.5626 15.3499C81.5589 15.4079 81.5548 15.4639 81.551 15.521L81.5293 15.8898C81.5293 15.9754 81.5293 16.0612 81.5293 16.1467L81.551 16.4866C81.5548 16.5341 81.5589 16.5814 81.5626 16.6287C81.5716 16.6867 81.5803 16.7447 81.5893 16.8044C81.5919 16.8334 81.5943 16.8606 81.5966 16.8888L81.6256 17.0338C81.6291 17.0787 81.6328 17.1234 81.6363 17.1683L81.6627 17.2649C81.6636 17.298 81.668 17.331 81.676 17.3632C81.8139 17.7388 81.9526 18.1138 82.0922 18.4882L82.167 18.6002C82.1841 18.6326 82.2012 18.6651 82.218 18.6979L82.2621 18.773C82.2717 18.7744 82.2755 18.7797 82.2734 18.7889L82.3204 18.86C82.3241 18.8617 82.3271 18.8647 82.3287 18.8684C82.3304 18.8722 82.3306 18.8764 82.3294 18.8803L82.3793 18.9751C82.6306 19.2662 82.8828 19.5573 83.1359 19.8482L83.2855 19.9888C83.3127 20.02 83.3427 20.0487 83.3751 20.0744C83.6622 20.2632 83.9508 20.4496 84.2388 20.6369L84.4757 20.7413L84.4887 20.7375L84.5003 20.7442L84.6874 20.8231L84.79 20.8611L85.0925 20.9684L85.6299 21.0965L85.7459 21.1255L85.8021 21.1299L85.9761 21.1615L86.0614 21.1708L86.2551 21.1948L86.5866 21.2122C86.6736 21.2885 86.9056 21.2888 86.9926 21.2122L87.3696 21.207L87.5146 21.1832L87.6628 21.1603L87.8078 21.1313L87.8919 21.1209L87.9812 21.0988C88.2106 21.0513 88.4484 21.0266 88.6679 20.9501C88.9527 20.8509 89.223 20.7106 89.4996 20.5879L89.691 20.487L89.765 20.4461L89.8934 20.3693C89.8942 20.3674 89.8953 20.3657 89.8967 20.3643C89.8981 20.3629 89.8997 20.3617 89.9015 20.361C89.9034 20.3602 89.9054 20.3598 89.9073 20.3598C89.9093 20.3597 89.9113 20.3601 89.9132 20.3609L89.9819 20.3197L90.1089 20.242L90.2997 20.1112C90.4784 19.9596 90.6599 19.8105 90.833 19.6528C90.8606 19.6278 90.8693 19.5565 90.8551 19.5182C90.8299 19.4504 90.7791 19.3921 90.7411 19.3286C90.5008 18.9267 90.2607 18.5249 90.0208 18.1232C89.9172 17.9492 89.8105 17.7798 89.7018 17.6044C89.677 17.6156 89.6534 17.6294 89.6316 17.6456C89.3091 17.9573 88.9324 18.1904 88.5391 18.3995L88.2964 18.5085L88.1946 18.5471L88.1195 18.5781L88.0638 18.5941L87.9168 18.6387L87.8194 18.6651L87.7138 18.6976L87.6558 18.706L87.1338 18.7739H86.8148L86.4958 18.7408L86.4393 18.7344L86.3523 18.7086L86.2943 18.7008L86.1867 18.6686L86.1188 18.646L86.0855 18.6283C86.0008 18.6066 85.9057 18.6022 85.8332 18.5599C85.5165 18.3743 85.1987 18.1922 84.9632 17.8964C84.7756 17.658 84.6249 17.3928 84.516 17.1097L84.4438 16.8908C84.4394 16.8667 84.4348 16.8427 84.4302 16.8186L84.4058 16.7171C84.3768 16.5628 84.5003 16.6261 84.5549 16.6258C86.6069 16.6217 88.6588 16.6211 90.7107 16.624C90.8386 16.624 90.9026 16.593 90.8942 16.4602L90.9232 16.1804C90.9261 16.1179 90.9291 16.0556 90.9322 15.9933C91.027 15.6636 91.0175 15.3348 90.934 15.0057ZM84.4928 14.558C84.5575 14.2953 84.6784 14.0688 84.8283 13.8566C85.3347 13.1397 86.2313 12.9336 86.8925 13.0759C87.5537 13.2183 88.0604 13.8496 88.1073 14.558H84.4928Z" fill="#262A2D"/>
<path d="M24.9501 15.6117C24.9469 15.5349 24.9434 15.4581 24.9402 15.3798C24.9313 15.3024 24.9217 15.2251 24.9112 15.1478L24.9043 15.0625L24.8808 14.9161C24.8518 14.7671 24.8263 14.6166 24.7897 14.4693C24.7317 14.228 24.6633 13.9888 24.5995 13.7487C24.5763 13.6936 24.5533 13.6384 24.5305 13.5831C24.5267 13.5677 24.5229 13.5524 24.5189 13.537L24.4101 13.294C24.3885 13.263 24.3691 13.2304 24.3521 13.1966C24.1739 12.7905 23.9276 12.4179 23.6239 12.0947C23.4172 11.8703 23.1982 11.6534 22.9317 11.4945C22.8577 11.3709 22.7362 11.3263 22.6052 11.2979C22.4445 11.221 22.2911 11.1201 22.1223 11.0723C21.7778 10.9745 21.4263 10.9055 21.076 10.8246L20.873 10.7985H20.206C20.1245 10.773 20.0407 10.7298 19.974 10.8275C19.2287 10.9241 18.5463 11.1708 17.973 11.6719C17.9544 11.6913 17.9356 11.7105 17.9167 11.7299L17.8857 11.7589L17.7987 11.8439L17.7674 11.8729L17.6224 11.7259L17.5354 11.5333L17.489 11.4672C17.487 11.467 17.485 11.4664 17.4832 11.4655C17.4815 11.4645 17.4799 11.4632 17.4786 11.4617C17.4773 11.4601 17.4764 11.4583 17.4758 11.4564C17.4753 11.4544 17.4751 11.4524 17.4754 11.4504L17.3251 11.3008C17.1639 11.1537 16.9545 11.1204 16.7567 11.0595L16.5827 11.0291L16.4377 11.0227C16.4012 11.0076 16.3649 10.98 16.3284 10.98C15.5893 10.9772 14.8502 10.9772 14.1111 10.98C14.074 10.98 14.0371 11.016 14 11.0351V13.4477C14.3135 13.4477 14.6073 13.4433 14.901 13.4509C14.9712 13.4526 15.0402 13.4935 15.1098 13.5161C15.1217 13.5503 15.1339 13.5843 15.1461 13.6182C15.1478 13.6713 15.1516 13.7243 15.1516 13.7771C15.1516 15.55 15.1516 17.3227 15.1516 19.0952C15.1516 20.9742 15.1526 22.8531 15.1545 24.7319C16.0289 24.7342 16.9034 24.7358 17.7778 24.7365C17.8161 24.7365 17.8544 24.7075 17.8938 24.693V24.5741C17.8938 24.5649 17.8909 24.5556 17.8895 24.5451C17.8863 24.5266 17.8831 24.5077 17.8811 24.4889C17.8831 24.5077 17.8863 24.5266 17.8895 24.5451C17.8895 24.5547 17.8927 24.564 17.8938 24.5741C17.9048 24.524 17.912 24.4731 17.9156 24.4219C17.9171 23.6019 17.9171 22.7817 17.9156 21.9615C17.9156 21.4564 17.9156 20.9513 17.9199 20.4461C17.9199 20.4197 17.9579 20.3934 17.9779 20.367L17.9582 20.3478L17.9127 20.3037L17.9582 20.3478L17.9779 20.367L18.0574 20.4305L18.1154 20.487L18.6646 20.8309L18.7325 20.8599H18.7435L18.7522 20.8669C18.915 20.9969 19.1141 21.0732 19.3221 21.0852L19.4186 21.1023L19.5056 21.1293L19.5636 21.1368L19.6796 21.1641L19.7666 21.1806L19.9148 21.2131L20.2338 21.2183H20.6108C20.8272 21.198 21.0458 21.1971 21.2584 21.1528C21.5187 21.1018 21.7735 21.0259 22.0194 20.9263C22.3183 20.8002 22.5994 20.6329 22.8894 20.4832L22.9616 20.4342L22.9633 20.4328L23.1918 20.2559L23.2243 20.2286L23.3032 20.1599L23.5613 19.9053L23.6808 19.7841C23.8385 19.5649 23.9964 19.3459 24.1543 19.1271L24.2564 18.9647C24.2709 18.9319 24.2854 18.8991 24.2996 18.8661C24.324 18.8217 24.3481 18.7771 24.3721 18.7327L24.4171 18.6344C24.4397 18.5888 24.4625 18.5432 24.4855 18.4978C24.5351 18.3586 24.589 18.2206 24.6337 18.0794C24.6865 17.9127 24.7352 17.7445 24.7787 17.5751C24.8147 17.4362 24.8405 17.295 24.8709 17.155L24.9057 16.923L24.9121 16.8377L24.9411 16.6058C24.9443 16.5385 24.9472 16.4715 24.9504 16.4042C24.9631 16.3752 24.9863 16.3462 24.9869 16.319C24.99 16.1129 24.99 15.9066 24.9869 15.7002C24.9861 15.6686 24.9629 15.6402 24.9501 15.6117ZM22.1591 16.4457C22.118 16.9471 21.9828 17.4197 21.712 17.8521C20.9379 19.0876 18.9973 19.2236 18.2117 17.6897C17.9414 17.1622 17.8347 16.5994 17.8347 16.0018C17.8497 15.4169 17.9266 14.8361 18.2233 14.3069C18.6101 13.6162 19.2043 13.2566 19.9946 13.247C20.7671 13.2378 21.3474 13.5924 21.7378 14.2498C22.1406 14.9283 22.2224 15.6755 22.1591 16.4457Z" fill="#262A2D"/>
<path d="M49.7622 15.179C49.7622 15.4019 49.7622 15.6249 49.7622 15.848C49.7747 15.8413 49.7979 15.8349 49.7979 15.8283C49.7998 15.6187 49.7998 15.409 49.7979 15.199C49.7985 15.1924 49.7747 15.1857 49.7622 15.179Z" fill="#262A2D"/>
<path d="M59.5649 7.89972L59.705 8.33642C59.712 8.17374 59.6838 8.02209 59.5649 7.89972Z" fill="#262A2D"/>
<path d="M20.6114 21.2159H20.2344C20.3202 21.2921 20.5261 21.2916 20.6114 21.2159Z" fill="#262A2D"/>
<path d="M49.7231 14.7137C49.7344 14.8206 49.7456 14.9277 49.7568 15.035C49.7855 14.9236 49.8316 14.8105 49.7231 14.7137Z" fill="#262A2D"/>
</svg>
