<svg width="185" height="58" viewBox="0 0 185 58" fill="none" xmlns="http://www.w3.org/2000/svg">
<rect x="0.682129" y="0.217407" width="184" height="57" rx="8.57609" fill="white"/>
<g clip-path="url(#clip0_602_33232)">
<path d="M39.7871 12.2174C40.8805 12.5184 41.997 12.7614 43.0655 13.124C50.2046 15.6334 54.5143 22.645 53.8025 30.5469C53.1617 37.6709 47.3859 43.7687 40.2273 44.8874C39.6647 44.9744 39.1055 45.1014 38.5446 45.2101H36.7696C36.5677 45.1263 36.3585 45.062 36.1448 45.0179C29.2756 44.2129 23.7749 39.2992 22.1223 32.4924C21.991 31.9485 21.8295 31.4209 21.6821 30.886V26.353C21.8002 26.0624 21.9021 25.7651 21.9874 25.4627C23.4974 18.8216 27.4615 14.5697 33.8799 12.707C34.4852 12.5256 35.0958 12.3751 35.7046 12.2101L39.7871 12.2174ZM53.1369 28.6503C53.1364 24.4958 51.5226 20.5112 48.6494 17.5708C45.7763 14.6304 41.8786 12.9744 37.8116 12.9662C29.3324 12.9662 22.3975 20.0377 22.4152 28.6975C22.4347 37.3119 29.3572 44.3362 37.8133 44.3199C39.8269 44.3194 41.8206 43.9136 43.6805 43.1258C45.5405 42.338 47.2303 41.1835 48.6533 39.7283C50.0764 38.2731 51.2048 36.5458 51.9741 34.645C52.7434 32.7442 53.1385 30.7072 53.1369 28.6503Z" fill="#504D4C"/>
<path d="M163.682 33.613C162.489 36.2766 159.759 36.9674 157.084 35.2249L156.197 36.2476L155.987 36.0789V31.8923C156.616 31.5695 156.625 32.0954 156.733 32.4653C157.255 34.2349 158.566 35.205 160.283 35.0962C161.023 35.0491 161.623 34.7571 161.848 33.9956C162.065 33.2703 161.744 32.6466 161.138 32.2858C160.176 31.7037 159.161 31.2123 158.164 30.692C157.166 30.1716 156.305 29.4789 156.034 28.2931C155.57 26.2406 157.454 24.4492 159.722 24.8027C160.407 24.9097 161.06 25.218 161.735 25.4373C161.955 25.1926 162.209 24.9115 162.461 24.6287C162.535 24.6794 162.61 24.7302 162.683 24.7828V28.4327C162.006 28.7337 162.019 28.1807 161.896 27.809C161.433 26.3802 160.544 25.7057 159.22 25.7945C158.561 25.8399 157.977 26.0575 157.773 26.77C157.569 27.4826 157.959 28.0012 158.54 28.3276C159.367 28.7936 160.208 29.2342 161.067 29.6312C162.228 30.1752 163.165 30.9204 163.657 32.1697L163.682 33.613Z" fill="#4B4848"/>
<path d="M93.5874 31.3175C94.592 32.3474 95.5239 33.39 96.5481 34.322C96.9045 34.644 97.3265 34.8809 97.7836 35.0158C98.2408 35.1506 98.7215 35.18 99.1911 35.1017C99.8762 35.0128 100.318 34.681 100.359 33.9775C100.435 32.7083 100.471 31.4499 100.485 30.1843C100.497 29.1889 100.485 28.1898 100.423 27.1998C100.373 26.3313 99.9437 25.8091 99.0207 25.7819C98.8325 25.7819 98.6497 25.5498 98.4633 25.4192C98.6408 25.3213 98.8307 25.1364 99.0136 25.1382C101.229 25.1654 103.451 25.0874 105.654 25.2978C109.145 25.6278 111.13 28.5452 110.269 31.8851C109.68 34.1479 108.032 35.205 105.909 35.5822C105.004 35.7172 104.089 35.7778 103.174 35.7635C100.751 35.787 98.3266 35.7399 95.8967 35.7925C95.5946 35.8154 95.292 35.755 95.0207 35.6175C94.7493 35.48 94.5191 35.2705 94.3542 35.011C93.575 33.9485 92.7567 32.9186 91.9278 31.8941C91.7053 31.6634 91.4616 31.4552 91.2 31.2722L90.8965 31.4227C90.9835 32.3909 90.9746 33.3828 91.2053 34.3129C91.2905 34.652 91.942 34.8569 92.3467 35.0944C92.5822 35.2228 92.8239 35.339 93.0709 35.4425L92.9644 35.7127C92.7946 35.7414 92.6233 35.7601 92.4514 35.7689C90.5936 35.7689 88.7351 35.7689 86.8761 35.7689L86.7412 35.5006C86.9347 35.37 87.114 35.1633 87.3252 35.1198C88.4381 34.8859 88.7452 34.6175 88.7665 33.4498C88.8079 31.459 88.8079 29.4645 88.7665 27.4663C88.7434 26.2515 88.4559 25.9976 87.2666 25.7692C87.0891 25.7347 86.9578 25.5262 86.8051 25.4066C86.9595 25.3123 87.1157 25.1364 87.2684 25.1382C89.3345 25.1618 91.4095 25.1146 93.4649 25.2996C94.2495 25.3703 95.1263 25.8272 95.7227 26.3784C97.0575 27.6078 96.6244 29.7818 94.9595 30.7119C94.5441 30.9477 94.0933 31.0963 93.5874 31.3175ZM102.64 26.179C102.64 28.5687 102.64 30.8842 102.64 33.1996C102.64 34.5668 102.871 34.7771 104.189 34.7535C104.367 34.7535 104.544 34.739 104.722 34.7245C106.564 34.5758 107.665 33.4226 107.928 31.3719C108.244 28.9024 107.445 27.0203 105.806 26.3947C105.533 26.2817 105.245 26.212 104.951 26.188C104.209 26.159 103.474 26.179 102.64 26.179ZM90.9781 30.2804C92.7336 30.4617 93.5164 30.2296 93.9832 29.401C94.4216 28.6231 94.3702 27.5062 93.8359 26.8444C93.0531 25.8707 92.013 26.1409 90.9781 26.1681V30.2804Z" fill="#07789C"/>
<path d="M129.872 31.3429C131.091 32.4925 132.192 33.5641 133.335 34.5831C133.645 34.8162 134.003 34.9731 134.382 35.0418C135.577 35.341 136.317 34.817 136.347 33.5641C136.397 31.5097 136.393 29.4554 136.347 27.3992C136.324 26.2189 136.038 25.985 134.876 25.7837C134.677 25.7474 134.508 25.5298 134.325 25.3957L134.469 25.1708H143.557C143.635 26.1572 143.713 27.1073 143.79 28.0574L143.562 28.2061C143.419 28.0103 143.191 27.8344 143.145 27.6168C142.93 26.5688 142.247 26.1862 141.287 26.1663C140.433 26.1518 139.577 26.1663 138.656 26.1663V29.6113C139.128 29.6113 139.595 29.6458 140.053 29.6113C140.779 29.5442 141.164 29.1399 141.17 28.3584C141.17 28.1771 141.358 27.9958 141.457 27.8145C141.574 28.0067 141.786 28.1952 141.791 28.3874C141.821 29.6258 141.816 30.8661 141.791 32.1045C141.791 32.2513 141.601 32.3964 141.498 32.5414C141.386 32.4363 141.21 32.3492 141.173 32.2205C140.738 30.7228 140.481 30.5669 138.665 30.77C138.665 31.7201 138.619 32.6774 138.681 33.6275C138.725 34.3129 139.159 34.7155 139.863 34.7245C140.454 34.7245 141.047 34.7245 141.638 34.7372C142.767 34.7535 143.61 34.3746 143.814 33.1053C143.847 32.9922 143.909 32.8898 143.992 32.808C144.02 32.7735 144.1 32.7808 144.347 32.7318C144.299 33.7599 144.253 34.7445 144.203 35.7834C140.738 35.7834 137.362 35.6565 134.002 35.8324C132.06 35.9339 130.671 35.4697 129.7 33.6964C129.286 32.944 128.659 32.3075 128.102 31.6421C127.99 31.5061 127.761 31.4717 127.586 31.3919C127.509 31.5732 127.374 31.7418 127.371 31.9195C127.359 32.4641 127.377 33.0088 127.424 33.5514C127.531 34.7372 127.724 34.9222 128.844 35.1343C129.068 35.176 129.265 35.3628 129.472 35.4842C129.433 35.5695 129.396 35.6565 129.357 35.7417H123.263L123.125 35.5278C123.315 35.3936 123.489 35.1814 123.698 35.1379C124.859 34.8968 125.133 34.6357 125.154 33.3918C125.186 31.4275 125.186 29.4639 125.154 27.5008C125.133 26.2678 124.847 26.0031 123.67 25.7928C123.492 25.7619 123.352 25.5625 123.194 25.441C123.34 25.3413 123.487 25.1491 123.631 25.1509C125.729 25.1763 127.836 25.1146 129.921 25.3014C131.977 25.4827 133.141 27.013 132.825 28.7464C132.635 29.7945 131.972 30.44 131.075 30.8769C130.766 31.0311 130.427 31.1308 129.872 31.3429ZM127.401 30.3203C128.525 30.342 129.659 30.585 130.376 29.4137C130.825 28.6884 130.77 27.508 130.252 26.8535C129.478 25.8762 128.43 26.1445 127.401 26.1572V30.3203Z" fill="#4E4B4A"/>
<path d="M65.3807 26.3766L62.1058 36.3491L61.836 36.36C61.7064 36.0572 61.5537 35.7635 61.4543 35.4534C60.3893 32.1317 59.3279 28.8075 58.27 25.4809C58.1511 25.1092 58.0179 24.7411 57.883 24.3748C57.5121 23.3631 56.889 22.685 55.753 22.6142C55.5454 22.6015 55.3483 22.3894 55.146 22.2679L55.2685 22.0177H62.0685L62.1963 22.2607C62.0011 22.3821 61.8182 22.5689 61.607 22.6106C60.1497 22.8971 59.9207 23.2253 60.3645 24.7048C61.0283 26.8807 61.7401 29.0565 62.6099 31.2323C63.0376 29.9504 63.4707 28.6703 63.895 27.3884C64.4062 25.8471 64.8961 24.2969 65.4339 22.7647C65.5351 22.4728 65.8102 22.2443 66.0037 21.9869C66.1812 22.2589 66.4456 22.5054 66.5468 22.8064C67.3988 25.3739 68.2224 27.9523 69.0567 30.5288C69.133 30.7681 69.2217 31.0057 69.4117 31.5242C70.2477 28.8679 71.0464 26.4818 71.7369 24.0648C71.9961 23.1582 71.6695 22.859 70.7163 22.6704C70.4112 22.5822 70.1143 22.4669 69.8288 22.3259C69.859 22.2298 69.8909 22.1337 69.9211 22.0376H75.7218L75.8212 22.2589C75.6295 22.3803 75.4396 22.6034 75.2461 22.607C73.8598 22.6342 73.1889 23.4954 72.7913 24.7067C71.6079 28.275 70.4305 31.844 69.259 35.4135C69.1543 35.7345 69.0229 36.0445 68.904 36.36L68.5969 36.3709L65.3807 26.3766Z" fill="#06779C"/>
<path d="M115.775 29.8126C115.775 31.0818 115.717 32.1951 115.791 33.303C115.875 34.5396 116.338 34.9221 117.594 35.1017C117.793 35.1288 117.969 35.3428 118.155 35.4643C118.021 35.5808 117.873 35.68 117.715 35.7598C117.571 35.7881 117.422 35.7918 117.277 35.7707H111.084C111.032 35.6873 110.983 35.6039 110.931 35.5223C111.109 35.3754 111.268 35.1343 111.464 35.0998C112.971 34.8297 113.361 34.516 113.4 32.9476C113.469 30.2036 113.469 27.4585 113.4 24.7121C113.361 23.1908 112.969 22.8771 111.506 22.6088C111.329 22.5743 111.167 22.3948 110.999 22.2824C111.176 22.1809 111.339 21.9905 111.51 21.9887C113.784 21.9796 116.063 21.9216 118.331 22.0413C119.212 22.1105 120.064 22.3934 120.816 22.8663C121.333 23.1808 121.76 23.6279 122.055 24.1632C122.35 24.6985 122.503 25.3033 122.499 25.9176C122.495 26.532 122.333 27.1345 122.03 27.6654C121.728 28.1963 121.294 28.6371 120.774 28.9441C119.964 29.4228 118.958 29.6077 118.017 29.7799C117.302 29.9177 116.551 29.8126 115.775 29.8126ZM115.748 28.6558C117.147 28.6159 118.604 29.0275 119.577 27.5878C120.229 26.6196 120.179 25.0076 119.481 24.0793C118.473 22.7412 117.071 23.1727 115.754 23.1364L115.748 28.6558Z" fill="#4B4847"/>
<path d="M80.0177 36.2258C78.2427 36.166 76.7002 35.5858 75.4258 34.3365C73.1271 32.0863 73.2106 28.5651 75.6033 26.4092C76.6392 25.4961 77.9226 24.9264 79.283 24.7758C80.6433 24.6252 82.0164 24.9009 83.2198 25.5661C85.2486 26.703 86.4734 28.8643 86.2373 30.8951C85.9551 33.3265 84.2156 35.3084 81.7696 35.9412C81.1927 36.088 80.5981 36.1334 80.0177 36.2258ZM84.0292 30.4653L83.8836 30.42C83.8552 30.0574 83.8481 29.6947 83.7967 29.3321C83.4914 27.2143 82.1033 25.8381 80.2023 25.7565C78.1965 25.6694 76.8298 26.7773 76.3186 28.9477C75.9796 30.3982 76.0701 31.827 76.7517 33.1688C77.4333 34.5105 78.5267 35.1361 79.9893 35.1379C81.4519 35.1397 82.6092 34.545 83.2287 33.1924C83.6174 32.3456 83.77 31.3846 84.0292 30.4653Z" fill="#08789D"/>
<path d="M152.052 25.5135L152.899 24.6395L153.142 24.8027C153.142 25.8816 153.155 26.9622 153.13 28.0411C153.13 28.1988 152.952 28.3529 152.864 28.5107C152.702 28.3783 152.487 28.2786 152.393 28.1082C152.251 27.8507 152.216 27.5316 152.097 27.2632C151.578 26.159 150.57 25.5606 149.418 25.8471C148.948 25.965 148.328 26.4092 148.222 26.8226C148.115 27.236 148.49 27.8942 148.85 28.2206C149.342 28.6666 150.018 28.9023 150.625 29.2196C151.096 29.4699 151.58 29.6911 152.045 29.9449C153.614 30.8007 154.303 32.0319 153.998 33.4154C153.835 34.1916 153.412 34.8856 152.803 35.3786C152.194 35.8715 151.436 36.1326 150.659 36.117C149.585 36.0916 148.518 35.6963 147.448 35.4661L147.496 35.2086L146.569 36.2421L146.332 36.0608C146.332 34.826 146.321 33.5912 146.344 32.3583C146.344 32.1679 146.507 31.9793 146.596 31.7907C146.752 31.9503 146.988 32.0827 147.05 32.2749C147.695 34.2476 148.888 35.1905 150.659 35.0889C151.397 35.0454 151.99 34.7626 152.237 34.001C152.484 33.2395 152.132 32.6647 151.555 32.2948C150.737 31.7672 149.846 31.3592 148.996 30.8769C148.463 30.5723 147.886 30.2912 147.425 29.8869C146.591 29.1616 146.172 28.2115 146.424 27.0656C146.687 25.8743 147.519 25.2415 148.596 24.9133C149.835 24.5471 150.989 24.8281 152.052 25.5135Z" fill="#4D4A49"/>
<path d="M34.3557 37.3029C32.6481 32.1226 31.0063 27.1345 29.3378 22.0721C29.8703 22.0195 30.3264 22.0485 30.724 21.9089C30.9938 21.8146 31.1838 21.4828 31.4092 21.258C31.1376 21.0893 30.8642 20.7738 30.5944 20.7775C29.2082 20.7956 27.8237 20.8971 26.3877 20.9733C29.9377 14.4186 40.3108 11.9491 46.9174 18.1447C46.7949 18.1919 46.7026 18.2336 46.6049 18.2644C44.9329 18.7848 44.214 20.1737 44.8388 21.8618C45.1175 22.616 45.5488 23.3123 45.9624 24.0104C46.9955 25.7728 47.425 27.6368 46.873 29.6476C46.1985 32.1099 45.453 34.5541 44.695 37.2049C42.991 32.0337 41.3581 27.0729 39.7073 22.0666C40.2505 22.0141 40.7137 22.0431 41.1184 21.8998C41.3776 21.8074 41.5462 21.4556 41.7556 21.2217C41.5089 21.064 41.2604 20.772 41.0155 20.772C39.686 20.772 38.353 20.8953 37.0288 20.9044C36.0561 20.9044 35.0763 20.7612 34.1072 20.7811C33.825 20.7811 33.548 21.1437 33.2676 21.3251C33.5161 21.5299 33.7841 21.9288 34.0095 21.9053C35.126 21.7892 35.4455 22.4692 35.7242 23.3758C36.1484 24.7538 36.6916 26.0955 37.1442 27.4627C37.2696 27.7919 37.2955 28.1518 37.2187 28.4962C36.3153 31.3701 35.3674 34.2223 34.3557 37.3029Z" fill="#484544"/>
<path d="M38.1273 30.1516C39.5189 34.0427 40.9105 37.9308 42.3021 41.8158C40.733 42.9038 36.1056 43.0506 33.9224 42.0806C35.2583 38.1169 36.5967 34.1503 37.9374 30.1806L38.1273 30.1516Z" fill="#484544"/>
<path d="M31.7321 41.2629C25.2161 38.2747 22.0548 29.3466 25.1948 22.995C27.3798 29.0819 29.5205 35.0853 31.7321 41.2629Z" fill="#494645"/>
<path d="M44.7749 40.7243C45.7352 37.8921 46.6493 35.2576 47.5226 32.6103C48.3036 30.2441 49.1041 27.8797 49.7662 25.4773C50.0182 24.5616 49.9064 23.5444 50.0715 22.5616C51.4915 25.0657 51.8075 27.7727 51.4773 30.5868C51.0034 34.661 48.2024 38.9492 44.7749 40.7243Z" fill="#494746"/>
</g>
<defs>
<clipPath id="clip0_602_33232">
<rect width="142" height="33" fill="white" transform="translate(21.6821 12.2174)"/>
</clipPath>
</defs>
</svg>
