<svg width="70" height="33" viewBox="0 0 70 33" fill="none" xmlns="http://www.w3.org/2000/svg">
<g clip-path="url(#clip0_654_32134)">
<rect y="0.434814" width="70" height="32" rx="6" fill="white"/>
<rect x="-5.90479" y="-10.2787" width="81.8091" height="53.427" rx="7.374" fill="white"/>
<path d="M31.2408 13.837C30.9959 14.0504 30.7561 14.2655 30.476 14.5226C30.4458 14.4289 30.4205 14.3336 30.4003 14.2372C30.2362 13.1805 30.2027 13.1539 29.1112 13.2319C29.0683 13.2319 29.0253 13.2413 28.9823 13.2413C28.6669 13.2413 28.5483 13.3699 28.5526 13.711C28.5724 15.3668 28.5621 17.0226 28.5621 18.6819C28.5621 21.7519 28.5698 24.821 28.5518 27.8901C28.5518 28.2766 28.6936 28.4044 29.0373 28.4001C29.4232 28.4001 29.8108 28.3881 30.1949 28.3846C30.4871 28.3846 30.5739 28.2389 30.5705 27.951C30.5559 26.6808 30.5628 25.4098 30.5645 24.1396C30.5645 23.9914 30.5808 23.8431 30.5834 23.808C31.4118 23.808 32.1827 23.8542 32.9459 23.7985C34.9027 23.6563 36.4643 22.8223 37.2429 20.9548C38.0215 19.0873 37.9983 17.1546 37.2145 15.2828C36.0964 12.6122 32.6262 12.6277 31.2408 13.837ZM35.2474 20.3969C34.7489 21.577 33.7675 22.111 32.5265 22.1444C31.9756 22.1598 31.4204 22.0476 30.8687 21.985C30.6264 21.9576 30.5481 21.8093 30.5524 21.5668C30.5662 20.8683 30.5576 20.1689 30.5576 19.4695H30.6324C30.6324 18.6296 30.5353 17.776 30.653 16.9524C30.8721 15.4148 32.2635 14.5329 33.7821 14.8603C34.4945 15.0137 35.005 15.4345 35.2637 16.1013C35.8154 17.5292 35.8464 18.9784 35.2474 20.3969Z" fill="#FE540E"/>
<path d="M49.3281 13.0612C47.122 13.0158 45.362 14.1454 44.6873 16.2083C44.2213 17.6162 44.1968 19.1323 44.6168 20.5544C45.0672 22.1246 46.1122 23.1256 47.6746 23.5704C49.0402 23.9569 50.4333 23.9287 51.7997 23.5996C53.0553 23.2962 53.045 23.5139 52.6763 22.0354C52.5973 21.7183 52.4469 21.6789 52.1504 21.7783C51.0916 22.1331 50.0079 22.272 48.8932 22.0954C47.3317 21.8477 46.3451 20.5733 46.5256 18.9749C46.6708 18.968 46.8229 18.9552 46.9759 18.9552C48.7228 18.9552 50.4702 18.9552 52.2183 18.9552C53.5933 18.9552 53.5976 18.9552 53.5443 17.5753C53.4283 14.7033 51.694 13.11 49.3281 13.0612ZM46.5084 17.4322C46.5866 16.4646 46.8573 15.6041 47.6763 15.0684C48.5245 14.513 49.4707 14.4685 50.3585 14.9827C51.2686 15.5072 51.5135 16.4029 51.5428 17.4356L46.5084 17.4322Z" fill="#FE540E"/>
<path d="M26.4029 17.4631C26.4121 16.9636 26.3886 16.464 26.3324 15.9676C26.121 14.4249 25.2263 13.4967 23.7009 13.201C22.5167 12.9722 21.3341 13.0502 20.1593 13.2798C19.0756 13.4907 18.9871 13.6784 19.3859 14.7368C19.4984 15.0368 19.6437 15.0865 19.9634 15.0334C20.7918 14.8971 21.6332 14.7368 22.4668 14.7531C23.9278 14.7814 24.6153 15.6865 24.3747 17.1366C24.2337 17.1366 24.1169 17.1366 24.0077 17.1366C23.0675 17.1752 22.1067 17.1032 21.1923 17.278C19.2887 17.6423 18.2884 18.9784 18.3606 20.8374C18.4259 22.4478 19.4847 23.4737 21.4037 23.7436C23.0031 23.9682 24.5715 23.7205 26.1304 23.3888C26.414 23.3288 26.402 23.1523 26.4011 22.9466C26.4046 21.1185 26.4097 19.2904 26.4029 17.4631ZM24.4262 21.8221C24.4262 21.9078 24.2544 22.0612 24.1521 22.0681C23.3709 22.1187 22.5837 22.1992 21.8051 22.1538C20.9981 22.1092 20.4644 21.5419 20.3699 20.8031C20.2521 19.886 20.6337 19.1747 21.4329 18.8739C22.4049 18.5122 23.3975 18.639 24.4409 18.765C24.4348 19.8046 24.4417 20.8142 24.4228 21.8221H24.4262Z" fill="#FE540E"/>
<path d="M10.477 13.2987C9.29788 13.2987 9.30734 13.2987 9.37351 14.4943C9.3907 14.8062 9.49641 14.9099 9.81181 14.9065C11.0854 14.8919 12.3599 14.8996 13.6336 14.9014C13.7831 14.9014 13.9326 14.9159 14.1647 14.9279C14.0435 15.1285 13.9687 15.2596 13.8871 15.3856C12.2697 17.8933 10.6529 20.4014 9.03663 22.9097C8.93694 23.0657 8.906 23.2654 8.84326 23.4453C9.02288 23.4933 9.20163 23.5833 9.38211 23.5842C11.5426 23.5945 13.704 23.591 15.8646 23.591C17.0738 23.591 17.0677 23.591 16.9938 22.3792C16.9758 22.0646 16.8649 21.9678 16.553 21.9712C15.165 21.9849 13.7771 21.9772 12.3883 21.9764C12.2388 21.9764 12.0901 21.9635 11.8804 21.9541C11.9663 21.7989 12.017 21.697 12.0772 21.6112C13.7387 19.0475 15.4002 16.4832 17.0617 13.9183C17.1528 13.7769 17.17 13.5875 17.2216 13.4204C17.0634 13.3801 16.9053 13.3055 16.7472 13.3055C14.6563 13.2961 12.5662 13.2987 10.477 13.2987Z" fill="#FE540E"/>
<path d="M61.1345 13.5129C61.1277 13.4161 60.9094 13.2678 60.7796 13.2558C59.842 13.1787 58.9878 13.3929 58.2942 14.0691C58.0828 14.2757 57.8869 14.4977 57.6265 14.7745C57.5981 14.5842 57.5792 14.4737 57.5663 14.3623C57.4322 13.1787 57.2965 13.0767 56.0916 13.2387C55.8209 13.2746 55.7023 13.3612 55.7031 13.6672C55.714 16.8486 55.714 20.0302 55.7031 23.2122C55.7031 23.4976 55.777 23.6407 56.077 23.6407C56.4912 23.6356 56.9054 23.6407 57.3188 23.645C57.6316 23.6502 57.7227 23.5088 57.7193 23.1976C57.7038 21.6429 57.7038 20.088 57.7193 18.5327C57.7197 18.0907 57.7591 17.6496 57.837 17.2145C58.0948 15.8364 59.0178 15.0856 60.4221 15.0719C60.6344 15.0719 60.8466 15.0719 61.1517 15.0719C61.1509 14.5277 61.1706 14.0186 61.1345 13.5129Z" fill="#FE540E"/>
<path d="M42.1976 18.459C42.1976 16.8743 42.189 15.2879 42.2045 13.7032C42.2045 13.3809 42.1117 13.2815 41.7911 13.2909C41.0323 13.3115 40.2734 13.2969 39.5137 13.2978C38.8528 13.2978 38.8528 13.2978 38.8356 13.9466C38.8107 14.8774 38.8107 14.8945 39.7414 14.8748C40.1247 14.8662 40.2287 14.9896 40.2261 15.3625C40.2107 17.6765 40.2184 19.9906 40.2184 22.3046C40.2184 23.7616 40.3095 23.831 41.7825 23.6553C42.1005 23.6176 42.2122 23.5062 42.2062 23.1728C42.1873 21.6044 42.1976 20.03 42.1976 18.459Z" fill="#FE540E"/>
<path d="M43.5259 7.25817C43.1262 7.24274 42.7258 7.25388 42.3227 7.25388L42.2479 7.06961L43.6135 5.90488L42.7756 5.05296L41.3653 6.4294C41.3653 5.85517 41.3327 5.42493 41.3739 5.00154C41.4195 4.52331 41.1805 4.46845 40.7904 4.46931C40.4002 4.47017 40.157 4.51131 40.2034 4.99554C40.2447 5.42407 40.212 5.85774 40.212 6.2897L39.9903 6.41483C39.79 6.15771 39.6121 5.87831 39.3887 5.64348C38.7871 5.02211 38.7502 5.03068 38.2087 5.70347C38.1604 5.77377 38.117 5.84737 38.079 5.92373L39.2486 7.13647L39.1824 7.25046C38.7579 7.25046 38.3299 7.28131 37.9088 7.24274C37.3528 7.19218 37.4628 7.57185 37.4404 7.88211C37.4146 8.23607 37.4928 8.44776 37.9329 8.40319C38.3729 8.35863 38.8198 8.39291 39.2641 8.39291L39.35 8.57118L37.9965 9.70849C38.1924 9.93304 38.3153 10.0685 38.433 10.2099C38.6909 10.5201 38.9238 10.5784 39.216 10.2167C39.4738 9.89533 39.7986 9.62536 40.0934 9.33225L40.2154 9.39138C40.2154 9.85591 40.23 10.3213 40.2103 10.785C40.1982 11.0695 40.3117 11.1758 40.5815 11.1629C40.7242 11.1561 40.8677 11.1561 41.0112 11.1629C41.288 11.1749 41.3859 11.0515 41.3748 10.7747C41.3559 10.3076 41.3696 9.83962 41.3696 9.37167L41.5415 9.25768C41.9102 9.70592 42.2797 10.1533 42.7086 10.6735L43.568 9.80963L42.272 8.49147C42.8048 8.3912 43.2723 8.39806 43.7407 8.38606C43.8567 8.38606 44.0673 8.33206 44.0707 8.28749C44.1109 7.98048 44.1063 7.66928 44.057 7.36359C44.0424 7.2916 43.7123 7.26588 43.5259 7.25817ZM40.7998 8.64746C40.0994 8.64746 39.9593 8.51462 39.9585 7.83411C39.9585 7.17675 40.1304 7.00791 40.7981 7.01048C41.4401 7.01048 41.6137 7.18189 41.6214 7.81183C41.6292 8.5009 41.4874 8.64574 40.7998 8.64746Z" fill="#FE540E"/>
</g>
<defs>
<clipPath id="clip0_654_32134">
<rect y="0.434814" width="70" height="32" rx="6" fill="white"/>
</clipPath>
</defs>
</svg>
