<svg width="179" height="26" viewBox="0 0 179 26" fill="none" xmlns="http://www.w3.org/2000/svg">
<g clip-path="url(#clip0_856_30740)">
<path d="M94.4815 17.9483L97.5385 20.665C95.7034 23.8515 90.0085 26.0347 86.0693 25.1548C80.2796 23.8604 76.4021 19.6572 76.144 14.1002C75.908 9.26647 78.6364 4.61806 83.6431 2.66648C88.6499 0.714908 94.2036 2.10636 97.5385 6.29177L94.4815 9.07245C90.5114 4.4416 85.3657 5.61922 82.7322 8.24778C81.3523 9.62154 80.5698 11.4839 80.5545 13.4308C80.5392 15.3777 81.2924 17.252 82.6506 18.6473C85.9612 22.1381 90.0129 21.8757 94.4815 17.9483Z" fill="#C9CED4"/>
<path d="M16.233 4.50343C15.2449 5.3855 14.2347 6.27849 13.3106 7.09881C12.1218 6.72834 10.8028 6.27197 9.45738 5.92796C8.94944 5.83044 8.42529 5.85919 7.93108 6.01173C6.90988 6.28297 6.1335 6.91805 5.96808 7.99638C5.81148 9.00855 6.32098 9.81122 7.21646 10.239C8.66335 10.9314 10.1521 11.5334 11.6277 12.1597C13.5488 12.9734 15.3618 13.9547 16.308 15.9283C16.7179 16.7545 16.9415 17.6605 16.9628 18.5825C16.9841 19.5045 16.8027 20.4199 16.4314 21.2641C16.0602 22.1083 15.508 22.8607 14.8141 23.4682C14.1201 24.0757 13.3012 24.5235 12.4151 24.7799C8.33693 25.9949 4.51679 25.1813 1.12896 22.5505C1.01844 22.422 0.926391 22.2788 0.855469 22.1249L3.79996 19.4235C5.16745 19.9506 6.58125 20.6452 8.07445 21.009C8.99938 21.206 9.96234 21.1176 10.8359 20.7555C11.4645 20.4864 12.0358 19.6926 12.2762 19.009C12.5805 18.1401 12.0556 17.3264 11.2373 16.9185C9.86541 16.2459 8.45381 15.6483 7.04663 15.0573C5.12774 14.2569 3.28164 13.3284 2.19427 11.454C0.0724625 7.74933 2.11046 3.14054 6.49743 2.09088C9.82791 1.29481 13.0636 1.76897 15.8515 4.00942C15.9387 4.07648 16.0205 4.15021 16.0963 4.22994C16.1509 4.31626 16.1967 4.40792 16.233 4.50343Z" fill="#C9CED4"/>
<path d="M155.798 24.8725C154.307 24.6961 152.877 25.3136 151.386 24.3609C150.01 25.3334 148.23 25.4745 146.435 25.1393C144.807 24.835 143.455 23.9485 142.37 22.6806C141.127 21.2411 140.37 19.4457 140.208 17.5506C140.047 15.6556 140.488 13.7579 141.47 12.1288C142.46 10.3916 144.059 9.08337 145.958 8.45723C147.906 7.79568 149.763 8.13745 151.766 9.03716C151.766 7.05251 151.753 5.22442 151.766 3.40515C151.786 1.07208 151.446 1.37425 153.821 1.37205C156.067 1.37205 155.793 1.09422 155.807 3.37877C155.817 10.0663 155.817 16.7553 155.807 23.4458L155.798 24.8725ZM151.757 16.6142C151.757 15.5116 151.797 14.409 151.733 13.3064C151.715 13.122 151.66 12.943 151.57 12.781C151.48 12.619 151.357 12.4773 151.21 12.3648C148.744 10.8477 145.515 11.9237 144.653 14.678C144.326 15.7122 144.366 16.9251 144.492 18.0276C144.792 20.643 147.58 22.3366 150.052 21.5229C151.415 21.0818 151.757 20.5989 151.757 19.1369V16.6142Z" fill="#C9CED4"/>
<path d="M105.843 16.7068C105.843 11.8555 109.606 8.1993 114.498 8.10668C118.805 8.03171 123.186 11.4365 123.19 16.6892C123.194 21.9419 118.779 25.2739 114.495 25.2893C109.861 25.3224 105.635 21.3928 105.843 16.7068ZM114.476 11.7761C111.809 11.7761 109.872 13.8555 109.875 16.7134C109.877 19.5713 111.831 21.6222 114.506 21.6178C117.085 21.6178 119.057 19.5052 119.074 16.7311C119.096 13.9085 117.113 11.7739 114.476 11.7761Z" fill="#C9CED4"/>
<path d="M49.3437 25.2539C44.7714 25.4524 40.6006 21.4832 40.6954 16.6693C40.7903 11.8554 44.5045 8.17717 49.412 8.11543C50.5509 8.09865 51.6817 8.30949 52.738 8.73563C53.7942 9.16178 54.7547 9.79464 55.563 10.597C56.3712 11.3994 57.011 12.3551 57.4448 13.4081C57.8786 14.461 58.0976 15.5901 58.0889 16.7288C58.0939 17.8683 57.8694 18.997 57.4289 20.0479C56.9884 21.0988 56.3408 22.0503 55.5248 22.8458C54.7088 23.6413 53.741 24.2645 52.6791 24.6782C51.6172 25.0919 50.4828 25.2877 49.3437 25.2539ZM44.7317 16.6891C44.7317 19.5117 46.7168 21.6198 49.3635 21.6198C51.9639 21.6198 54.0107 19.4146 53.9755 16.645C53.9402 13.8753 51.9463 11.7804 49.3767 11.7782C46.7146 11.7716 44.7317 13.8665 44.7317 16.6891Z" fill="#C9CED4"/>
<path d="M31.9788 24.8593C30.5562 24.7336 29.0983 25.2343 27.4992 24.3875C26.2045 25.1725 24.4797 25.3468 22.6932 25.2696C20.578 25.1725 18.6304 23.7259 18.1761 21.8758C17.5938 19.4898 18.4319 17.3243 20.3662 16.1423C22.0623 15.1081 23.9526 14.9295 25.8626 14.8369C26.5243 14.806 27.175 14.8369 27.8477 14.8369C28.2094 13.6704 27.6911 12.8831 26.8927 12.4112C24.7731 11.1675 22.7549 11.6416 20.9375 13.0265L18.5113 10.7066C19.6922 9.45801 21.2405 8.61832 22.9314 8.30958C26.3942 7.64803 29.7445 8.39342 31.3833 11.7629C31.7405 12.4827 31.9433 13.269 31.9788 14.0717C32.0692 17.45 32.0626 20.8305 32.0847 24.2154C32.0658 24.4324 32.0304 24.6477 31.9788 24.8593ZM26.5045 17.6662C25.287 17.9065 24.2636 18.0278 23.2975 18.3277C22.5189 18.5703 21.8903 19.2097 22.1462 20.0675C22.3655 20.7233 22.8081 21.2813 23.3967 21.6443C24.5569 22.3058 25.7457 21.7787 26.8728 21.3399C27.9999 20.9011 28.4167 19.8801 27.9249 18.3717C27.8014 17.9947 26.9302 17.8624 26.5045 17.6662Z" fill="#C9CED4"/>
<path d="M74.1899 24.8262H70.2617C70.2418 24.4028 70.2087 24.017 70.2087 23.6289C70.2087 20.7997 70.1845 17.9704 70.2087 15.1411C70.2242 13.6901 69.7345 12.5346 68.3979 11.8951C67.1517 11.2997 64.8182 11.7386 63.9867 12.7199C63.7397 13.0087 63.658 13.5138 63.6536 13.9217C63.6272 17.1192 63.6404 20.3167 63.6404 23.5119V24.8704C62.392 24.8704 61.2297 24.9167 60.0783 24.8241C59.8754 24.8086 59.5688 24.2043 59.5644 23.8714C59.5247 20.6011 59.5402 17.3309 59.5402 14.0606C59.5402 12.5545 59.5688 11.0483 59.5291 9.54218C59.5093 8.80786 59.71 8.46166 60.5173 8.50797C61.4988 8.56751 62.4869 8.52348 63.5125 8.52348C63.6051 8.90056 63.6779 9.20037 63.7573 9.52894C66.0754 7.96988 68.4575 7.61268 70.9741 8.79245C72.8643 9.67451 74.0355 11.2821 74.1369 13.2491C74.3377 17.053 74.1899 20.879 74.1899 24.8262Z" fill="#C9CED4"/>
<path d="M135.005 8.56304H138.909V24.8813C137.767 24.8813 136.605 24.9255 135.451 24.8417C135.23 24.8262 135.03 24.3146 134.765 23.9596C133.464 24.7755 131.982 25.3466 130.255 25.2827C127.142 25.1658 124.538 22.7732 124.465 19.6639C124.381 16.2525 124.438 12.8278 124.405 9.42303C124.405 8.76148 124.591 8.49028 125.288 8.52115C126.271 8.56526 127.259 8.53214 128.375 8.53214C128.408 8.99081 128.461 9.37452 128.461 9.75822C128.461 12.5852 128.461 15.4123 128.461 18.2393C128.461 19.8733 129.165 21.106 130.338 21.547C131.578 22.0256 133.854 21.6 134.661 20.6496C134.906 20.3585 134.994 19.8579 134.997 19.4521C135.023 16.2568 135.012 13.0572 135.012 9.87074L135.005 8.56304Z" fill="#C9CED4"/>
<path d="M169.892 10.9557L167.64 13.0969C166.718 12.6029 165.875 11.9569 164.923 11.6988C164.177 11.496 163.268 11.6591 162.496 11.884C162.119 11.9943 161.696 12.5985 161.654 13.0153C161.619 13.3483 162.051 13.8974 162.41 14.0716C163.531 14.5964 164.728 14.9537 165.867 15.4388C166.647 15.7458 167.388 16.1464 168.072 16.6318C171.048 18.8921 170.628 22.8393 167.274 24.491C164.208 26.0015 160.233 25.3489 158.043 22.9717C157.9 22.8151 157.785 22.6298 157.591 22.3718L159.931 20.202C160.946 20.7224 161.936 21.3244 163.001 21.7345C163.553 21.9167 164.151 21.905 164.695 21.7015C165.196 21.5052 165.926 20.9561 165.906 20.5989C165.875 20.0829 165.364 19.4081 164.874 19.1457C163.919 18.6341 162.794 18.4444 161.815 17.9681C160.778 17.4653 159.7 16.9228 158.868 16.1532C156.907 14.3318 157.159 11.2733 159.27 9.60835C162.391 7.13856 167.298 7.7207 169.892 10.9557Z" fill="#C9CED4"/>
<path d="M41.0836 21.664C41.0836 22.5814 41.1851 23.5031 41.0307 24.3808C40.9711 24.7093 40.3447 25.1239 39.9279 25.179C36.5863 25.6311 34.1734 24.383 34.1778 20.4644C34.1778 14.5215 34.2065 8.57628 34.1558 2.63335C34.1558 1.57928 34.4976 1.33454 35.4791 1.34557C38.3994 1.37864 38.4016 1.34559 38.4016 4.23877V19.7566C38.4016 20.6254 38.4214 21.5405 39.4559 21.8118C39.908 21.9286 40.444 21.7324 41.0836 21.664Z" fill="#C9CED4"/>
<path d="M106.099 21.7237C106.099 22.5947 106.143 23.4613 106.07 24.3213C106.031 24.4697 105.957 24.6069 105.855 24.7218C105.754 24.8366 105.626 24.926 105.484 24.9829C103.395 25.6753 100.437 25.3049 99.5284 22.6609C99.3395 22.0312 99.2539 21.3751 99.2748 20.7181C99.2571 14.6627 99.2748 8.60735 99.2461 2.55196C99.2461 1.65446 99.5064 1.34354 100.433 1.34795C103.351 1.36338 103.351 1.32802 103.351 4.19033V19.1635C103.34 21.7017 103.525 21.8847 106.099 21.7237Z" fill="#C9CED4"/>
<path d="M174.59 11.3703H172.1C172.1 10.2787 172.058 9.22691 172.113 8.17946C172.157 7.3459 171.826 7.04379 171.026 7.12317C170.624 7.16287 170.218 7.12317 169.812 7.12317C168.134 7.12317 167.724 6.6093 168.167 4.95763C168.224 4.73711 168.608 4.49897 168.851 4.47912C169.62 4.42104 170.392 4.41593 171.162 4.46373C171.899 4.50562 172.142 4.18369 172.108 3.48906C172.073 2.75474 172.146 2.01601 172.089 1.28389C172.007 0.201152 172.733 0.346697 173.392 0.351107C174.052 0.355518 174.861 0.18345 174.773 1.33234C174.716 2.06225 174.773 2.80099 174.757 3.53751C174.738 4.18142 174.989 4.499 175.662 4.45931C176.138 4.43285 176.617 4.45931 177.095 4.45931C178.639 4.45931 179.186 5.21125 178.664 6.69312C178.591 6.8982 178.185 7.08567 177.918 7.10551C177.184 7.15863 176.447 7.16307 175.712 7.11876C174.987 7.08127 174.733 7.39439 174.749 8.09343C174.773 9.08355 174.735 10.0781 174.718 11.066C174.722 11.1321 174.667 11.1961 174.59 11.3703Z" fill="#C9CED4"/>
</g>
<defs>
<clipPath id="clip0_856_30740">
<rect width="178" height="25" fill="white" transform="translate(0.855469 0.351074)"/>
</clipPath>
</defs>
</svg>
