<svg width="135" height="58" viewBox="0 0 135 58" fill="none" xmlns="http://www.w3.org/2000/svg">
<rect x="0.9375" y="0.608704" width="133.532" height="57.1739" rx="8.57609" fill="white"/>
<path d="M51.8916 35.5908L52.9881 33.0398C54.1731 33.9256 55.7471 34.3862 57.3035 34.3862C58.4531 34.3862 59.1782 33.9433 59.1782 33.2701C59.1605 31.3923 52.2984 32.8626 52.2453 28.1504C52.2276 25.7588 54.35 23.9164 57.3566 23.9164C59.1429 23.9164 60.9291 24.3593 62.2025 25.3691L61.1767 27.9732C60.0095 27.2292 58.5592 26.6977 57.1797 26.6977C56.2424 26.6977 55.6233 27.1406 55.6233 27.7075C55.641 29.5499 62.5562 28.5401 62.627 33.0398C62.627 35.4845 60.5577 37.2029 57.5865 37.2029C55.4111 37.2029 53.4126 36.6891 51.8916 35.5908Z" fill="black"/>
<path d="M93.965 32.1186C93.4167 33.0752 92.3909 33.7307 91.206 33.7307C89.4551 33.7307 88.0402 32.3135 88.0402 30.5597C88.0402 28.8059 89.4551 27.3886 91.206 27.3886C92.3909 27.3886 93.4167 28.0441 93.965 29.0007L96.9893 27.3178C95.8574 25.2982 93.682 23.9164 91.206 23.9164C87.545 23.9164 84.5737 26.8926 84.5737 30.5597C84.5737 34.2267 87.545 37.2029 91.206 37.2029C93.6997 37.2029 95.8574 35.8388 96.9893 33.8015L93.965 32.1186Z" fill="black"/>
<path d="M67.9318 18.407H64.147V36.9548H67.9318V18.407Z" fill="black"/>
<path d="M98.4771 18.407V36.9548H102.262V31.3923L106.754 36.9548H111.6L105.887 30.3471L111.176 24.1822H106.542L102.262 29.3019V18.407H98.4771Z" fill="black"/>
<path d="M79.1803 32.154C78.632 33.0575 77.5001 33.7307 76.2267 33.7307C74.4758 33.7307 73.061 32.3135 73.061 30.5597C73.061 28.8059 74.4758 27.3886 76.2267 27.3886C77.5001 27.3886 78.632 28.0972 79.1803 29.0184V32.154ZM79.1803 24.1822V25.688C78.5613 24.6428 77.0226 23.9164 75.4132 23.9164C72.0882 23.9164 69.4707 26.8572 69.4707 30.5419C69.4707 34.2267 72.0882 37.2029 75.4132 37.2029C77.0226 37.2029 78.5613 36.4766 79.1803 35.4314V36.9372H82.9651V24.1822H79.1803Z" fill="black"/>
<path d="M28.4958 32.1363C28.4958 33.4295 27.4523 34.4747 26.1612 34.4747C24.8701 34.4747 23.8267 33.4295 23.8267 32.1363C23.8267 30.8431 24.8701 29.7979 26.1612 29.7979H28.4958V32.1363Z" fill="#E01E5A"/>
<path d="M29.6641 32.1364C29.6641 30.8432 30.7075 29.798 31.9986 29.798C33.2897 29.798 34.3332 30.8432 34.3332 32.1364V37.9825C34.3332 39.2757 33.2897 40.3209 31.9986 40.3209C30.7075 40.3209 29.6641 39.2757 29.6641 37.9825V32.1364Z" fill="#E01E5A"/>
<path d="M31.9957 22.7473C30.7046 22.7473 29.6611 21.7021 29.6611 20.4088C29.6611 19.1156 30.7046 18.0704 31.9957 18.0704C33.2868 18.0704 34.3302 19.1156 34.3302 20.4088V22.7473H31.9957Z" fill="#36C5F0"/>
<path d="M31.9957 23.9341C33.2868 23.9341 34.3303 24.9793 34.3303 26.2726C34.3303 27.5658 33.2868 28.611 31.9957 28.611H26.1417C24.8506 28.611 23.8071 27.5658 23.8071 26.2726C23.8071 24.9793 24.8506 23.9341 26.1417 23.9341H31.9957Z" fill="#36C5F0"/>
<path d="M41.3521 26.2726C41.3521 24.9794 42.3955 23.9342 43.6866 23.9342C44.9777 23.9342 46.0211 24.9794 46.0211 26.2726C46.0211 27.5658 44.9777 28.611 43.6866 28.611H41.3521V26.2726Z" fill="#2EB67D"/>
<path d="M40.1842 26.2726C40.1842 27.5658 39.1408 28.611 37.8497 28.611C36.5586 28.611 35.5151 27.5658 35.5151 26.2726V20.4088C35.5151 19.1156 36.5586 18.0704 37.8497 18.0704C39.1408 18.0704 40.1842 19.1156 40.1842 20.4088V26.2726Z" fill="#2EB67D"/>
<path d="M37.8497 35.644C39.1408 35.644 40.1842 36.6892 40.1842 37.9825C40.1842 39.2757 39.1408 40.3209 37.8497 40.3209C36.5586 40.3209 35.5151 39.2757 35.5151 37.9825V35.644H37.8497Z" fill="#ECB22E"/>
<path d="M37.8497 34.4747C36.5586 34.4747 35.5151 33.4295 35.5151 32.1363C35.5151 30.8431 36.5586 29.7979 37.8497 29.7979H43.7037C44.9948 29.7979 46.0383 30.8431 46.0383 32.1363C46.0383 33.4295 44.9948 34.4747 43.7037 34.4747H37.8497Z" fill="#ECB22E"/>
</svg>
