<svg width="137" height="58" viewBox="0 0 137 58" fill="none" xmlns="http://www.w3.org/2000/svg">
<g clip-path="url(#clip0_602_33695)">
<rect y="0.608704" width="136.503" height="57.1739" rx="8.57609" fill="white"/>
<rect x="2.35156" y="-5.00159" width="131.8" height="68.3944" rx="8.57609" fill="white"/>
<path d="M112.495 18.9641C110.316 18.924 108.62 20.1086 107.788 22.2539C107.706 22.4566 107.634 22.6626 107.556 22.8629C107.484 23.051 107.412 23.2398 107.296 23.5407C106.845 22.1402 106.406 20.8641 105.288 19.9844C104.17 19.1047 102.871 18.7924 101.414 18.9894C101.414 18.7859 101.419 18.6117 101.414 18.4392C101.39 17.6928 101.434 16.9366 101.325 16.2032C100.97 13.8103 99.1363 12.2365 96.6852 12.1531C94.4735 12.0779 92.4948 13.6656 92.0142 15.9326C91.9192 16.4257 91.8711 16.9266 91.8703 17.4287C91.8499 18.5095 91.8638 19.5903 91.8638 20.7627C89.7657 19.0892 87.4413 18.5234 84.8275 18.8504C84.8275 18.1204 84.8618 17.4279 84.821 16.7404C84.7392 15.3195 84.1892 14.0948 83.0588 13.202C81.622 12.0697 80.0045 11.8678 78.3331 12.566C76.6478 13.2707 75.7046 14.6368 75.537 16.4272C75.4055 17.8293 75.4757 19.251 75.4553 20.6638C75.4553 20.8011 75.4553 20.9393 75.4553 21.1543C73.1039 19.2339 70.5073 18.4956 67.6091 18.897C64.7108 19.2985 62.4779 20.8322 60.7975 23.2088C57.5413 18.4417 51.1254 17.4214 46.7315 20.6703C45.5169 19.117 43.8945 18.5529 41.9967 18.8717C40.0442 19.2036 38.877 20.4872 38.2322 22.352C37.4247 20.1185 35.9616 18.7924 33.5497 18.8022C31.1591 18.8112 29.7149 20.1381 28.9221 22.3291C28.8847 22.262 28.8509 22.1929 28.8207 22.1222C27.9879 19.8192 26.265 18.6281 23.8482 18.8226C21.9405 18.9763 20.4972 19.9141 19.782 21.747C19.2851 23.0166 19.5237 24.2961 19.9536 25.533C21.1126 28.8648 22.286 32.1911 23.4738 35.512C23.7419 36.2657 24.0182 37.0342 24.4268 37.7128C26.3107 40.853 30.739 41.1121 32.9057 38.2368C33.1386 37.9278 33.3282 37.5828 33.5595 37.2296C33.6568 37.4095 33.7369 37.5615 33.8211 37.7111C35.4623 40.6183 39.5693 41.1448 41.8962 38.7486C42.6318 37.9916 43.0903 37.0743 43.4262 36.0867C43.5276 35.7891 43.6412 35.4948 43.7695 35.1424C43.8806 35.3215 43.9509 35.4367 44.0237 35.5512C45.2088 37.4119 46.8214 38.7601 48.8916 39.531C52.0792 40.7181 55.194 40.3763 58.2516 39.0478C59.4718 38.5172 60.5507 37.7774 61.4121 36.7473C65.2969 41.1187 71.7627 41.1465 76.3805 38.1731C76.4202 38.1983 76.4569 38.2279 76.49 38.2614C77.9514 40.2414 80.6935 40.4442 82.4565 39.5384C82.5997 39.4824 82.7587 39.4824 82.9019 39.5384C86.3142 40.8726 89.3718 40.2333 92.1294 37.9033C92.2161 37.8297 92.3011 37.7528 92.3991 37.667C93.3391 39.3691 94.7694 40.2333 96.6729 40.2128C98.5764 40.1924 99.9569 39.2473 100.9 37.6041C100.801 38.411 100.639 39.1925 100.553 39.9831C100.459 40.8415 100.275 41.7343 100.411 42.5674C100.951 45.8759 104.811 46.9567 107.092 45.7803C108.318 45.1483 109.073 44.1215 109.575 42.8715C110.789 39.8509 112.006 36.8309 113.226 33.8115C114.37 30.9803 115.523 28.1549 116.64 25.3139C117.871 22.1762 115.803 19.0246 112.495 18.9641ZM44.9571 23.5742C44.8925 24.1179 44.6922 24.6525 44.5075 25.175C43.3257 28.5416 42.1324 31.9039 40.9277 35.2618C40.7997 35.6339 40.6369 35.993 40.4414 36.3344C39.8913 37.2721 39.0519 37.676 37.9706 37.5697C36.9751 37.4708 36.309 36.9157 35.9731 35.9992C35.6241 35.0484 35.329 34.0674 35.0176 33.1018C34.6024 31.8101 34.1946 30.5168 33.7827 29.2242C33.7426 29.0992 33.6936 28.979 33.6127 28.7509C33.5146 29.0362 33.4443 29.2291 33.3822 29.4237C32.7226 31.4913 32.0688 33.5613 31.4051 35.6272C31.1223 36.5069 30.6483 37.2263 29.6887 37.4896C28.4505 37.8281 27.2956 37.3817 26.7366 36.2167C26.2813 35.2667 25.9503 34.2546 25.5923 33.2596C24.6001 30.4882 23.6193 27.7132 22.65 24.9346C22.5229 24.5486 22.4184 24.1555 22.3369 23.7573C21.9749 22.1639 23.1935 21.4772 24.2405 21.4273C25.3381 21.3767 26.0835 21.9228 26.4137 23.0126C27.2065 25.6352 27.9982 28.2574 28.7889 30.8789C28.8273 31.0065 28.8706 31.134 28.9368 31.3499C29.1003 30.8462 29.2376 30.4236 29.37 29.9993C30.0827 27.7216 30.7956 25.4434 31.5089 23.1646C31.7541 22.3978 32.1276 21.7364 32.9801 21.5026C34.2175 21.1625 35.2481 21.6881 35.6617 22.9144C36.0957 24.1996 36.4839 25.5003 36.8877 26.7945C37.3544 28.2816 37.8194 29.7695 38.3221 31.3776C38.8223 29.7238 39.2857 28.1933 39.7475 26.6621C40.1308 25.3891 40.5002 24.1121 40.8991 22.8433C41.226 21.7993 42.215 21.2442 43.311 21.4535C44.407 21.6628 45.0846 22.4934 44.9571 23.5742ZM60.0619 29.8161C59.9426 30.4538 59.4898 30.8667 58.8441 30.9607C58.5751 30.9997 58.3036 31.0191 58.0317 31.0187C55.3117 31.0226 52.5911 31.0226 49.87 31.0187H49.3551C49.4932 32.0325 49.959 32.7904 50.7756 33.2915C52.0726 34.0886 53.4727 34.2145 54.8793 33.6529C55.6966 33.3259 56.4526 32.8582 57.2495 32.4805C58.0963 32.0791 58.8392 32.2655 59.3836 32.9784C59.8854 33.6324 59.9246 34.3952 59.4056 35.0419C59.1036 35.4256 58.7405 35.7571 58.3308 36.0229C56.0987 37.4275 53.6648 37.9409 51.0714 37.4103C48.3841 36.8609 46.5296 35.2536 45.6068 32.6767C44.6612 30.0377 44.8786 27.4583 46.3522 25.0474C49.1041 20.5509 55.2218 20.2427 58.4387 24.4261C59.4326 25.7186 60.0227 27.1714 60.1289 28.8032C60.1484 29.1423 60.1259 29.4825 60.0619 29.8161ZM74.7246 30.9607C71.9348 30.9645 69.1453 30.9645 66.3561 30.9607H65.8853C66.0316 32.3939 67.0786 33.4763 68.5825 33.8147C69.7587 34.0943 70.9965 33.9356 72.0643 33.3684C72.6315 33.0749 73.1823 32.7487 73.7569 32.4691C74.884 31.9279 76.0152 32.4936 76.2906 33.7158C76.4189 34.2881 76.195 34.7574 75.8403 35.1759C75.2681 35.8561 74.5162 36.3001 73.7152 36.6475C71.6858 37.5256 69.5919 37.8689 67.4178 37.3449C64.7811 36.708 62.9691 35.095 62.1142 32.532C61.1146 29.5357 61.4922 26.6833 63.4947 24.1931C66.5187 20.4324 71.9948 20.5468 74.9625 24.3795C76.0135 25.735 76.6429 27.2581 76.6707 28.9945C76.6952 30.3631 76.1034 30.9607 74.7246 30.9607ZM91.2598 35.059C89.6489 37.1217 87.058 38.0602 84.745 37.4144C83.7732 37.1421 82.9583 36.6344 82.3314 35.7392C82.2807 35.8774 82.2497 35.9649 82.2154 36.0524C81.841 37.0808 81.0826 37.5395 79.953 37.4193C79.054 37.3253 78.3494 36.6116 78.208 35.6395C78.1717 35.3981 78.1529 35.1544 78.1516 34.9102C78.1484 29.067 78.1484 23.2246 78.1516 17.383C78.146 17.0708 78.1734 16.759 78.2334 16.4526C78.4557 15.4372 79.2567 14.8101 80.2489 14.842C81.2607 14.8747 82.0306 15.5549 82.2006 16.5891C82.2462 16.8842 82.268 17.1825 82.266 17.4811C82.2717 19.2461 82.266 21.0104 82.266 22.8253C82.3583 22.7813 82.4481 22.7322 82.5349 22.6782C85.5255 20.5092 89.4061 21.1731 91.4911 24.2127C93.702 27.4265 93.5998 32.0619 91.2598 35.0607V35.059ZM98.8028 35.1768C98.8048 35.4344 98.7774 35.6914 98.7211 35.9428C98.4628 37.0416 97.6406 37.6425 96.5143 37.5779C95.5238 37.519 94.7277 36.7146 94.6223 35.6583C94.6002 35.4294 94.5994 35.1972 94.5994 34.9667C94.5994 32.0437 94.5994 29.121 94.5994 26.1985C94.5994 23.2494 94.5994 20.2999 94.5994 17.3503C94.5902 17.0518 94.6138 16.7533 94.6697 16.4599C94.9296 15.326 95.7779 14.7243 96.9451 14.8159C97.9169 14.8919 98.6982 15.7282 98.7849 16.7886C98.7963 16.9243 98.7996 17.0608 98.7996 17.1974C98.8018 23.1889 98.8028 29.182 98.8028 35.1768ZM114.25 24.3852C113.707 25.775 113.148 27.1591 112.595 28.5449C110.824 32.9678 109.053 37.3896 107.283 41.8103C107.181 42.0764 107.057 42.3333 106.911 42.578C106.273 43.604 105.264 43.9073 104.154 43.4217C103.249 43.0252 102.836 42.1757 103.173 41.1187C103.538 39.9847 104.016 38.8876 104.447 37.7749C104.668 37.2026 105.069 36.6402 105.071 36.072C105.072 35.5038 104.684 34.9323 104.457 34.3666C103.171 31.1553 101.885 27.944 100.598 24.7327C100.482 24.4577 100.398 24.1702 100.348 23.8759C100.198 22.8286 100.74 22.0029 101.75 21.6979C102.23 21.5482 102.748 21.5806 103.206 21.789C103.663 21.9975 104.028 22.3673 104.23 22.8278C104.632 23.7761 104.965 24.7547 105.318 25.7219C105.954 27.4502 106.586 29.1793 107.247 30.9844C107.604 30.0851 107.932 29.2545 108.26 28.4239C108.968 26.6326 109.669 24.8381 110.385 23.0493C110.966 21.5974 112.604 21.1551 113.753 22.1288C114.421 22.6929 114.602 23.4712 114.244 24.3877L114.25 24.3852Z" fill="#069BD6"/>
<path d="M83.0914 26.6081C82.0011 28.2432 82.082 30.9631 83.2671 32.5361C84.4375 34.0894 86.596 34.154 87.8441 32.6612C88.5796 31.779 88.8461 30.7244 88.9066 29.5839C88.851 28.4852 88.6123 27.424 87.9421 26.5002C86.7006 24.7825 84.2691 24.8389 83.0914 26.6081Z" fill="#069BD6"/>
<path d="M52.6139 24.8626C50.967 24.973 49.4214 26.5917 49.5767 28.0633H56.1496C56.1185 26.1911 54.488 24.7367 52.6139 24.8626Z" fill="#069BD6"/>
<path d="M69.0832 24.8586C67.4004 24.9199 65.9472 26.3857 65.9268 28.047H72.547C72.3852 26.0898 70.9614 24.7907 69.0832 24.8586Z" fill="#069BD6"/>
</g>
<defs>
<clipPath id="clip0_602_33695">
<rect y="0.608704" width="136.503" height="57.1739" rx="8.57609" fill="white"/>
</clipPath>
</defs>
</svg>
