<svg width="118" height="33" viewBox="0 0 118 33" fill="none" xmlns="http://www.w3.org/2000/svg">
<rect y="0.826111" width="117" height="32" rx="6" fill="white"/>
<g clip-path="url(#clip0_654_32145)">
<path d="M32.0014 27.7798C31.9327 27.7641 31.9214 27.7129 31.9242 27.6513C31.9369 27.3775 31.9492 27.1038 31.9612 26.8301C31.9612 26.8088 31.9645 26.7878 31.9652 26.7668C31.9802 26.2953 31.9899 25.8248 32.0122 25.3528C32.0303 24.9601 32.0623 24.5681 32.0885 24.1758C32.0885 24.1688 32.0885 24.1618 32.0885 24.1548C32.1027 23.7822 32.1172 23.4097 32.1318 23.0373C32.1471 22.6223 32.1602 22.2074 32.1767 21.7926C32.1878 21.5187 32.2033 21.2451 32.2162 20.9714C32.2445 20.3674 32.2726 19.7636 32.3005 19.1599C32.3132 18.893 32.324 18.6261 32.341 18.3597C32.3645 17.9955 32.3916 17.6315 32.4172 17.2675C32.4172 17.2533 32.4184 17.2393 32.4189 17.2252C32.4339 16.7255 32.4424 16.2258 32.4659 15.7265C32.4826 15.3551 32.5156 14.9843 32.5412 14.6133C32.5412 14.5991 32.5424 14.585 32.5429 14.5708C32.5579 14.0926 32.5678 13.6141 32.5899 13.1358C32.6071 12.7574 32.6386 12.3794 32.6638 12.0006C32.6652 11.9796 32.6664 11.9586 32.6671 11.9374C32.6822 11.4661 32.6921 10.9954 32.7142 10.5237C32.7318 10.1372 32.7636 9.75293 32.789 9.36769C32.7904 9.34667 32.7909 9.32542 32.7916 9.30441C32.8073 8.86852 32.823 8.43255 32.8387 7.9965C32.9509 7.97887 33.0154 8.05616 33.0834 8.12621C33.4564 8.51121 33.831 8.89477 34.2009 9.28315C34.2788 9.36479 34.36 9.3957 34.4713 9.40247C34.9782 9.43411 35.4843 9.47493 35.9905 9.51744C36.1887 9.53362 36.2362 9.5783 36.2672 9.78578C36.363 10.4254 36.4555 11.0659 36.5473 11.706C36.667 12.5343 36.7862 13.3625 36.905 14.1906C37.0214 15.0051 37.1351 15.8202 37.2516 16.6347C37.3821 17.5467 37.5136 18.4585 37.646 19.3701C37.7488 20.0872 37.8495 20.8043 37.9519 21.5214C38.0696 22.3426 38.1878 23.1638 38.3068 23.985C38.4068 24.6811 38.5059 25.3774 38.604 26.0738C38.6145 26.1487 38.6176 26.2245 38.6254 26.3122C38.2868 26.3888 37.9599 26.4637 37.6326 26.5364C36.3859 26.8141 35.1391 27.0915 33.8922 27.3684C33.296 27.5013 32.6999 27.6345 32.1038 27.7682C32.0699 27.774 32.0357 27.7779 32.0014 27.7798Z" fill="#3C8F34"/>
<path d="M70.4111 23.7867C70.1647 25.1444 69.9228 26.4786 69.6799 27.8174H67.0488C67.1486 27.2728 67.2453 26.7412 67.3427 26.2096C67.6854 24.3407 68.0281 22.472 68.3708 20.6033C68.5826 19.4541 68.8076 18.3076 69.0001 17.1552C69.1533 16.2391 69.266 15.3157 69.3973 14.3957C69.4051 14.3411 69.4182 14.2875 69.4291 14.2319H71.7533C71.7063 14.7099 71.6578 15.1795 71.6105 15.6488L71.646 15.6645C71.6818 15.6176 71.7166 15.57 71.7533 15.5237C72.2392 14.9073 72.8271 14.4368 73.5747 14.2017C74.0954 14.0328 74.652 14.0187 75.1803 14.1609C75.9441 14.3653 76.4595 14.8713 76.784 15.5954C77.0292 16.142 77.1336 16.7231 77.1447 17.319C77.1732 18.8691 76.8317 20.3246 76.0342 21.6514C75.493 22.5518 74.787 23.279 73.8404 23.73C72.8755 24.1889 71.8773 24.2833 70.8518 23.9648C70.7092 23.9215 70.5746 23.8536 70.4111 23.7867ZM70.8231 21.69C71.4265 22.2289 72.2771 22.2267 72.8953 21.6965C73.3212 21.3313 73.6072 20.8611 73.8328 20.3497C74.2056 19.5044 74.4103 18.6218 74.3943 17.6902C74.393 17.4288 74.343 17.1701 74.247 16.9279C74.0684 16.4886 73.6867 16.2584 73.2271 16.3156C73.1319 16.3283 73.0383 16.3511 72.9478 16.3838C72.5974 16.5067 72.3338 16.7502 72.1098 17.0422C71.675 17.6081 71.4347 18.2641 71.2961 18.9607C71.1874 19.5053 71.1012 20.0548 71.0067 20.6031C70.9445 20.9623 70.885 21.3229 70.8231 21.69Z" fill="#010101"/>
<path d="M51.5573 23.9587H48.9126C49.7682 19.3097 50.6225 14.6675 51.4755 10.0322H54.1204C53.7837 11.856 53.4495 13.666 53.1151 15.4761L53.1528 15.5002C53.21 15.4357 53.2665 15.3708 53.3243 15.307C53.8823 14.6909 54.5445 14.2629 55.3641 14.1196C55.726 14.0566 56.09 14.0416 56.4508 14.116C57.2833 14.288 57.7855 14.8194 58.0053 15.6488C58.1526 16.2043 58.1465 16.7697 58.0623 17.3282C57.9182 18.2815 57.7472 19.2307 57.5775 20.1797C57.3657 21.3574 57.1462 22.5334 56.9294 23.71C56.9155 23.7858 56.8974 23.8607 56.8793 23.9447H54.2437C54.2774 23.7491 54.3075 23.5631 54.3414 23.3781C54.6473 21.7096 54.9589 20.042 55.2591 18.3726C55.3415 17.9151 55.397 17.4513 55.3269 16.9849C55.2568 16.5185 54.9777 16.2801 54.5193 16.2864C54.284 16.2896 54.075 16.3671 53.8816 16.4968C53.5215 16.7383 53.2648 17.0743 53.0523 17.4504C52.7033 18.0682 52.5236 18.7445 52.396 19.4406C52.1426 20.8246 51.8821 22.2076 51.6249 23.5914C51.603 23.7085 51.5818 23.8256 51.5573 23.9587Z" fill="#010101"/>
<path d="M88.2315 28.3259C87.9892 27.5588 87.7487 26.7974 87.5044 26.0238C87.6708 25.9538 87.8284 25.8898 87.9844 25.8212C88.8476 25.4408 89.5783 24.885 90.1308 24.0976C90.2228 23.9664 90.3007 23.8247 90.3854 23.687C90.4948 23.5107 90.5129 23.3206 90.4762 23.1182C90.2197 21.7057 89.9643 20.293 89.71 18.8802C89.446 17.4122 89.1832 15.9438 88.9217 14.4749C88.9109 14.415 88.9085 14.3541 88.9015 14.2853H91.6782L92.3357 20.8937L92.3675 20.9031C92.5557 20.3536 92.7383 19.8026 92.9301 19.2548C93.1252 18.6993 93.3269 18.1438 93.5288 17.5909C93.7307 17.0381 93.9352 16.4845 94.1406 15.9326C94.346 15.3807 94.5559 14.8319 94.764 14.2819H97.4991C97.4912 14.3263 97.4796 14.37 97.4645 14.4123C96.9311 15.5943 96.3977 16.7758 95.8643 17.9571C95.3534 19.0875 94.8489 20.221 94.3293 21.347C93.6502 22.8204 92.9064 24.2556 91.9423 25.5589C91.4337 26.2468 90.876 26.8873 90.1835 27.3882C89.6187 27.7974 89.0111 28.1172 88.3426 28.3078C88.3059 28.316 88.2689 28.322 88.2315 28.3259Z" fill="#020202"/>
<path d="M67.6721 17.9907C67.6507 19.3215 67.3387 20.569 66.6367 21.6987C65.9644 22.7822 65.0533 23.5631 63.8423 23.9387C63.0239 24.1923 62.1927 24.2319 61.3609 24.0128C60.0982 23.6804 59.3136 22.8428 58.9529 21.5709C58.7594 20.8888 58.7601 20.193 58.838 19.4952C58.9533 18.4592 59.2583 17.4863 59.801 16.5999C60.478 15.4937 61.3938 14.6872 62.6222 14.2935C63.4091 14.0413 64.2125 13.9863 65.0224 14.1727C66.2986 14.4667 67.0989 15.2874 67.4893 16.5501C67.6295 17.0033 67.6773 17.4296 67.6721 17.9907ZM61.5082 20.035C61.5054 20.6871 61.5578 21.0043 61.6868 21.3103C62.0341 22.1339 62.8949 22.2018 63.4098 21.8716C63.7343 21.6636 63.9699 21.3743 64.1567 21.0415C64.6643 20.1372 64.8881 19.1505 64.9568 18.1189C64.978 17.7998 64.9678 17.4844 64.8958 17.1738C64.6325 16.0386 63.5649 15.9567 62.9387 16.4436C62.654 16.6646 62.4353 16.9443 62.264 17.261C61.8073 18.1136 61.5486 19.0629 61.5082 20.035Z" fill="#010101"/>
<path d="M84.8225 23.943H82.165C82.6303 21.4043 83.0929 18.8788 83.56 16.3289H82.3298C82.4611 15.627 82.5886 14.9522 82.7164 14.2636H83.9226C84.0351 13.7868 84.1262 13.3247 84.2542 12.8738C84.4568 12.161 84.7933 11.5193 85.2983 10.9785C85.8033 10.4377 86.4156 10.0993 87.1244 9.93507C87.8307 9.77058 88.5643 9.77446 89.2688 9.94642C89.3679 9.97058 89.4635 10.0095 89.5828 10.0486C89.4126 10.7585 89.2448 11.4596 89.0731 12.1767C88.9121 12.1446 88.7615 12.0992 88.6085 12.0876C88.3968 12.0717 88.1805 12.0552 87.9732 12.0859C87.6407 12.1342 87.3788 12.3275 87.1672 12.5931C86.9187 12.9071 86.7731 13.2675 86.6888 13.6573C86.6472 13.8506 86.6126 14.0438 86.5711 14.2573H88.4038C88.2817 14.9556 88.1638 15.6309 88.0433 16.3205H86.2217C85.7544 18.865 85.2901 21.3958 84.8225 23.943Z" fill="#020202"/>
<path d="M48.955 14.5215C48.7463 15.178 48.5446 15.8118 48.3397 16.456C48.1625 16.3949 47.9973 16.3311 47.8283 16.2809C47.3433 16.1359 46.8515 16.0473 46.3441 16.1275C46.1088 16.1644 45.8921 16.2446 45.7144 16.4147C45.4184 16.6982 45.3671 17.1378 45.617 17.4651C45.7383 17.6179 45.8811 17.7513 46.0406 17.861C46.2825 18.0332 46.5453 18.1738 46.7936 18.3373C47.13 18.5572 47.4383 18.8195 47.7114 19.1179C48.2622 19.7234 48.4455 20.4408 48.3317 21.2473C48.1434 22.5728 47.3704 23.4078 46.175 23.8239C44.7913 24.3053 43.4057 24.2573 42.0512 23.6657C41.9265 23.6112 41.8091 23.5389 41.6724 23.4665L42.3223 21.5444C42.6047 21.6593 42.8675 21.7789 43.1382 21.8724C43.6559 22.0513 44.1863 22.1608 44.7369 22.1033C44.8393 22.0928 44.9402 22.0699 45.0374 22.0352C45.7697 21.7695 45.7822 20.9792 45.4405 20.5768C45.2937 20.4036 45.1111 20.257 44.9296 20.1217C44.7299 19.9737 44.5077 19.8582 44.3013 19.7191C43.9792 19.5017 43.6825 19.2541 43.4269 18.9529C42.8186 18.2356 42.68 17.4163 42.9299 16.5224C43.2281 15.4563 43.9533 14.7983 44.9301 14.4032C45.5991 14.1327 46.2997 14.065 47.0132 14.0892C47.5443 14.1071 48.0681 14.1665 48.5717 14.35C48.699 14.3952 48.8195 14.4599 48.955 14.5215Z" fill="#020101"/>
<path d="M79.8578 23.9473H77.2358C77.8307 20.7226 78.4237 17.509 79.0181 14.286H81.6396C81.6775 14.4341 79.9276 23.7256 79.8578 23.9473Z" fill="#020202"/>
<path d="M80.6451 13.0878C79.9264 13.1144 79.4473 12.5245 79.4193 11.8077C79.3918 11.0976 79.7897 10.449 80.4547 10.2259C80.7696 10.1151 81.1118 10.1174 81.4252 10.2324C81.9612 10.4288 82.217 10.849 82.2502 11.4067C82.2782 11.8813 82.1427 12.312 81.7982 12.654C81.4897 12.9605 81.116 13.0883 80.6451 13.0878Z" fill="#020202"/>
<path d="M32.4778 8.02599C32.2858 8.07429 32.0992 8.14337 31.9048 8.20545C31.8288 8.01463 31.7611 7.83083 31.6832 7.65161C31.4935 7.21685 31.2497 6.81832 30.8967 6.50046C30.5715 6.20772 30.1985 6.02174 29.7616 6.01401C29.5968 6.01111 29.4714 5.97054 29.377 5.83045C29.3424 5.78621 29.3029 5.74618 29.2594 5.71113C28.977 5.45221 28.6567 5.30342 28.2668 5.32878C27.9776 5.34787 27.6938 5.39013 27.4197 5.48312C26.7271 5.71765 26.1739 6.15748 25.7018 6.71494C25.0935 7.43109 24.6629 8.25568 24.3351 9.13583C24.1346 9.67372 23.9744 10.2276 23.7878 10.7995C23.76 10.8097 23.7031 10.8331 23.6445 10.8519C23.304 10.9606 22.962 11.0669 22.6225 11.1763C22.2617 11.2919 21.9021 11.4091 21.5438 11.5277C21.332 11.5973 21.2195 11.7468 21.1908 11.9741C21.1002 12.6856 21.0025 13.3962 20.9122 14.1075C20.8218 14.8189 20.738 15.5326 20.6489 16.2439C20.543 17.0893 20.4338 17.9327 20.3265 18.7771C20.2502 19.3771 20.1745 19.9771 20.0994 20.5773C20.0119 21.2753 19.9246 21.9734 19.8375 22.6716C19.759 23.2928 19.6812 23.914 19.604 24.535C19.5685 24.8198 19.5358 25.105 19.501 25.3961C19.561 25.414 19.6052 25.4313 19.6511 25.4403C20.8173 25.6657 21.9837 25.8911 23.1501 26.1166C24.6468 26.4045 26.1438 26.6917 27.6409 26.9781C29.0363 27.2479 30.4308 27.5228 31.8265 27.7923C31.8822 27.8032 31.9441 27.7846 32.0025 27.7798C31.9338 27.7641 31.9225 27.7129 31.9253 27.6513C31.938 27.3775 31.9503 27.1038 31.9622 26.8301C31.9622 26.8088 31.9655 26.7878 31.9662 26.7668C31.9813 26.2953 31.991 25.8248 32.0133 25.3528C32.0314 24.9601 32.0634 24.5681 32.0896 24.1759C32.0896 24.1688 32.0896 24.1618 32.0896 24.1548C32.1038 23.7822 32.1183 23.4097 32.1329 23.0373C32.1482 22.6223 32.1613 22.2074 32.1778 21.7926C32.1889 21.5187 32.2044 21.2451 32.2173 20.9714C32.2456 20.3674 32.2737 19.7636 32.3016 19.1599C32.3143 18.893 32.3251 18.6262 32.3421 18.3597C32.3656 17.9955 32.3926 17.6315 32.4183 17.2675C32.4183 17.2533 32.4195 17.2393 32.4199 17.2253C32.435 16.7255 32.4435 16.2258 32.467 15.7265C32.4837 15.3551 32.5167 14.9843 32.5423 14.6133C32.5423 14.5991 32.5435 14.5851 32.544 14.5708C32.559 14.0926 32.5689 13.6141 32.591 13.1359C32.6082 12.7574 32.6397 12.3794 32.6649 12.0007C32.6663 11.9796 32.6675 11.9586 32.6682 11.9374C32.6833 11.4661 32.6931 10.9954 32.7153 10.5237C32.7329 10.1372 32.7647 9.75295 32.7901 9.3677C32.7915 9.34669 32.792 9.32543 32.7927 9.30442C32.8084 8.86853 32.8241 8.43257 32.8397 7.99652C32.7183 8.00521 32.5938 7.99773 32.4778 8.02599ZM29.4342 8.99212L27.3081 9.66696L27.2771 9.62107C27.6011 8.52306 28.0536 7.5178 29.1361 6.92798C29.3987 7.6021 29.4166 8.29167 29.4342 8.99212ZM24.8691 9.93989C25.1145 9.21143 25.4169 8.50929 25.823 7.85933C26.176 7.29607 26.5899 6.79103 27.1643 6.4495C27.5093 6.2442 27.8802 6.12826 28.2821 6.12947C28.4064 6.12947 28.5261 6.14396 28.6374 6.23405C28.6159 6.25713 28.5923 6.278 28.5668 6.29637C27.8795 6.67364 27.4138 7.26564 27.0561 7.95618C26.7568 8.53248 26.5728 9.15153 26.4374 9.787C26.4285 9.82806 26.4205 9.86961 26.4099 9.91019C26.4016 9.93419 26.3917 9.95759 26.3803 9.98023L24.686 10.515C24.7554 10.2945 24.8095 10.1157 24.8691 9.93917V9.93989ZM28.7972 15.8954C28.7573 15.8861 28.718 15.8742 28.6796 15.8596C28.2222 15.6451 27.7273 15.5274 27.2246 15.5135C26.9368 15.5055 26.6476 15.536 26.3793 15.665C26.0414 15.8275 25.844 16.0932 25.8077 16.4804C25.7945 16.6002 25.8089 16.7216 25.8498 16.8346C25.8907 16.9477 25.9569 17.0493 26.0431 17.1313C26.2453 17.3311 26.4583 17.5192 26.681 17.6946C27.1008 18.0245 27.5296 18.3409 27.895 18.7382C28.5268 19.4249 28.7925 20.2401 28.733 21.1746C28.6937 21.7946 28.5586 22.3885 28.2454 22.9274C27.7748 23.738 27.0874 24.2522 26.1746 24.3766C24.8123 24.563 23.6096 24.1681 22.5742 23.2339C22.4592 23.13 22.4208 23.0334 22.4723 22.8692C22.6512 22.2996 22.8095 21.7233 22.9792 21.1374C23.2574 21.3265 23.5106 21.5079 23.7727 21.6741C24.0812 21.8746 24.4242 22.0129 24.7832 22.0815C25.0832 22.1361 25.3771 22.1235 25.6214 21.9054C25.9273 21.6335 25.9743 21.284 25.8802 20.9016C25.8287 20.6932 25.7343 20.5021 25.5835 20.3531C25.3465 20.1186 25.0964 19.8983 24.854 19.6698C24.6215 19.4507 24.3739 19.2452 24.1636 19.0056C23.7226 18.503 23.5212 17.8982 23.5134 17.2243C23.5026 16.292 23.7487 15.4406 24.2928 14.6896C24.7695 14.031 25.3964 13.5759 26.1518 13.3129C27.139 12.9633 28.2056 12.9256 29.214 13.2045C29.3505 13.2412 29.4803 13.303 29.6255 13.3578C29.3465 14.2148 29.0742 15.0476 28.7972 15.8947V15.8954ZM30.1562 8.77281C30.1757 8.09869 30.1218 7.45862 29.9173 6.80938C29.9879 6.81929 30.0402 6.81832 30.0863 6.83354C30.2727 6.89803 30.42 7.02072 30.5553 7.16468C30.8214 7.44727 31.1309 8.05835 31.1878 8.44964L30.1562 8.77281Z" fill="#81C039"/>
</g>
<defs>
<clipPath id="clip0_654_32145">
<rect width="78" height="23" fill="white" transform="translate(19.5 5.32611)"/>
</clipPath>
</defs>
</svg>
