<svg width="95" height="95" viewBox="0 0 95 95" fill="none" xmlns="http://www.w3.org/2000/svg">
<g opacity="0.5">
<path d="M47.918 7.9165C25.862 7.9165 7.91797 25.8605 7.91797 47.9165C7.91797 69.9725 25.862 87.9165 47.918 87.9165C69.974 87.9165 87.918 69.9725 87.918 47.9165C87.918 25.8605 69.974 7.9165 47.918 7.9165ZM15.918 47.9165C15.918 44.3205 16.542 40.8685 17.642 37.6405L23.918 43.9165L31.918 51.9165V59.9165L39.918 67.9165L43.918 71.9165V79.6405C28.162 77.6605 15.918 64.2045 15.918 47.9165ZM73.238 67.4085C70.626 65.3045 66.666 63.9165 63.918 63.9165V59.9165C63.918 57.7948 63.0751 55.7599 61.5748 54.2597C60.0745 52.7594 58.0397 51.9165 55.918 51.9165H39.918V39.9165C42.0397 39.9165 44.0745 39.0736 45.5748 37.5734C47.0751 36.0731 47.918 34.0382 47.918 31.9165V27.9165H51.918C54.0397 27.9165 56.0745 27.0736 57.5748 25.5734C59.0751 24.0731 59.918 22.0382 59.918 19.9165V18.2725C71.63 23.0285 79.918 34.5165 79.918 47.9165C79.9172 54.9753 77.5671 61.8331 73.238 67.4085V67.4085Z" fill="white"/>
</g>
</svg>
