<svg id="Layer_1" data-name="Layer 1" xmlns="http://www.w3.org/2000/svg" xmlns:xlink="http://www.w3.org/1999/xlink" width="151.92" height="45" viewBox="0 0 151.92 45"><defs><style>.cls-1,.cls-2,.cls-3,.cls-4,.cls-5{fill-rule:evenodd;}.cls-1{fill:url(#GradientFill_1);}.cls-2{fill:url(#GradientFill_2);}.cls-3{fill:url(#GradientFill_3);}.cls-4{fill:url(#GradientFill_4);}</style><linearGradient id="GradientFill_1" x1="31.24" y1="29.06" x2="27.46" y2="21.64" gradientUnits="userSpaceOnUse"><stop offset="0" stop-color="#facd8a"/><stop offset="1" stop-color="#f5906c"/></linearGradient><linearGradient id="GradientFill_2" x1="28.32" y1="25.41" x2="13.54" y2="40.71" gradientUnits="userSpaceOnUse"><stop offset="0" stop-color="#e62d38"/><stop offset="1" stop-color="#78459a"/></linearGradient><linearGradient id="GradientFill_3" x1="27.92" y1="25.66" x2="13.94" y2="10.66" gradientUnits="userSpaceOnUse"><stop offset="0" stop-color="#e5eba5"/><stop offset="1" stop-color="#38bbba"/></linearGradient><linearGradient id="GradientFill_4" x1="18.66" y1="46.86" x2="18.66" y2="4.4" gradientUnits="userSpaceOnUse"><stop offset="0" stop-color="#8dd1cd"/><stop offset="1" stop-color="#006f8c"/></linearGradient></defs><title>btn_Google play</title><path class="cls-1" d="M28.38,29.14l5-2.72c0.56-.31,1.15-1.09,0-1.72l-5-2.71-3.56,3.59Z"/><path class="cls-2" d="M24.81,25.57L13.42,37a1.55,1.55,0,0,0,.92-0.23l14-7.68Z"/><path class="cls-3" d="M24.81,25.57L28.37,22l-14-7.65a1.49,1.49,0,0,0-1-.13Z"/><path class="cls-4" d="M24.81,25.57L13.36,14.2a1.19,1.19,0,0,0-.85,1.34c0,1.33.1,19.06,0.1,20.18a1.16,1.16,0,0,0,.87,1.36Z"/><path class="cls-5" d="M97.32,25.05h0A2.77,2.77,0,0,0,94.7,28l4.46-1.87A2,2,0,0,0,97.32,25.05Z"/><path class="cls-5" d="M72,25.1a2.88,2.88,0,0,0-2.85,3,2.83,2.83,0,1,0,5.65,0A2.87,2.87,0,0,0,72,25.1Z"/><path class="cls-5" d="M145.77,0H6.15A6.17,6.17,0,0,0,0,6.15v32.7A6.17,6.17,0,0,0,6.15,45H145.77a6.17,6.17,0,0,0,6.15-6.15V6.15A6.17,6.17,0,0,0,145.77,0ZM72.6,6A3.59,3.59,0,0,1,76.16,9.5,3.56,3.56,0,0,1,69,9.5,3.59,3.59,0,0,1,72.6,6Zm-12.22.23h1V12.9h-1V6.21Zm-12.12,0H52.1v1H49.27V9.06h2.49v1H49.27V11.9H52.1v1H48.27V6.21ZM43.89,6a3.42,3.42,0,0,1,2.44,1l-0.67.7a2.49,2.49,0,0,0-1.73-.69,2.57,2.57,0,0,0,0,5.13,2.12,2.12,0,0,0,2.29-1.92h-2.3v-1h3.24a2.88,2.88,0,0,1,.06.64A3.11,3.11,0,0,1,43.94,13,3.58,3.58,0,0,1,40.34,9.5,3.59,3.59,0,0,1,43.89,6Zm3.93,27.14a7.75,7.75,0,1,1-.11-15.51,7.51,7.51,0,0,1,5.36,2.11l-1.48,1.53a5.47,5.47,0,0,0-3.8-1.53,5.64,5.64,0,0,0,0,11.27c2.32,0,4.79-1.26,5-4.22h-5V24.67h7.11a6.33,6.33,0,0,1,.13,1.4A6.83,6.83,0,0,1,47.82,33.12Zm8-20.22h-1V7.21H53.15v-1h4.28v1H55.79V12.9ZM61,33.11a5,5,0,1,1,0-10A5,5,0,0,1,61,33.11Zm5.52-25.9H64.84V12.9h-1V7.21H62.2v-1h4.28v1ZM72,33.11a5,5,0,1,1,0-10A5,5,0,0,1,72,33.11Zm5.18-26.9h1l3.21,4.87V6.21h1V12.9h-1L78.16,8V12.9h-1V6.21ZM87.51,32.4c0,3.52-2,5.2-4.69,5.2a4.79,4.79,0,0,1-4.48-2.94l1.92-.8a2.76,2.76,0,0,0,2.55,1.77,2.5,2.5,0,0,0,2.62-2.75v-1a3.29,3.29,0,0,1-2.73,1.21,5,5,0,0,1,0-10h0a3.53,3.53,0,0,1,2.69,1.14V23.45h2.09v9Zm3.87,0.42h-2.2V18.13h2.2V32.82Zm6.11-1.67a2.79,2.79,0,0,0,2.44-1.37l1.72,1.15a5.06,5.06,0,0,1-4.18,2.19,4.82,4.82,0,0,1-4.89-5,4.71,4.71,0,0,1,4.65-5h0a4.51,4.51,0,0,1,4.14,2.92l0.35,0.81L95,29.64A2.56,2.56,0,0,0,97.49,31.15Zm14.79-3.66h-3.11v5.33H107V18.13h5.31A4.68,4.68,0,1,1,112.28,27.49Zm8.53,5.33h-2.2V18.13h2.2V32.82ZM132,27.53v5.28h-2.2V31.63a3.78,3.78,0,0,1-1.91,1.28,4.15,4.15,0,0,1-4.12-.88A3.64,3.64,0,0,1,123,29.2a3.55,3.55,0,0,1,3.36-3,9.73,9.73,0,0,1,3.36.39c-0.24-2.39-3.89-2.91-5.17-.67l-1.77-1.19C125.42,20.8,132.33,22.09,132,27.53Zm5,10.06h-2.4l2.28-5.19-4.07-9.27h2.4l2.88,6.54L141,23.14h2.4Z"/><path class="cls-5" d="M82.92,25.1a2.87,2.87,0,0,0-2.79,3.06,2.83,2.83,0,0,0,2.76,3,2.79,2.79,0,0,0,2.69-3A2.82,2.82,0,0,0,82.92,25.1Z"/><path class="cls-5" d="M112.28,20.32h-3.11v5h3.11A2.48,2.48,0,1,0,112.28,20.32Z"/><path class="cls-5" d="M127.36,31a3.3,3.3,0,0,0,2.43-2.43,9.41,9.41,0,0,0-1.83-.44C124.19,27.57,124.82,31.69,127.36,31Z"/><path class="cls-5" d="M72.6,12.07a2.57,2.57,0,1,0-2.5-2.56A2.52,2.52,0,0,0,72.6,12.07Z"/><path class="cls-5" d="M61,25.1a2.88,2.88,0,0,0-2.85,3,2.83,2.83,0,1,0,5.65,0A2.87,2.87,0,0,0,61,25.1Z"/><path class="cls-1" d="M28.38,29.14l5-2.72c0.56-.31,1.15-1.09,0-1.72l-5-2.71-3.56,3.59Z"/><path class="cls-2" d="M24.81,25.57L13.42,37a1.55,1.55,0,0,0,.92-0.23l14-7.68Z"/><path class="cls-3" d="M24.81,25.57L28.37,22l-14-7.65a1.49,1.49,0,0,0-1-.13Z"/><path class="cls-4" d="M24.81,25.57L13.36,14.2a1.19,1.19,0,0,0-.85,1.34c0,1.33.1,19.06,0.1,20.18a1.16,1.16,0,0,0,.87,1.36Z"/></svg>