<svg width="88" height="88" viewBox="0 0 88 88" fill="none" xmlns="http://www.w3.org/2000/svg">
<rect width="88" height="88" rx="44" fill="url(#paint0_radial_602_33883)"/>
<rect width="88" height="88" rx="44" fill="url(#paint1_radial_602_33883)"/>
<path d="M44.0018 19.2501C37.2801 19.2501 36.4365 19.2795 33.7965 19.3997C31.1616 19.5203 29.3631 19.9375 27.7894 20.5495C26.1615 21.1817 24.7807 22.0273 23.405 23.4035C22.0282 24.7792 21.1826 26.16 20.5484 27.7873C19.9348 29.3615 19.5171 31.1605 19.3985 33.7944C19.2804 36.4344 19.2495 37.2784 19.2495 44.0001C19.2495 50.7218 19.2794 51.5628 19.399 54.2028C19.5202 56.8376 19.9374 58.6361 20.5489 60.2098C21.1816 61.8377 22.0272 63.2185 23.4034 64.5942C24.7786 65.9709 26.1595 66.8186 27.7863 67.4507C29.361 68.0628 31.1601 68.4799 33.7944 68.6006C36.4344 68.7207 37.2775 68.7501 43.9987 68.7501C50.721 68.7501 51.562 68.7207 54.202 68.6006C56.8369 68.4799 58.6375 68.0628 60.2122 67.4507C61.8396 66.8186 63.2183 65.9709 64.5935 64.5942C65.9703 63.2185 66.8159 61.8377 67.4501 60.2103C68.0586 58.6361 68.4762 56.8371 68.6 54.2033C68.7186 51.5633 68.7495 50.7218 68.7495 44.0001C68.7495 37.2784 68.7186 36.4349 68.6 33.7949C68.4762 31.16 68.0586 29.3615 67.4501 27.7878C66.8159 26.16 65.9703 24.7792 64.5935 23.4035C63.2168 22.0268 61.8401 21.1811 60.2107 20.5495C58.6328 19.9375 56.8333 19.5203 54.1984 19.3997C51.5584 19.2795 50.7179 19.2501 43.9941 19.2501H44.0018ZM41.7815 23.7103C42.4405 23.7092 43.1758 23.7103 44.0018 23.7103C50.6101 23.7103 51.3934 23.734 54.003 23.8526C56.4161 23.9629 57.7258 24.3662 58.5983 24.7049C59.7533 25.1535 60.5768 25.6898 61.4425 26.556C62.3088 27.4223 62.845 28.2473 63.2947 29.4023C63.6334 30.2737 64.0372 31.5834 64.147 33.9965C64.2656 36.6055 64.2914 37.3893 64.2914 43.9944C64.2914 50.5996 64.2656 51.3834 64.147 53.9924C64.0366 56.4055 63.6334 57.7152 63.2947 58.5866C62.8461 59.7416 62.3088 60.5641 61.4425 61.4298C60.5763 62.296 59.7538 62.8323 58.5983 63.2809C57.7269 63.6212 56.4161 64.0234 54.003 64.1337C51.3939 64.2523 50.6101 64.2781 44.0018 64.2781C37.393 64.2781 36.6098 64.2523 34.0007 64.1337C31.5875 64.0224 30.2778 63.6191 29.4049 63.2804C28.2498 62.8318 27.4248 62.2955 26.5586 61.4293C25.6923 60.563 25.1561 59.7401 24.7064 58.5846C24.3677 57.7132 23.9639 56.4035 23.8541 53.9904C23.7355 51.3813 23.7118 50.5975 23.7118 43.9883C23.7118 37.379 23.7355 36.5994 23.8541 33.9903C23.9644 31.5772 24.3677 30.2675 24.7064 29.395C25.155 28.24 25.6923 27.415 26.5586 26.5488C27.4248 25.6825 28.2498 25.1463 29.4049 24.6967C30.2773 24.3564 31.5875 23.9542 34.0007 23.8433C36.2839 23.7402 37.1687 23.7092 41.7815 23.7041V23.7103ZM57.2133 27.8198C55.5736 27.8198 54.2433 29.1486 54.2433 30.7888C54.2433 32.4285 55.5736 33.7588 57.2133 33.7588C58.853 33.7588 60.1833 32.4285 60.1833 30.7888C60.1833 29.1491 58.853 27.8188 57.2133 27.8188V27.8198ZM44.0018 31.29C36.9826 31.29 31.2915 36.9809 31.2915 44.0001C31.2915 51.0193 36.9826 56.7077 44.0018 56.7077C51.0211 56.7077 56.7101 51.0193 56.7101 44.0001C56.7101 36.9809 51.0206 31.29 44.0013 31.29H44.0018ZM44.0018 35.7501C48.5579 35.7501 52.2519 39.4435 52.2519 44.0001C52.2519 48.5562 48.5579 52.2501 44.0018 52.2501C39.4452 52.2501 35.7517 48.5562 35.7517 44.0001C35.7517 39.4435 39.4452 35.7501 44.0018 35.7501Z" fill="white"/>
<defs>
<radialGradient id="paint0_radial_602_33883" cx="0" cy="0" r="1" gradientUnits="userSpaceOnUse" gradientTransform="translate(23.3751 94.7778) rotate(-90) scale(87.2145 81.1163)">
<stop stop-color="#FFDD55"/>
<stop offset="0.1" stop-color="#FFDD55"/>
<stop offset="0.5" stop-color="#FF543E"/>
<stop offset="1" stop-color="#C837AB"/>
</radialGradient>
<radialGradient id="paint1_radial_602_33883" cx="0" cy="0" r="1" gradientUnits="userSpaceOnUse" gradientTransform="translate(-14.7405 6.33937) rotate(78.6806) scale(38.9852 160.699)">
<stop stop-color="#3771C8"/>
<stop offset="0.128" stop-color="#3771C8"/>
<stop offset="1" stop-color="#6600FF" stop-opacity="0"/>
</radialGradient>
</defs>
</svg>
