<svg width="88" height="88" viewBox="0 0 88 88" fill="none" xmlns="http://www.w3.org/2000/svg">
<rect x="0.410482" y="0.410482" width="87.179" height="87.179" rx="43.5895" fill="white" stroke="#DDE1E5" stroke-width="0.820964"/>
<g clip-path="url(#clip0_4566_94533)">
<path d="M22.625 63.2501H30.5V43.4167L19.25 34.6667V59.7501C19.25 61.6868 20.7631 63.2501 22.625 63.2501Z" fill="#4285F4"/>
<path d="M57.5 63.2501H65.375C67.2425 63.2501 68.75 61.6809 68.75 59.7501V34.6667L57.5 43.4167" fill="#34A853"/>
<path d="M57.5 28.2499V43.4166L68.75 34.6666V29.9999C68.75 25.6716 63.9856 23.2041 60.65 25.7999" fill="#FBBC04"/>
<path d="M30.5 43.4167V28.25L44 38.75L57.5 28.25V43.4167L44 53.9167" fill="#EA4335"/>
<path d="M19.25 29.9999V34.6666L30.5 43.4166V28.2499L27.35 25.7999C24.0088 23.2041 19.25 25.6716 19.25 29.9999Z" fill="#C5221F"/>
</g>
<defs>
<clipPath id="clip0_4566_94533">
<rect width="49.5" height="38.5" fill="white" transform="translate(19.25 24.75)"/>
</clipPath>
</defs>
</svg>
