<svg width="32" height="32" viewBox="0 0 32 32" fill="none" xmlns="http://www.w3.org/2000/svg">
<circle cx="16" cy="16" r="16" fill="#28DD2D"/>
<path fill-rule="evenodd" clip-rule="evenodd" d="M16 21.9723C15.3172 21.9722 14.6358 21.9118 13.9646 21.7915C13.7319 22.1187 13.4273 22.3933 13.0722 22.5965C12.7171 22.7996 12.32 22.9264 11.9085 22.9678C9.67924 23.1731 9.18076 22.3298 9.18076 22.3298C9.18076 22.3298 10.4615 22.288 10.9554 20.7718C8.56923 19.516 7 17.3929 7 14.9873C7 11.1273 11.0292 8 16 8C20.9708 8 25 11.1273 25 14.9873C25 18.8473 20.9708 21.9723 16 21.9723Z" fill="white"/>
</svg>
