<svg width="32" height="32" viewBox="0 0 32 32" fill="none" xmlns="http://www.w3.org/2000/svg">
<circle cx="16" cy="16" r="16" fill="#4653F6"/>
<path d="M10.931 10.84C11.9975 10.84 12.8621 9.98039 12.8621 8.92C12.8621 7.85961 11.9975 7 10.931 7C9.86455 7 9 7.85961 9 8.92C9 9.98039 9.86455 10.84 10.931 10.84Z" fill="white"/>
<path d="M16 10.84C17.0665 10.84 17.931 9.98039 17.931 8.92C17.931 7.85961 17.0665 7 16 7C14.9335 7 14.069 7.85961 14.069 8.92C14.069 9.98039 14.9335 10.84 16 10.84Z" fill="white"/>
<path d="M10.931 15.9C11.9975 15.9 12.8621 15.0404 12.8621 13.98C12.8621 12.9196 11.9975 12.06 10.931 12.06C9.86455 12.06 9 12.9196 9 13.98C9 15.0404 9.86455 15.9 10.931 15.9Z" fill="white"/>
<path d="M16 15.9C17.0665 15.9 17.931 15.0404 17.931 13.98C17.931 12.9196 17.0665 12.06 16 12.06C14.9335 12.06 14.069 12.9196 14.069 13.98C14.069 15.0404 14.9335 15.9 16 15.9Z" fill="white"/>
<path d="M10.931 20.94C11.9975 20.94 12.8621 20.0804 12.8621 19.02C12.8621 17.9596 11.9975 17.1 10.931 17.1C9.86455 17.1 9 17.9596 9 19.02C9 20.0804 9.86455 20.94 10.931 20.94Z" fill="white"/>
<path d="M16 20.94C17.0665 20.94 17.931 20.0804 17.931 19.02C17.931 17.9596 17.0665 17.1 16 17.1C14.9335 17.1 14.069 17.9596 14.069 19.02C14.069 20.0804 14.9335 20.94 16 20.94Z" fill="white"/>
<path d="M16 26C17.0665 26 17.931 25.1404 17.931 24.08C17.931 23.0196 17.0665 22.16 16 22.16C14.9335 22.16 14.069 23.0196 14.069 24.08C14.069 25.1404 14.9335 26 16 26Z" fill="white"/>
<path d="M21.069 20.94C22.1355 20.94 23 20.0804 23 19.02C23 17.9596 22.1355 17.1 21.069 17.1C20.0025 17.1 19.1379 17.9596 19.1379 19.02C19.1379 20.0804 20.0025 20.94 21.069 20.94Z" fill="white"/>
<path d="M21.069 10.84C22.1355 10.84 23 9.98039 23 8.92C23 7.85961 22.1355 7 21.069 7C20.0025 7 19.1379 7.85961 19.1379 8.92C19.1379 9.98039 20.0025 10.84 21.069 10.84Z" fill="white"/>
<path d="M21.069 15.9C22.1355 15.9 23 15.0404 23 13.98C23 12.9196 22.1355 12.06 21.069 12.06C20.0025 12.06 19.1379 12.9196 19.1379 13.98C19.1379 15.0404 20.0025 15.9 21.069 15.9Z" fill="white"/>
</svg>
