<svg width="32" height="32" viewBox="0 0 32 32" fill="none" xmlns="http://www.w3.org/2000/svg">
<circle cx="16" cy="16" r="16" fill="#4254FF"/>
<path d="M24.5 16.0079H24V15.0079C24 13.3079 22.7 12.0079 21 12.0079H17V9.70785C18 9.20785 18.3 8.00785 17.7 7.00785C17.2 6.00785 16 5.70785 15 6.30785C14 6.90785 13.7 8.00785 14.3 9.00785C14.4 9.30785 14.7 9.60785 15 9.70785V12.0079H11C9.3 12.0079 8 13.4079 8 15.0079V16.0079H7.5C6.7 16.0079 6 16.7079 6 17.5079C6 18.3079 6.7 19.0079 7.5 19.0079H8V20.0079C8 21.7079 9.3 23.0079 11 23.0079H21C22.7 23.0079 24 21.7079 24 20.0079V19.0079H24.5C25.3 19.0079 26 18.3079 26 17.5079C26 16.7079 25.3 16.0079 24.5 16.0079ZM14 17.5079C14 18.3079 13.3 19.0079 12.5 19.0079C11.7 19.0079 11 18.3079 11 17.5079C11 16.7079 11.7 16.0079 12.5 16.0079C13.3 16.0079 14 16.7079 14 17.5079ZM21 17.5079C21 18.3079 20.3 19.0079 19.5 19.0079C18.7 19.0079 18 18.3079 18 17.5079C18 16.7079 18.7 16.0079 19.5 16.0079C20.3 16.0079 21 16.7079 21 17.5079Z" fill="white"/>
</svg>
