<svg fill="none" height="32" viewBox="0 0 32 32" width="32" xmlns="http://www.w3.org/2000/svg"><rect fill="#4254ff" height="32" rx="16" width="32"/><path d="m13.25 16.9023c.6302 0 1.3607.086 2.1914.2579-1.4609.802-2.1914 1.8619-2.1914 3.1796v2.0625h-6.40234v-2.2773c0-.6589.38672-1.2461 1.16015-1.7617.80209-.5156 1.67578-.888 2.62109-1.1172.9453-.2292 1.819-.3438 2.6211-.3438zm3.5664 1.6329c1.1458-.4584 2.2487-.6875 3.3086-.6875s2.1628.2291 3.3086.6875c1.1458.4583 1.7187 1.0599 1.7187 1.8046v2.0625h-10.0546v-2.0625c0-.7447.5729-1.3463 1.7187-1.8046zm-1.6328-4.254c-.5443.5443-1.1888.8165-1.9336.8165s-1.3893-.2722-1.9336-.8165c-.5443-.5442-.8164-1.1888-.8164-1.9335 0-.7448.2721-1.3894.8164-1.9336.5443-.54431 1.1888-.81644 1.9336-.81644s1.3893.27213 1.9336.81644c.5443.5442.8164 1.1888.8164 1.9336 0 .7447-.2721 1.3893-.8164 1.9335zm6.5312 1.0743c-.4296.4297-.9596.6445-1.5898.6445s-1.1745-.2148-1.6328-.6445c-.4297-.4584-.6445-1.0026-.6445-1.6328 0-.6303.2148-1.1745.6445-1.6329.4583-.4583 1.0026-.6875 1.6328-.6875s1.1602.2292 1.5898.6875c.4584.4584.6875 1.0026.6875 1.6329 0 .6302-.2291 1.1744-.6875 1.6328z" fill="#fff"/></svg>