<svg fill="none" height="32" viewBox="0 0 33 32" width="33" xmlns="http://www.w3.org/2000/svg"><rect fill="#7955ed" height="32" rx="16" width="32" x=".666748"/><path d="m21.3464 14.75 3.3203-3.3203v9.1406l-3.3203-3.3203v2.9297c0 .2344-.0911.4297-.2734.5859-.1563.1563-.3516.2344-.5859.2344h-10c-.2344 0-.4297-.0781-.58598-.2344-.15625-.1562-.23437-.3515-.23437-.5859v-8.3594c0-.2344.07812-.4297.23437-.5859.15628-.1563.35158-.2344.58598-.2344h10c.2343 0 .4296.0781.5859.2344.1823.1562.2734.3515.2734.5859z" fill="#fff"/></svg>