<svg fill="none" height="32" viewBox="0 0 33 32" width="33" xmlns="http://www.w3.org/2000/svg" xmlns:xlink="http://www.w3.org/1999/xlink"><radialGradient id="a" cx="0" cy="0" gradientTransform="matrix(0 -31.7144 29.4969 0 8.83329 34.4647)" gradientUnits="userSpaceOnUse" r="1"><stop offset="0" stop-color="#fd5"/><stop offset=".1" stop-color="#fd5"/><stop offset=".5" stop-color="#ff543e"/><stop offset="1" stop-color="#c837ab"/></radialGradient><radialGradient id="b" cx="0" cy="0" gradientTransform="matrix(2.78253738 13.90074235 -57.29921984 11.46969111 -5.02692 2.30523)" gradientUnits="userSpaceOnUse" r="1"><stop offset="0" stop-color="#3771c8"/><stop offset=".128" stop-color="#3771c8"/><stop offset="1" stop-color="#60f" stop-opacity="0"/></radialGradient><rect fill="url(#a)" height="32" rx="16" width="32" x=".333252"/><rect fill="url(#b)" height="32" rx="16" width="32" x=".333252"/><path d="m16.3341 7c-2.4443 0-2.751.01069-3.711.05438-.9582.04387-1.6122.19556-2.1844.41812-.59198.22988-1.09411.53738-1.59437 1.03781-.50063.50025-.80813 1.00238-1.03876 1.59409-.22313.5725-.375 1.2267-.41813 2.1844-.04294.96-.05419 1.2669-.05419 3.7112s.01088 2.7501.05438 3.7101c.04406.9581.19575 1.6121.41813 2.1843.23006.592.53756 1.0941 1.03801 1.5944.50007.5006 1.0022.8088 1.59373 1.0387.5727.2226 1.2269.3743 2.1848.4181.96.0437 1.2666.0544 3.7107.0544 2.4444 0 2.7503-.0107 3.7103-.0544.9581-.0438 1.6129-.1955 2.1855-.4181.5917-.2299 1.0931-.5381 1.5932-1.0387.5006-.5003.8081-1.0024 1.0387-1.5942.2213-.5724.3732-1.2266.4182-2.1843.0431-.96.0544-1.266.0544-3.7103s-.0113-2.751-.0544-3.711c-.045-.9581-.1969-1.6121-.4182-2.1844-.2306-.59191-.5381-1.09404-1.0387-1.59429-.5006-.50062-1.0013-.80812-1.5938-1.03781-.5737-.22256-1.2281-.37425-2.1863-.41812-.96-.04369-1.2656-.05438-3.7106-.05438zm-.8074 1.62187c.2396-.00037.507 0 .8074 0 2.403 0 2.6878.00863 3.6368.05176.8775.04012 1.3537.18675 1.671.30993.42.16313.7194.35813 1.0343.67313.315.315.51.61501.6735 1.03501.1232.3169.27.7931.3099 1.6706.0431.9488.0525 1.2338.0525 3.6356 0 2.4019-.0094 2.6869-.0525 3.6357-.0401.8775-.1867 1.3537-.3099 1.6706-.1632.42-.3585.7191-.6735 1.0339-.315.315-.6141.51-1.0343.6731-.3169.1237-.7935.27-1.671.3101-.9488.0431-1.2338.0525-3.6368.0525-2.4032 0-2.688-.0094-3.6368-.0525-.8775-.0405-1.3538-.1871-1.6712-.3103-.42-.1631-.72-.3581-1.03501-.6731-.315-.315-.51-.6143-.6735-1.0345-.12319-.3168-.27001-.7931-.30995-1.6706-.04312-.9487-.05175-1.2337-.05175-3.6371s.00863-2.6869.05175-3.6356c.04013-.8775.18676-1.3538.30995-1.671.16312-.42.3585-.72004.6735-1.03504.31501-.315.61501-.51 1.03501-.6735.3173-.12375.7937-.27 1.6712-.31031.8303-.0375 1.152-.04875 2.8294-.05062zm5.6116 1.49433c-.5963 0-1.08.4832-1.08 1.0797 0 .5962.4837 1.08 1.08 1.08.5962 0 1.08-.4838 1.08-1.08 0-.5963-.4838-1.08-1.08-1.08zm-4.8042 1.2619c-2.5525 0-4.6219 2.0695-4.6219 4.6219s2.0694 4.6209 4.6219 4.6209 4.6212-2.0685 4.6212-4.6209-2.0689-4.6219-4.6214-4.6219zm0 1.6219c1.6568 0 3 1.3431 3 3 0 1.6567-1.3432 3-3 3-1.657 0-3-1.3433-3-3 0-1.6569 1.343-3 3-3z" fill="#fff"/></svg>