<svg fill="none" height="32" viewBox="0 0 33 32" width="33" xmlns="http://www.w3.org/2000/svg"><rect fill="#44cd94" height="32" rx="16" width="32" x=".666748"/><path d="m24.1667 11v1.6797h-2.5v2.5h-1.6796v-2.5h-2.5v-1.6797h2.5v-2.5h1.6796v2.5zm-.8203 7.9297c.2344 0 .4297.0781.586.2344.1562.1562.2343.3515.2343.5859v2.9297c0 .2344-.0781.4297-.2343.5859-.1563.1563-.3516.2344-.586.2344-3.9062 0-7.2526-1.3802-10.039-4.1406-2.7604-2.7865-4.14065-6.1328-4.14065-10.03909 0-.23437.07812-.42969.23437-.58593.15625-.15626.35157-.23438.58594-.23438h2.92964c.2344 0 .4297.07812.586.23438.1562.15624.2344.35156.2344.58593 0 1.04169.1562 2.03129.4687 2.96879.1042.3385.0391.625-.1953.8593l-1.8359 1.836c1.2239 2.3958 3.0599 4.2317 5.5078 5.5078l1.8359-1.836c.2344-.2343.5208-.2994.8594-.1953.9375.3125 1.9271.4688 2.9687.4688z" fill="#fff"/></svg>