<svg fill="none" height="32" viewBox="0 0 32 32" width="32" xmlns="http://www.w3.org/2000/svg"><rect fill="#000" height="32" rx="16" width="32"/><path d="m21.0156 10.9844c1.375 0 2.5469.5 3.5156 1.5.9688.9687 1.4532 2.1406 1.4532 3.5156s-.4844 2.5625-1.4532 3.5625c-.9687.9687-2.1406 1.4531-3.5156 1.4531h-4.0312v-1.9218h4.0312c.8438 0 1.5625-.2969 2.1563-.8907.625-.625.9375-1.3593.9375-2.2031s-.3125-1.5625-.9375-2.1562c-.5938-.625-1.3125-.9376-2.1563-.9376h-4.0312v-1.9218zm-9 6v-1.9688h7.9688v1.9688zm-3.23435-3.1406c-.59375.5937-.89063 1.3124-.89063 2.1562s.29688 1.5781.89063 2.2031c.625.5938 1.35935.8907 2.20315.8907h4.0312v1.9218h-4.0312c-1.37502 0-2.5469-.4844-3.51565-1.4531-.96875-1-1.45313-2.1875-1.45313-3.5625s.48438-2.5469 1.45313-3.5156c.96875-1 2.14063-1.5 3.51565-1.5h4.0312v1.9218h-4.0312c-.8438 0-1.57815.3126-2.20315.9376z" fill="#fff"/></svg>