<svg width="32" height="32" viewBox="0 0 32 32" fill="none" xmlns="http://www.w3.org/2000/svg">
<circle cx="16" cy="16" r="16" fill="#E15241"/>
<path d="M21.75 10H11.25C9.975 10 9 10.975 9 12.25V19.75C9 21.025 9.975 22 11.25 22H21.75C23.025 22 24 21.025 24 19.75V12.25C24 10.975 23.025 10 21.75 10ZM22.2 12.85L17.925 16.3C17.1 16.975 15.9 16.975 15 16.3L10.8 12.85C10.5 12.625 10.425 12.1 10.65 11.8C10.875 11.5 11.4 11.425 11.7 11.65L15.975 15.1C16.275 15.325 16.725 15.325 17.025 15.1L21.3 11.65C21.6 11.425 22.125 11.5 22.35 11.8C22.575 12.175 22.5 12.55 22.2 12.85Z" fill="white"/>
</svg>
