<svg fill="none" height="32" viewBox="0 0 32 32" width="32" xmlns="http://www.w3.org/2000/svg"><rect fill="#00b55d" height="32" rx="16" width="32"/><path clip-rule="evenodd" d="m15.8532 6.54443h.0046c5.0972 0 9.2422 4.14727 9.2422 9.24447 0 5.0971-4.145 9.2444-9.2422 9.2444-1.88 0-3.6238-.5593-5.0856-1.5276l-3.55329 1.1359 1.15209-3.4343c-1.10818-1.5219-1.75992-3.3962-1.75992-5.4184 0-5.0983 4.14502-9.24447 9.24212-9.24447zm3.5698 14.35897c.7061-.1525 1.5912-.6748 1.8142-1.3046.2231-.6309.2231-1.1682.1584-1.2826-.0523-.0908-.1758-.1503-.3603-.2391-.048-.0231-.1002-.0482-.1563-.0764-.2715-.1352-1.5923-.7881-1.8419-.8748-.245-.0924-.4784-.0601-.6633.2011-.0352.0492-.0703.0986-.1052.1476-.223.3137-.4382.6163-.617.8092-.163.1733-.4288.1953-.6518.1028-.0243-.0101-.0522-.0214-.0834-.034-.3531-.1426-1.1363-.4589-2.0844-1.3029-.7996-.7119-1.3428-1.5982-1.4999-1.8639-.1543-.2667-.0212-.423.1018-.5675.0023-.0027.0045-.0053.0068-.008.0793-.0981.1563-.1799.2336-.262.0557-.059.1115-.1183.1685-.1841.0085-.0097.0168-.0192.0248-.0284.1211-.1393.1933-.2222.2745-.3956.0925-.1792.0266-.364-.0393-.5004-.0453-.0955-.3252-.7747-.5655-1.3578-.1029-.2495-.1985-.4814-.2653-.6425-.1791-.4287-.3155-.4449-.587-.4564-.0083-.0004-.0167-.0009-.0252-.0013-.0859-.0043-.1804-.0091-.2845-.0091-.3536 0-.7222.104-.9453.3316-.0077.008-.0159.0163-.0243.0248-.2853.2902-.9209.9366-.9209 2.2251 0 1.291.916 2.5404 1.0855 2.7716.0047.0063.0088.0119.0123.0168.0102.0133.0294.0412.0574.0817.346.5012 2.0316 2.9422 4.5452 3.9835 2.1239.8805 2.7548.7985 3.2378.6956z" fill="#fff" fill-rule="evenodd"/></svg>