<svg fill="none" height="32" viewBox="0 0 33 32" width="33" xmlns="http://www.w3.org/2000/svg"><rect fill="#49da1f" height="32" rx="16" width="32" x=".666748"/><path d="m23.4636 9.08594-5.2734 5.23436h3.4765v.8594h-5v-5h.8204v3.5547l5.3906-5.2344zm-11.289 5.89846c1.25 2.4218 3.0859 4.2578 5.5078 5.5078l1.8359-1.836c.2604-.2604.5469-.3255.8594-.1953.9375.3125 1.9271.4688 2.9687.4688.2344 0 .4297.0781.586.2344.1562.1562.2343.3515.2343.5859v2.9297c0 .2344-.0781.4297-.2343.5859-.1563.1563-.3516.2344-.586.2344-3.9062 0-7.2526-1.3802-10.039-4.1406-2.7604-2.7865-4.14065-6.1328-4.14065-10.03909 0-.23437.07812-.42969.23437-.58593.15625-.15626.35157-.23438.58594-.23438h2.92964c.2344 0 .4297.07812.586.23438.1562.15624.2344.35156.2344.58593 0 1.04169.1562 2.03129.4687 2.96879.1042.3385.0391.625-.1953.8593z" fill="#fff"/></svg>