<svg fill="none" height="32" viewBox="0 0 32 32" width="32" xmlns="http://www.w3.org/2000/svg"><rect fill="#7955ed" height="32" rx="16" width="32"/><path d="m11.8203 10.1797h11.6797v1.6406h-11.6797zm0 6.6406v-1.6406h11.6797v1.6406zm0 5v-1.6406h11.6797v1.6406zm-3.39842-1.6797c.26041-.2604.55989-.3906.89843-.3906s.625.1302.85939.3906c.2604.2344.3906.5209.3906.8594s-.1302.638-.3906.8984c-.23439.2344-.52085.3516-.85939.3516s-.63802-.1172-.89843-.3516c-.23438-.2604-.35157-.5599-.35157-.8984s.11719-.625.35157-.8594zm0-10.039c.26041-.23441.55989-.3516.89843-.3516s.625.11719.85939.3516c.2604.2343.3906.5338.3906.8984s-.1302.6641-.3906.8984c-.23439.2344-.52085.3516-.85939.3516s-.63802-.1172-.89843-.3516c-.23438-.2343-.35157-.5338-.35157-.8984s.11719-.6641.35157-.8984zm0 5c.26041-.2344.55989-.3516.89843-.3516s.625.1172.85939.3516c.2604.2343.3906.5338.3906.8984s-.1302.6641-.3906.8984c-.23439.2344-.52085.3516-.85939.3516s-.63802-.1172-.89843-.3516c-.23438-.2343-.35157-.5338-.35157-.8984s.11719-.6641.35157-.8984z" fill="#fff"/></svg>