<svg width="88" height="88" viewBox="0 0 88 88" fill="none" xmlns="http://www.w3.org/2000/svg">
<rect width="88" height="88" rx="44" fill="#7566EB"/>
<path fill-rule="evenodd" clip-rule="evenodd" d="M64.8479 20.9234C69.3731 24.9965 71.8818 34.0019 70.1872 48.2662C68.7044 60.8512 60.2201 63.0803 57.3721 63.8285C57.0928 63.9019 56.8677 63.9611 56.7087 64.0143C55.9396 64.2699 49.1707 66.0213 40.3571 65.2569C40.0498 65.6239 39.7578 65.9732 39.48 66.3055C34.9938 71.6724 34.2207 72.5972 32.625 72.0801C31.1434 71.6139 31.231 69.2945 31.231 69.2945L31.2428 63.5694H31.231C18.3536 59.8205 18.5335 46.0012 18.685 38.6241C18.8364 31.2494 20.2186 25.2924 24.1426 21.2334C32.8806 12.9357 57.5466 13.9652 64.8503 20.921L64.8479 20.9234ZM33.9116 69.9904C35.6464 68.1846 41.2247 61.2288 41.2247 61.2288C48.6989 61.7282 54.6512 60.1969 55.2925 59.9839C55.442 59.9342 55.6575 59.8821 55.9259 59.8173C58.3515 59.2316 65.0914 57.6042 66.3381 47.2178C66.3368 47.1661 66.3549 46.9832 66.3842 46.6886C66.6807 43.7014 68.1166 29.2366 61.9856 23.8014C56.4759 18.623 34.8512 17.016 27.1853 24.2038C23.8625 27.6 22.7359 32.6435 22.6176 38.8017C22.6135 39.0133 22.6088 39.2314 22.604 39.4557C22.4686 45.7562 22.2307 56.8324 32.7732 59.8537C32.7732 59.8537 32.7306 68.594 32.7306 69.3585C32.7211 70.5229 33.3436 70.5773 33.9116 69.9904Z" fill="white"/>
<path d="M44.3108 25.5552C43.3996 25.5552 43.3996 26.9752 44.3108 26.987C51.3802 27.0415 57.2024 31.969 57.2663 41.0075C57.2663 41.9613 58.6626 41.9495 58.6508 40.9957H58.6484C58.5727 31.2566 52.2157 25.6096 44.3108 25.5552Z" fill="white"/>
<path d="M53.6101 39.5091C53.5888 40.4511 54.9828 40.496 54.9946 39.5423C55.1106 34.1722 51.7995 29.7487 45.5774 29.2825C44.6662 29.2162 44.5715 30.6481 45.4804 30.7144C50.8765 31.1238 53.7189 34.8064 53.6101 39.5091Z" fill="white"/>
<path d="M52.1189 45.6178C50.9497 44.9409 49.7592 45.3622 49.267 46.0273L48.2374 47.3597C47.7144 48.0366 46.7369 47.9467 46.7369 47.9467C39.6036 46.0604 37.6961 38.5958 37.6961 38.5958C37.6961 38.5958 37.6085 37.5852 38.2617 37.0432L39.5492 35.9782C40.1929 35.4669 40.6 34.2363 39.9444 33.0269C38.1931 29.8625 37.0168 28.7715 36.418 27.9337C35.7885 27.1455 34.8418 26.968 33.8572 27.5006H33.8359C31.7887 28.6981 29.5474 30.9394 30.2645 33.247C31.4881 35.68 33.7365 43.4357 40.903 49.2957C44.2708 52.0671 49.6007 54.9072 51.8633 55.5628L51.8846 55.5959C54.114 56.3391 56.2819 54.0102 57.4393 51.9015V51.8849C57.9528 50.8649 57.7824 49.8992 57.0322 49.2673C55.7021 47.9703 53.6951 46.5385 52.1189 45.6178Z" fill="white"/>
<path d="M46.5525 34.565C48.8269 34.6975 49.9298 35.8856 50.0482 38.3257C50.0908 39.2795 51.4753 39.2132 51.4327 38.2594C51.2812 35.0738 49.6198 33.2988 46.6282 33.1331C45.717 33.0787 45.6318 34.5105 46.5525 34.565Z" fill="white"/>
</svg>
