<svg width="88" height="88" viewBox="0 0 88 88" fill="none" xmlns="http://www.w3.org/2000/svg">
<rect width="88" height="88" rx="44" fill="#00D26C"/>
<path fill-rule="evenodd" clip-rule="evenodd" d="M43.5965 17.9976H43.6092C57.6264 17.9976 69.0251 29.4026 69.0251 43.4198C69.0251 57.437 57.6264 68.842 43.6092 68.842C38.439 68.842 33.6437 67.304 29.6238 64.641L19.8522 67.7647L23.0204 58.3204C19.9729 54.1353 18.1807 48.9809 18.1807 43.4198C18.1807 29.3994 29.5794 17.9976 43.5965 17.9976ZM53.4136 57.4847C55.3552 57.0652 57.7894 55.6289 58.4027 53.897C59.016 52.1619 59.016 50.6842 58.8381 50.3696C58.6944 50.12 58.3546 49.9564 57.8474 49.7122C57.7153 49.6486 57.5719 49.5796 57.4176 49.5021C56.6708 49.1303 53.0386 47.3349 52.3522 47.0965C51.6785 46.8423 51.0366 46.9313 50.5282 47.6495C50.4315 47.7848 50.335 47.9205 50.2391 48.0555C49.6257 48.9181 49.034 49.7503 48.5421 50.2807C48.094 50.7573 47.3631 50.8177 46.7498 50.5635C46.6829 50.5356 46.6063 50.5047 46.5205 50.47C45.5494 50.0778 43.3955 49.2079 40.7883 46.8868C38.5893 44.9293 37.0957 42.4919 36.6635 41.761C36.2392 41.0278 36.6052 40.5979 36.9435 40.2005L36.9622 40.1785C37.1803 39.9087 37.392 39.684 37.6047 39.4581C37.7577 39.2957 37.9112 39.1327 38.0681 38.9519C38.0914 38.925 38.1141 38.899 38.1361 38.8736C38.4693 38.4906 38.6676 38.2625 38.8912 37.7856C39.1454 37.2931 38.9642 36.7846 38.7831 36.4097C38.6585 36.147 37.8886 34.279 37.2277 32.6755C36.9449 31.9894 36.6821 31.3517 36.4983 30.9089C36.0057 29.73 35.6308 29.6855 34.884 29.6537C34.8611 29.6526 34.838 29.6514 34.8146 29.6502C34.5786 29.6383 34.3186 29.6251 34.0323 29.6251C33.0599 29.6251 32.0462 29.9111 31.4329 30.5371C31.4115 30.559 31.3891 30.5817 31.366 30.6053C30.5813 31.4033 28.8335 33.1809 28.8335 36.7243C28.8335 40.2745 31.3525 43.7104 31.8186 44.3461C31.8315 44.3636 31.8428 44.379 31.8524 44.3922C31.8804 44.4291 31.9333 44.5056 32.0102 44.617C32.9619 45.9952 37.5973 52.708 44.5095 55.5717C50.3502 57.9931 52.0853 57.7675 53.4136 57.4847Z" fill="white"/>
</svg>
